<svg width="261" height="50" viewBox="0 0 261 50" fill="none" xmlns="http://www.w3.org/2000/svg">
<path d="M5.56717 16.0629C5.84675 16.0829 6.12438 16.0037 6.35123 15.839C6.57807 15.6744 6.73957 15.4349 6.80716 15.1629C7.52716 12.9329 8.56712 10.7229 11.2671 9.6529C11.9086 9.41531 12.5836 9.28032 13.2671 9.2529C13.6046 9.24332 13.94 9.19638 14.2671 9.11292C14.7371 8.95292 15.0971 8.53292 15.6571 7.86292C15.9674 7.48851 16.3014 7.13445 16.6571 6.80292C19.351 4.23162 22.9331 2.7988 26.6571 2.80292C27.3471 2.80292 28.0371 2.80292 28.7271 2.80292H225.057C226.197 2.80292 227.397 2.80289 228.667 2.71289C229.937 2.62289 231.417 2.6229 232.827 2.6229C237.927 2.6229 243.667 3.19291 247.557 7.45291C247.744 7.65958 247.924 7.86959 248.097 8.08292C248.358 8.46253 248.7 8.78003 249.097 9.01291C249.421 9.11601 249.758 9.16995 250.097 9.17292C250.628 9.19947 251.154 9.28329 251.667 9.42292C254.667 10.3629 255.897 12.8429 256.667 15.1329C256.738 15.403 256.9 15.6401 257.126 15.8042C257.353 15.9682 257.628 16.049 257.907 16.0329C258.138 16.0401 258.367 15.9954 258.579 15.9019C258.79 15.8084 258.977 15.6686 259.127 15.4929C259.218 15.3608 259.272 15.2071 259.284 15.0473C259.297 14.8875 259.267 14.7273 259.197 14.5829C258.327 11.8729 256.067 7.24292 250.797 6.58292L250.197 6.51291L249.797 6.05292C248.116 4.15197 246.039 2.64226 243.712 1.62989C241.385 0.617511 238.864 0.127021 236.327 0.192904H40.8272C39.1772 0.192904 37.4872 0.142908 35.8272 0.102908C34.1672 0.0629081 32.4672 0.00290195 30.8272 0.00290195C28.6344 -0.0212799 26.4425 0.105692 24.2671 0.382907C20.2214 0.939031 16.5188 2.95573 13.8571 6.05292L13.4572 6.51291L12.8571 6.58292C7.58709 7.22292 5.33718 11.8529 4.45718 14.5829C4.3911 14.7287 4.3637 14.889 4.37772 15.0484C4.39173 15.2078 4.44664 15.3609 4.53714 15.4929C4.79144 15.8118 5.1619 16.0168 5.56717 16.0629Z" fill="#3C3C55"/>
<path d="M257.707 32.9929C257.428 32.9729 257.15 33.0521 256.923 33.2168C256.696 33.3814 256.535 33.6209 256.467 33.8929C255.747 36.1229 254.707 38.3329 252.007 39.4129C251.364 39.6428 250.69 39.7743 250.007 39.8029C249.669 39.8088 249.332 39.8593 249.007 39.9529C248.537 40.1029 248.177 40.5229 247.617 41.1929C247.307 41.5703 246.973 41.9277 246.617 42.2629C243.918 44.8254 240.339 46.2568 236.617 46.2629H38.3372C37.2071 46.2629 36.0071 46.2629 34.7371 46.3429C33.4671 46.4229 31.9871 46.4429 30.5771 46.4429C25.4771 46.4429 19.7372 45.8629 15.8472 41.6129C15.6538 41.3996 15.4738 41.1896 15.3071 40.9829C15.0497 40.6002 14.7075 40.2819 14.3071 40.0529C13.9839 39.9488 13.6467 39.8948 13.3071 39.8929C12.7755 39.8676 12.2485 39.7804 11.7371 39.6329C8.67705 38.6929 7.50705 36.2229 6.73705 33.9229C6.66429 33.6538 6.5016 33.4177 6.27599 33.254C6.05038 33.0902 5.77547 33.0087 5.49706 33.0229C5.26633 33.0164 5.03711 33.0615 4.82604 33.1549C4.61497 33.2484 4.42741 33.3877 4.27709 33.5629C4.18571 33.6964 4.13034 33.8512 4.11632 34.0124C4.10231 34.1736 4.13017 34.3356 4.19713 34.4829C5.07713 37.1829 7.33705 41.8229 12.607 42.4829L13.2071 42.5529L13.607 43.0129C15.2875 44.9142 17.3648 46.4235 19.6923 47.4343C22.0197 48.4451 24.5406 48.9328 27.0771 48.8629H222.577C180.027 48.8629 225.917 48.9129 227.577 48.9629C229.237 49.0129 230.937 49.0629 232.577 49.0629C234.77 49.0871 236.962 48.9601 239.137 48.6829C243.18 48.1197 246.881 46.1043 249.547 43.0129L249.947 42.5529L250.547 42.4829C255.807 41.8329 258.067 37.2029 258.937 34.4829C259.008 34.337 259.038 34.175 259.026 34.0135C259.013 33.8519 258.959 33.6965 258.867 33.5629C258.725 33.3915 258.548 33.2521 258.348 33.1539C258.148 33.0556 257.93 33.0008 257.707 32.9929Z" fill="#3C3C55"/>
<path d="M257.737 21.6529C257.173 21.6764 256.629 21.8651 256.171 22.1955C255.714 22.526 255.363 22.9835 255.164 23.5114C254.964 24.0393 254.924 24.6142 255.048 25.1647C255.172 25.7153 255.456 26.2172 255.863 26.608C256.27 26.9989 256.783 27.2615 257.338 27.3632C257.893 27.465 258.466 27.4014 258.985 27.1803C259.505 26.9592 259.947 26.5905 260.259 26.1198C260.57 25.6491 260.737 25.0973 260.737 24.5329C260.729 24.1468 260.646 23.766 260.491 23.4123C260.336 23.0586 260.112 22.7389 259.834 22.4714C259.555 22.204 259.227 21.994 258.867 21.8536C258.507 21.7132 258.123 21.6449 257.737 21.6529Z" fill="#3C3C55"/>
<path d="M5.99713 24.5329C6.02308 23.9347 5.86945 23.3424 5.55597 22.8323C5.24249 22.3221 4.78361 21.9175 4.23822 21.6703C3.69283 21.4232 3.08591 21.3449 2.49567 21.4456C1.90542 21.5462 1.35887 21.8212 0.926207 22.2351C0.493548 22.649 0.194617 23.1829 0.0679308 23.7682C-0.0587555 24.3534 -0.00746736 24.9631 0.21527 25.5189C0.438007 26.0747 0.821919 26.5511 1.31769 26.8869C1.81345 27.2226 2.39837 27.4023 2.99713 27.4029C3.77522 27.419 4.52803 27.1259 5.09039 26.5879C5.65275 26.05 5.97877 25.3109 5.99713 24.5329Z" fill="#3C3C55"/>
</svg>
