<svg width="514" height="358" viewBox="0 0 514 358" fill="none" xmlns="http://www.w3.org/2000/svg">
<path d="M28.7101 355.407L28.7102 355.397C28.7186 351.961 28.0518 348.558 26.7479 345.381C25.444 342.203 23.5286 339.315 21.1111 336.881C18.6935 334.446 15.8212 332.513 12.6584 331.193C9.4955 329.872 6.10409 329.19 2.67804 329.184L2.6646 329.185C1.75753 329.208 1.00977 328.479 1.00977 327.571V29.5101C1.00977 28.6529 1.71501 27.9635 2.57203 27.983L2.57202 27.9831L2.58451 27.9831C9.41977 27.9676 15.9769 25.2679 20.8513 20.4627C25.7257 15.6575 28.5297 9.12907 28.6631 2.27599L28.6632 2.27599V2.26625C28.6632 1.58013 29.2194 1.02393 29.9055 1.02393H484.894C485.58 1.02393 486.136 1.58014 486.136 2.26625L486.136 2.27145C486.207 9.06399 488.928 15.5586 493.718 20.3624C498.507 25.1662 504.983 27.8965 511.757 27.9674H511.762C512.441 27.9674 512.992 28.5178 512.992 29.1967V327.9C512.992 328.579 512.441 329.13 511.762 329.13L511.753 329.13C504.927 329.257 498.423 332.059 493.631 336.936C488.839 341.812 486.141 348.375 486.113 355.221L486.113 355.233L486.113 355.244C486.153 356.189 485.397 356.976 484.452 356.976H30.2436C29.3829 356.976 28.6906 356.268 28.7101 355.407Z" stroke="#3C3C55"/>
</svg>
