<svg width="120" height="120" viewBox="0 0 120 120" fill="none" xmlns="http://www.w3.org/2000/svg">
<rect y="6.10352e-05" width="120" height="120" rx="30" fill="#2D2D40"/>
<path fill-rule="evenodd" clip-rule="evenodd" d="M61.0202 38.9995H58.9815L53.6483 49.6659H66.3534L61.0202 38.9995ZM67.0577 54.9992H52.9439L60.0008 77.9341L67.0577 54.9992ZM47.6855 49.6659L53.0186 38.9995H45.4275L38.3166 49.6659H47.6855ZM38.7491 54.9992H47.3638L53.107 73.6645L38.7491 54.9992ZM30.6745 52.1323C30.6641 52.2705 30.6645 52.4093 30.6756 52.5473C30.716 53.0488 30.8982 53.5404 31.22 53.9587L57.8453 88.5716C58.3458 89.2577 59.1515 89.6683 60.004 89.6668C60.8628 89.6663 61.6734 89.2476 62.1715 88.5506L88.7729 53.9688C89.1244 53.5171 89.3338 52.9493 89.3338 52.3325C89.3338 52.3242 89.3337 52.3158 89.3336 52.3075C89.3288 51.8014 89.1803 51.2953 88.8858 50.8536L78.2191 34.8536C77.7246 34.1118 76.8919 33.6662 76.0003 33.6662H62.7257C62.6861 33.6653 62.6464 33.6653 62.6066 33.6662H57.395C57.3553 33.6653 57.3156 33.6653 57.276 33.6662H44.0003C43.1087 33.6662 42.2761 34.1118 41.7815 34.8536L31.1377 50.8194C30.8765 51.1978 30.7105 51.647 30.6745 52.1323ZM81.6841 49.6659L74.5732 38.9995H66.983L72.3162 49.6659H81.6841ZM81.2516 54.9992H72.6378L66.8953 73.6624L81.2516 54.9992Z" fill="url(#paint0_linear_1280_6681)"/>
<defs>
<linearGradient id="paint0_linear_1280_6681" x1="30.1336" y1="91.2665" x2="69.5752" y2="23.0081" gradientUnits="userSpaceOnUse">
<stop stop-color="white"/>
<stop offset="1" stop-color="#9B95E9"/>
</linearGradient>
</defs>
</svg>
