<?xml version="1.0" encoding="UTF-8" standalone="no"?>
<svg
   width="1000"
   height="1000"
   viewBox="0 0 32 32"
   fill="none"
   version="1.1"
   id="svg18"
   sodipodi:docname="Logomark-large.svg"
   inkscape:version="1.1 (c68e22c387, 2021-05-23)"
   xmlns:inkscape="http://www.inkscape.org/namespaces/inkscape"
   xmlns:sodipodi="http://sodipodi.sourceforge.net/DTD/sodipodi-0.dtd"
   xmlns="http://www.w3.org/2000/svg"
   xmlns:svg="http://www.w3.org/2000/svg">
  <sodipodi:namedview
     id="namedview20"
     pagecolor="#ffffff"
     bordercolor="#666666"
     borderopacity="1.0"
     inkscape:pageshadow="2"
     inkscape:pageopacity="0.0"
     inkscape:pagecheckerboard="0"
     showgrid="false"
     inkscape:zoom="0.36384992"
     inkscape:cx="237.74885"
     inkscape:cy="185.12174"
     inkscape:window-width="1629"
     inkscape:window-height="862"
     inkscape:window-x="256"
     inkscape:window-y="201"
     inkscape:window-maximized="1"
     inkscape:current-layer="svg18"
     scale-x="0.032" />
  <path
     fill-rule="evenodd"
     clip-rule="evenodd"
     d="m 14.9731,4.48378 c -0.1982,0.23046 -0.473,0.60844 -0.7769,1.13836 0.4743,-0.59957 1.1802,-1.27701 1.9349,-1.26055 1.51,0.03356 3.94,3.31378 3.947,10.56621 0.0063,7.4785 -1.429,10.1883 -2.5085,11.7667 -3.3974,6.5211 -9.38497,3.2656 -9.64393,3.1213 C 10.2955,31.2036 13.0553,32 16,32 24.8367,32 32,24.8362 32,15.9991 32,9.52979 28.1594,3.95639 22.634,1.43529 22.2573,1.37324 21.8869,1.34475 21.5267,1.34412 c -3.7786,0 -6.5536,3.13966 -6.5536,3.13966 z"
     fill="url(#paint0_linear_1083_50505)"
     id="path2" />
  <path
     fill-rule="evenodd"
     clip-rule="evenodd"
     d="M 16,0 C 7.16329,0 0,7.16381 0,15.9991 c 0,5.888 3.18024,11.0328 7.91735,13.8116 0.0019,0.0013 0.0057,0.0032 0.00823,0.0051 0.25896,0.1443 6.24652,3.3998 9.64392,-3.1213 0.0171,-0.0342 0.0348,-0.0678 0.0525,-0.102 0,0 -0.6527,1.0111 -1.7246,1.0111 -1.0725,0 -2.0647,-1.5543 -2.3787,-2.3463 -0.3134,-0.7914 -1.6101,-3.3436 -1.5689,-9.8249 0.031,-4.9238 1.284,-8.13247 2.2464,-9.81025 0.3039,-0.52993 0.5786,-0.9079 0.7768,-1.13836 0,0 3.3303,-3.767092 7.6609,-3.0485 C 21.5867,0.957918 20.4781,0.590073 19.3245,0.346319 18.2526,0.119027 17.1402,0 16,0 Z"
     fill="url(#paint1_linear_1083_50505)"
     id="path4" />
  <defs
     id="defs16">
    <linearGradient
       id="paint0_linear_1083_50505"
       x1="10.7285"
       y1="5.4096498"
       x2="10.7285"
       y2="28.9277"
       gradientUnits="userSpaceOnUse">
      <stop
         stop-color="#089CFB"
         id="stop6" />
      <stop
         offset="1"
         stop-color="#A8F2F1"
         id="stop8" />
    </linearGradient>
    <linearGradient
       id="paint1_linear_1083_50505"
       x1="3.5717199"
       y1="7.2660499"
       x2="3.5717199"
       y2="28.314301"
       gradientUnits="userSpaceOnUse">
      <stop
         stop-color="#E1BDF1"
         id="stop11" />
      <stop
         offset="1"
         stop-color="#2A72EB"
         id="stop13" />
    </linearGradient>
  </defs>
</svg>
