<svg width="32" height="32" viewBox="0 0 32 32" fill="none" xmlns="http://www.w3.org/2000/svg">
<path fill-rule="evenodd" clip-rule="evenodd" d="M14.9731 4.48378C14.7749 4.71424 14.5001 5.09222 14.1962 5.62214C14.6705 5.02257 15.3764 4.34513 16.1311 4.36159C17.6411 4.39515 20.0711 7.67537 20.0781 14.9278C20.0844 22.4063 18.6491 25.1161 17.5696 26.6945C14.1722 33.2156 8.18463 29.9601 7.92567 29.8158C10.2955 31.2036 13.0553 32 16 32C24.8367 32 32 24.8362 32 15.9991C32 9.52979 28.1594 3.95639 22.634 1.43529C22.2573 1.37324 21.8869 1.34475 21.5267 1.34412C17.7481 1.34412 14.9731 4.48378 14.9731 4.48378Z" fill="url(#paint0_linear_1083_50505)"/>
<path fill-rule="evenodd" clip-rule="evenodd" d="M16 0C7.16329 0 0 7.16381 0 15.9991C0 21.8871 3.18024 27.0319 7.91735 29.8107C7.91925 29.812 7.92305 29.8139 7.92558 29.8158C8.18454 29.9601 14.1721 33.2156 17.5695 26.6945C17.5866 26.6603 17.6043 26.6267 17.622 26.5925C17.622 26.5925 16.9693 27.6036 15.8974 27.6036C14.8249 27.6036 13.8327 26.0493 13.5187 25.2573C13.2053 24.4659 11.9086 21.9137 11.9498 15.4324C11.9808 10.5086 13.2338 7.29993 14.1962 5.62215C14.5001 5.09222 14.7748 4.71425 14.973 4.48379C14.973 4.48379 18.3033 0.716698 22.6339 1.43529C21.5867 0.957918 20.4781 0.590073 19.3245 0.346319C18.2526 0.119027 17.1402 0 16 0Z" fill="url(#paint1_linear_1083_50505)"/>
<defs>
<linearGradient id="paint0_linear_1083_50505" x1="10.7285" y1="5.40965" x2="10.7285" y2="28.9277" gradientUnits="userSpaceOnUse">
<stop stop-color="#089CFB"/>
<stop offset="1" stop-color="#A8F2F1"/>
</linearGradient>
<linearGradient id="paint1_linear_1083_50505" x1="3.57172" y1="7.26605" x2="3.57172" y2="28.3143" gradientUnits="userSpaceOnUse">
<stop stop-color="#E1BDF1"/>
<stop offset="1" stop-color="#2A72EB"/>
</linearGradient>
</defs>
</svg>
