<svg width="57" height="57" viewBox="0 0 57 57" fill="none" xmlns="http://www.w3.org/2000/svg">
<g opacity="0.6">
<rect x="5.30753" y="0.371099" width="51.2182" height="51.2182" rx="25.6091" transform="rotate(5.53102 5.30753 0.371099)" stroke="#9692EA" stroke-width="0.679837"/>
<path d="M20.5487 10.8861C21.0338 10.9331 21.4517 11.0891 21.8024 11.3543C22.153 11.6195 22.4098 11.964 22.5728 12.3879C22.7403 12.8122 22.7992 13.2803 22.7496 13.7924C22.6988 14.318 22.4968 14.7881 22.1438 15.2027C21.7908 15.6174 21.3704 15.9326 20.8825 16.1484C20.3995 16.36 19.9492 16.4456 19.5314 16.4052C19.0508 16.3586 18.6349 16.205 18.2839 15.9443C17.9332 15.6791 17.6742 15.3344 17.5067 14.9101C17.3437 14.4863 17.287 14.0183 17.3366 13.5063C17.3875 12.9807 17.5894 12.5106 17.9424 12.0959C18.2959 11.6767 18.7141 11.3613 19.197 11.1497C19.6804 10.9335 20.131 10.8456 20.5487 10.8861ZM20.0992 11.4546C19.8117 11.4268 19.5407 11.4867 19.2861 11.6343C19.036 11.7824 18.8267 12.0002 18.6584 12.2877C18.4945 12.5756 18.3945 12.9059 18.3584 13.2788C18.3162 13.7145 18.345 14.1185 18.445 14.4909C18.545 14.8633 18.7237 15.1708 18.9814 15.4134C19.239 15.656 19.5722 15.797 19.9809 15.8366C20.2684 15.8645 20.5372 15.8043 20.7873 15.6563C21.0419 15.5086 21.2512 15.2909 21.4151 15.003C21.5834 14.7155 21.6857 14.3853 21.7218 14.0125C21.7644 13.5723 21.7358 13.166 21.6358 12.7936C21.5358 12.4212 21.3568 12.116 21.0988 11.8779C20.8412 11.6353 20.508 11.4942 20.0992 11.4546ZM26.0403 14.2879C26.3323 14.3162 26.5694 14.2552 26.7517 14.1051C26.9385 13.9555 27.046 13.7346 27.0743 13.4427C27.113 13.0429 27.0437 12.7052 26.8663 12.4296C26.6935 12.1544 26.4139 11.9981 26.0276 11.9607C25.7311 11.932 25.4581 11.9894 25.2084 12.133L24.815 16.1959L25.8589 16.5826L25.6746 16.8708L23.2085 16.632L23.232 16.3895L23.9136 15.9522L24.3038 11.923L23.6118 11.6248L23.7961 11.3366L24.6451 11.4188C25.0718 11.4601 25.4931 11.4873 25.909 11.5004C26.2251 11.5128 26.4551 11.526 26.5988 11.54C26.9222 11.5713 27.201 11.6663 27.435 11.825C27.6734 11.9841 27.8488 12.1869 27.9609 12.4336C28.078 12.6761 28.1226 12.9412 28.0947 13.2286C28.0643 13.5431 27.9186 13.8305 27.6576 14.0908C27.3971 14.3467 27.0795 14.5359 26.7049 14.6583C26.3303 14.7807 25.971 14.8162 25.6269 14.7647L25.3378 14.5191L25.5221 14.2309L26.0342 14.2805L26.0403 14.2879ZM33.5229 13.8903L33.2792 13.9483L32.4988 12.5262L31.7172 12.4505L31.2892 16.8705L31.9812 17.1687L31.8036 17.4575L29.688 17.2527L29.7115 17.0101L30.3931 16.5728L30.8009 12.3617L30.0395 12.288L29.0007 13.534L28.7727 13.4303L28.9391 11.7122L29.3181 11.8713L33.2867 12.2556L33.6892 12.1722L33.5229 13.8903ZM35.9972 17.8568L33.8815 17.652L33.905 17.4094L34.5866 16.9721L34.9755 12.9564L34.2835 12.6582L34.4678 12.37L36.5835 12.5748L36.56 12.8174L35.871 13.2608L35.4827 17.2697L36.1748 17.568L35.9972 17.8568ZM43.2172 18.5696L41.1015 18.3647L41.125 18.1222L41.8066 17.6849L42.1577 14.06L39.9628 18.2544L39.5451 18.214L38.2071 13.6298L37.8424 17.3962L38.5233 17.809L38.3458 18.0979L36.7354 17.9419L36.7589 17.6994L37.4405 17.2621L37.8177 13.3677L37.1387 12.9347L37.323 12.6465L38.8727 12.7965L40.1235 17.0866L42.1742 13.1162L43.8048 13.2741L43.7813 13.5167L43.0929 13.9533L42.7034 17.9758L43.3948 18.2807L43.2172 18.5696Z" fill="#24B787"/>
<path d="M20.5487 10.8861C21.0338 10.9331 21.4517 11.0891 21.8024 11.3543C22.153 11.6195 22.4098 11.964 22.5728 12.3879C22.7403 12.8122 22.7992 13.2803 22.7496 13.7924C22.6988 14.318 22.4968 14.7881 22.1438 15.2027C21.7908 15.6174 21.3704 15.9326 20.8825 16.1484C20.3995 16.36 19.9492 16.4456 19.5314 16.4052C19.0508 16.3586 18.6349 16.205 18.2839 15.9443C17.9332 15.6791 17.6742 15.3344 17.5067 14.9101C17.3437 14.4863 17.287 14.0183 17.3366 13.5063C17.3875 12.9807 17.5894 12.5106 17.9424 12.0959C18.2959 11.6767 18.7141 11.3613 19.197 11.1497C19.6804 10.9335 20.131 10.8456 20.5487 10.8861ZM20.0992 11.4546C19.8117 11.4268 19.5407 11.4867 19.2861 11.6343C19.036 11.7824 18.8267 12.0002 18.6584 12.2877C18.4945 12.5756 18.3945 12.9059 18.3584 13.2788C18.3162 13.7145 18.345 14.1185 18.445 14.4909C18.545 14.8633 18.7237 15.1708 18.9814 15.4134C19.239 15.656 19.5722 15.797 19.9809 15.8366C20.2684 15.8645 20.5372 15.8043 20.7873 15.6563C21.0419 15.5086 21.2512 15.2909 21.4151 15.003C21.5834 14.7155 21.6857 14.3853 21.7218 14.0125C21.7644 13.5723 21.7358 13.166 21.6358 12.7936C21.5358 12.4212 21.3568 12.116 21.0988 11.8779C20.8412 11.6353 20.508 11.4942 20.0992 11.4546ZM26.0403 14.2879C26.3323 14.3162 26.5694 14.2552 26.7517 14.1051C26.9385 13.9555 27.046 13.7346 27.0743 13.4427C27.113 13.0429 27.0437 12.7052 26.8663 12.4296C26.6935 12.1544 26.4139 11.9981 26.0276 11.9607C25.7311 11.932 25.4581 11.9894 25.2084 12.133L24.815 16.1959L25.8589 16.5826L25.6746 16.8708L23.2085 16.632L23.232 16.3895L23.9136 15.9522L24.3038 11.923L23.6118 11.6248L23.7961 11.3366L24.6451 11.4188C25.0718 11.4601 25.4931 11.4873 25.909 11.5004C26.2251 11.5128 26.4551 11.526 26.5988 11.54C26.9222 11.5713 27.201 11.6663 27.435 11.825C27.6734 11.9841 27.8488 12.1869 27.9609 12.4336C28.078 12.6761 28.1226 12.9412 28.0947 13.2286C28.0643 13.5431 27.9186 13.8305 27.6576 14.0908C27.3971 14.3467 27.0795 14.5359 26.7049 14.6583C26.3303 14.7807 25.971 14.8162 25.6269 14.7647L25.3378 14.5191L25.5221 14.2309L26.0342 14.2805L26.0403 14.2879ZM33.5229 13.8903L33.2792 13.9483L32.4988 12.5262L31.7172 12.4505L31.2892 16.8705L31.9812 17.1687L31.8036 17.4575L29.688 17.2527L29.7115 17.0101L30.3931 16.5728L30.8009 12.3617L30.0395 12.288L29.0007 13.534L28.7727 13.4303L28.9391 11.7122L29.3181 11.8713L33.2867 12.2556L33.6892 12.1722L33.5229 13.8903ZM35.9972 17.8568L33.8815 17.652L33.905 17.4094L34.5866 16.9721L34.9755 12.9564L34.2835 12.6582L34.4678 12.37L36.5835 12.5748L36.56 12.8174L35.871 13.2608L35.4827 17.2697L36.1748 17.568L35.9972 17.8568ZM43.2172 18.5696L41.1015 18.3647L41.125 18.1222L41.8066 17.6849L42.1577 14.06L39.9628 18.2544L39.5451 18.214L38.2071 13.6298L37.8424 17.3962L38.5233 17.809L38.3458 18.0979L36.7354 17.9419L36.7589 17.6994L37.4405 17.2621L37.8177 13.3677L37.1387 12.9347L37.323 12.6465L38.8727 12.7965L40.1235 17.0866L42.1742 13.1162L43.8048 13.2741L43.7813 13.5167L43.0929 13.9533L42.7034 17.9758L43.3948 18.2807L43.2172 18.5696Z" fill="#9692EA"/>
<path d="M28.2621 24.5265C28.1029 24.6645 27.8761 24.8959 27.6139 25.2286V25.2286C28 24.8654 28.5528 24.4722 29.0689 24.56V24.56C30.1012 24.736 31.4358 27.2322 30.7058 32.2077V32.2077C29.9525 37.3381 28.6934 39.0515 27.7931 40.0248V40.0248C24.802 44.1538 21.0247 41.3141 20.8617 41.1888V41.1888C22.3467 42.3809 24.1591 43.2068 26.179 43.5051V43.5051C32.2404 44.4003 37.8798 40.2121 38.775 34.1503V34.1503C39.4304 29.7127 37.3606 25.5006 33.8259 23.2115V23.2115C33.5738 23.1308 33.3226 23.0737 33.0756 23.0368V23.0368C30.4837 22.654 28.2621 24.5265 28.2621 24.5265" stroke="#9692EA" stroke-width="0.679837"/>
<path fill-rule="evenodd" clip-rule="evenodd" d="M29.4204 21.555C23.3589 20.6598 17.7196 24.848 16.8245 30.9085C16.228 34.9474 17.8882 38.7986 20.8561 41.1846C20.8573 41.1856 20.8597 41.1873 20.8612 41.1889C21.0242 41.3141 24.8015 44.1538 27.7926 40.0249C27.8078 40.0031 27.8234 39.9819 27.839 39.9603C27.839 39.9603 27.2888 40.5877 26.5535 40.4791C25.8178 40.3704 25.2948 39.2038 25.1596 38.6287C25.0248 38.054 24.3939 36.1721 25.0788 31.7304C25.5989 28.3561 26.7834 26.2821 27.6135 25.2287C27.8756 24.896 28.1024 24.6646 28.2617 24.5266C28.2617 24.5266 30.9277 22.28 33.8255 23.2116C33.1555 22.7781 32.4323 22.4134 31.6658 22.1294C30.9535 21.8649 30.2025 21.6705 29.4204 21.555Z" stroke="#9692EA" stroke-width="0.679837"/>
</g>
</svg>
