<svg width="41" height="40" viewBox="0 0 41 40" fill="none" xmlns="http://www.w3.org/2000/svg">
<rect x="0.5" width="40" height="40" rx="20" fill="#000212"/>
<rect x="0.5" width="40" height="40" rx="20" fill="white" fill-opacity="0.92"/>
<rect x="1" y="0.5" width="39" height="39" rx="19.5" stroke="white" stroke-opacity="0.12"/>
<path fill-rule="evenodd" clip-rule="evenodd" d="M22.0206 6.89372C22.3514 6.2436 21.5913 5.45643 20.9686 5.79575C20.4621 6.00668 20.3335 6.77295 20.7278 7.16064C21.0999 7.5646 21.8284 7.42367 22.0206 6.89372ZM14.2651 8.16665C14.3037 7.73582 13.8249 7.37366 13.4466 7.53637C12.92 7.68297 12.8616 8.54956 13.3725 8.75631C13.758 8.97859 14.3053 8.63435 14.2651 8.16665ZM27.1695 8.76855C26.5784 8.69391 26.4848 7.72268 27.0539 7.52712C27.4953 7.30215 27.9003 7.72402 27.9649 8.16127C27.8723 8.53462 27.5732 8.87648 27.1695 8.76855ZM16.4124 11.487C16.5097 10.7194 15.6073 10.0969 14.9749 10.5149C14.3826 10.8314 14.3012 11.7756 14.8386 12.1872C15.3944 12.7111 16.3795 12.2621 16.4124 11.487ZM24.6317 10.9592C24.9138 10.1994 26.0571 10.1764 26.3782 10.9161C26.6956 11.4917 26.3052 12.2046 25.7397 12.4003C24.9905 12.5464 24.279 11.7001 24.6317 10.9592ZM20.4984 11.1731C19.9044 11.2176 19.3352 11.7042 19.3413 12.3574C19.3074 12.891 19.6723 13.3269 20.1055 13.5492C20.1491 13.552 20.1933 13.5556 20.2378 13.5593C20.4825 13.5796 20.7367 13.6007 20.9569 13.4718C21.5261 13.2087 21.8058 12.4196 21.4908 11.8465C21.3218 11.4311 20.8924 11.2556 20.4984 11.1731ZM9.37965 13.3058C9.95734 12.9347 10.7367 13.612 10.518 14.2678C10.3976 14.8351 9.66793 15.0659 9.2508 14.7037C8.80554 14.3644 8.87611 13.5486 9.37965 13.3058ZM32.01 14.0119C32.0684 13.3652 31.2596 12.909 30.7695 13.3066C30.2665 13.6294 30.3212 14.4909 30.857 14.7426C31.3436 15.0462 32.0428 14.6015 32.01 14.0119ZM22.1416 14.4782C22.9505 14.1746 23.9111 14.5379 24.3721 15.2915C24.9802 16.2127 24.6567 17.6157 23.713 18.1443C22.7352 18.7695 21.3074 18.2395 20.9463 17.0984C20.5363 16.0769 21.1335 14.7984 22.1416 14.4782ZM19.9356 15.4698C19.5026 14.5115 18.2962 14.1406 17.3998 14.5827C16.4444 15.0286 16.0049 16.344 16.4999 17.3124C16.9413 18.3138 18.2281 18.7241 19.1402 18.1828C20.0511 17.7013 20.4451 16.4025 19.9356 15.4698ZM12.6456 16.2808C12.7137 15.6772 13.2586 15.2844 13.8083 15.2438C14.4005 15.3185 14.8737 15.7992 14.9381 16.4256C14.8992 17.0457 14.4407 17.6518 13.8118 17.648C13.12 17.7103 12.5135 16.991 12.6456 16.2808ZM28.3415 16.4228C28.3731 15.5701 27.3868 14.9412 26.6766 15.3732C25.914 15.7489 25.8568 16.9917 26.5914 17.433C27.2987 17.9629 28.3902 17.3262 28.3415 16.4228ZM15.4681 18.5571C16.2988 18.3183 17.2486 18.7275 17.656 19.5254C18.1023 20.3285 17.9198 21.4443 17.2267 22.0333C16.3378 22.8974 14.6983 22.5504 14.2251 21.3713C13.6814 20.2903 14.3418 18.8417 15.4681 18.5571ZM26.6568 19.4046C26.2227 18.6358 25.274 18.3105 24.4665 18.5519C23.3318 18.8766 22.731 20.381 23.3281 21.4456C23.8207 22.4747 25.2072 22.8203 26.1023 22.1621C26.9568 21.5953 27.2308 20.2838 26.6568 19.4046ZM10.1272 19.5575C10.8448 19.2739 11.6402 20.1014 11.3495 20.8448C11.1719 21.5221 10.2585 21.7724 9.78669 21.2731C9.23457 20.8042 9.43899 19.7608 10.1272 19.5575ZM30.5933 19.426C29.9836 19.4603 29.5486 20.0106 29.5693 20.6319C29.6884 20.9216 29.8332 21.2241 30.1153 21.374C30.7173 21.7209 31.5687 21.219 31.5237 20.4806C31.5625 19.9216 31.0847 19.5073 30.5933 19.426ZM6.59586 19.9195C7.02755 19.7226 7.56153 20.1136 7.46296 20.6146C7.43982 21.1819 6.63843 21.4 6.34401 20.926C6.08388 20.5968 6.23959 20.0893 6.59586 19.9195ZM34.7287 20.2198C34.6083 19.8487 34.1206 19.6861 33.8166 19.9123C33.3108 20.1943 33.509 21.1703 34.1219 21.1119C34.5584 21.1805 34.933 20.6251 34.7287 20.2198ZM17.8129 22.6327C18.9488 22.3239 20.1699 23.3138 20.1771 24.5362C20.2512 25.7713 19.0485 26.8666 17.8857 26.5813C16.9869 26.4301 16.2817 25.5253 16.3108 24.5762C16.3084 23.6684 16.9639 22.8246 17.8129 22.6327ZM24.7051 24.552C24.7234 23.3015 23.4659 22.2938 22.3129 22.6306C21.6294 22.8081 21.0505 23.3969 20.8995 24.1209C20.6004 25.2074 21.391 26.4375 22.4623 26.5823C23.6009 26.8228 24.7659 25.7644 24.7051 24.552ZM13.6356 23.3831C14.4335 23.2408 15.1814 24.171 14.8579 24.9626C14.6219 25.8062 13.4471 26.0351 12.9277 25.346C12.3184 24.6842 12.7732 23.4744 13.6356 23.3831ZM28.3548 24.5606C28.4095 23.7537 27.5363 23.1106 26.8249 23.422C25.9651 23.7076 25.8216 25.0774 26.6096 25.5429C27.3053 26.0613 28.3834 25.4488 28.3548 24.5606ZM30.5165 27.2851C30.2379 26.7425 30.7439 26.0232 31.3205 26.1237C31.5916 26.1189 31.7857 26.3295 31.9612 26.52L31.9919 26.5532L31.9984 26.6082C32.0357 26.9176 32.0784 27.2724 31.8374 27.5062C31.4906 27.9649 30.7049 27.834 30.5165 27.2851ZM10.5759 27.1147C10.6971 26.4563 9.92166 25.8973 9.38283 26.2721C8.86957 26.5455 8.85128 27.3994 9.3474 27.6993C9.80967 28.0296 10.5115 27.6969 10.5759 27.1147ZM20.0269 27.4932C20.7323 27.1679 21.631 27.8097 21.5641 28.6217C21.6164 29.5189 20.5049 30.1402 19.8152 29.6014C19.0491 29.1388 19.1768 27.7778 20.0269 27.4932ZM16.4449 29.6381C16.4996 28.9354 15.6933 28.3648 15.0925 28.6952C14.6692 28.8605 14.4967 29.3485 14.4893 29.7866C14.634 30.1886 14.9282 30.6114 15.3795 30.6215C15.9243 30.7068 16.4632 30.215 16.4449 29.6381ZM25.0852 28.7083C25.703 28.3093 26.5811 28.8824 26.5227 29.6339C26.5385 30.4193 25.5462 30.9223 24.9709 30.4064C24.4139 30.002 24.4819 29.0299 25.0852 28.7083ZM27.3159 32.132C26.8696 32.2311 26.546 32.7546 26.8209 33.1892C27.103 33.6938 27.9264 33.5133 27.9787 32.9249C28.0541 32.4902 27.6747 32.2082 27.3159 32.132ZM13.029 32.8177C13.1384 32.4733 13.4035 32.131 13.7915 32.2206C14.3571 32.2625 14.5249 33.1533 14.0299 33.4278C13.5848 33.7415 13.0684 33.312 13.029 32.8177ZM20.8339 32.7218C20.4179 32.4512 19.7868 32.699 19.6785 33.2085C19.4807 33.7232 19.9558 34.3454 20.4825 34.2809C20.7659 34.2885 20.9848 34.0776 21.155 33.8667C21.1882 33.7244 21.2219 33.582 21.2596 33.4397L21.2573 33.4307C21.1872 33.1595 21.1057 32.8438 20.8339 32.7218Z" fill="#070919"/>
</svg>
