<svg width="41" height="40" viewBox="0 0 41 40" fill="none" xmlns="http://www.w3.org/2000/svg">
<rect x="0.5" width="40" height="40" rx="20" fill="url(#paint0_linear_188_1532)"/>
<g clip-path="url(#clip0_188_1532)">
<path fill-rule="evenodd" clip-rule="evenodd" d="M32.7698 20.2724C32.7575 20.8337 32.7076 21.3857 32.6225 21.926H25.8048H23.643L24.5741 23.877L27.5267 30.0634C25.5362 31.4558 23.1135 32.2727 20.5 32.2727C17.9224 32.2727 15.5304 31.4781 13.5557 30.1205L16.5355 23.877L17.4667 21.926H15.3048H8.37753C8.29237 21.3857 8.24246 20.8337 8.23024 20.2724H16.723H17.6073L17.968 19.465L20.5003 13.7972L23.0325 19.465L23.3933 20.2724H24.2776H32.7698ZM9.14015 24.6533C9.68812 25.9896 10.465 27.2078 11.4221 28.2591L13.143 24.6533H9.14015ZM27.9666 24.6533H31.8598C31.3256 25.9561 30.5738 27.1466 29.6496 28.1796L27.9666 24.6533ZM32.5272 17.5452H25.1619L21.7453 9.89801L20.7769 7.73033C26.5908 7.85902 31.4077 12.0307 32.5272 17.5452ZM20.2237 7.73032C14.4095 7.85874 9.59238 12.0306 8.47283 17.5452H15.8387L19.2553 9.89801L20.2237 7.73032ZM35.5 20C35.5 28.2843 28.7843 35 20.5 35C12.2157 35 5.5 28.2843 5.5 20C5.5 11.7157 12.2157 5 20.5 5C28.7843 5 35.5 11.7157 35.5 20Z" fill="white" fill-opacity="0.92"/>
</g>
<defs>
<linearGradient id="paint0_linear_188_1532" x1="0.862215" y1="39.3158" x2="51.3316" y2="6.36966" gradientUnits="userSpaceOnUse">
<stop stop-color="#8B72FF"/>
<stop offset="1" stop-color="#3C66FF"/>
</linearGradient>
<clipPath id="clip0_188_1532">
<rect width="30" height="30" fill="white" transform="translate(5.5 5)"/>
</clipPath>
</defs>
</svg>
