<svg width="41" height="40" viewBox="0 0 41 40" fill="none" xmlns="http://www.w3.org/2000/svg">
<rect x="0.5" width="40" height="40" rx="20" fill="url(#paint0_linear_188_2113)"/>
<g clip-path="url(#clip0_188_2113)">
<path fill-rule="evenodd" clip-rule="evenodd" d="M32.7698 20.2726C32.7575 20.8339 32.7076 21.3859 32.6224 21.9262H25.8046H23.6428L24.5739 23.8772L27.5265 30.0635C25.5361 31.4559 23.1134 32.2727 20.5 32.2727C17.9224 32.2727 15.5304 31.4781 13.5556 30.1204L16.5353 23.8772L17.4665 21.9262H15.3047H8.37755C8.29239 21.3859 8.24247 20.8339 8.23024 20.2726H16.7233H17.6076L17.9684 19.4652L20.5006 13.7974L23.0328 19.4652L23.3936 20.2726H24.2779H32.7698ZM9.14022 24.6534C9.68817 25.9897 10.465 27.2078 11.422 28.2591L13.1429 24.6534H9.14022ZM27.9664 24.6534H31.8598C31.3255 25.9562 30.5737 27.1468 29.6495 28.1799L27.9664 24.6534ZM32.5272 17.5453H25.1622L21.7456 9.89816L20.7771 7.73034C26.591 7.85914 31.4078 12.0309 32.5272 17.5453ZM20.2241 7.73031C14.4097 7.85856 9.59231 12.0305 8.4728 17.5453H15.839L19.2556 9.89816L20.2241 7.73031ZM35.5 20C35.5 28.2843 28.7843 35 20.5 35C12.2157 35 5.5 28.2843 5.5 20C5.5 11.7157 12.2157 5 20.5 5C28.7843 5 35.5 11.7157 35.5 20Z" fill="white" fill-opacity="0.92"/>
</g>
<defs>
<linearGradient id="paint0_linear_188_2113" x1="39" y1="12.5" x2="3.5" y2="30" gradientUnits="userSpaceOnUse">
<stop stop-color="#54B471"/>
<stop offset="1" stop-color="#439586"/>
</linearGradient>
<clipPath id="clip0_188_2113">
<rect width="30" height="30" fill="white" transform="translate(5.5 5)"/>
</clipPath>
</defs>
</svg>
