<svg width="21" height="20" viewBox="0 0 21 20" fill="none" xmlns="http://www.w3.org/2000/svg">
<path fill-rule="evenodd" clip-rule="evenodd" d="M14.9224 5.24411C15.2479 5.56955 15.2479 6.09718 14.9224 6.42262L6.58909 14.756C6.26366 15.0814 5.73602 15.0814 5.41058 14.756C5.08514 14.4305 5.08514 13.9029 5.41058 13.5774L13.7439 5.24411C14.0694 4.91867 14.597 4.91867 14.9224 5.24411Z" fill="#BBBBBE"/>
<path fill-rule="evenodd" clip-rule="evenodd" d="M5.1665 5.83336C5.1665 5.37313 5.5396 5.00003 5.99984 5.00003H14.3332C14.7934 5.00003 15.1665 5.37313 15.1665 5.83336V14.1667C15.1665 14.6269 14.7934 15 14.3332 15C13.8729 15 13.4998 14.6269 13.4998 14.1667V6.6667H5.99984C5.5396 6.6667 5.1665 6.2936 5.1665 5.83336Z" fill="#BBBBBE"/>
</svg>
