<svg width="21" height="20" viewBox="0 0 21 20" fill="none" xmlns="http://www.w3.org/2000/svg">
<path fill-rule="evenodd" clip-rule="evenodd" d="M10.5 3.33334C10.9602 3.33334 11.3333 3.70643 11.3333 4.16667V15.8333C11.3333 16.2936 10.9602 16.6667 10.5 16.6667C10.0398 16.6667 9.66666 16.2936 9.66666 15.8333V4.16667C9.66666 3.70643 10.0398 3.33334 10.5 3.33334Z" fill="#A3A3A8"/>
<path fill-rule="evenodd" clip-rule="evenodd" d="M4.07742 9.41075C4.40286 9.08531 4.9305 9.08531 5.25593 9.41075L10.5 14.6548L15.7441 9.41075C16.0695 9.08531 16.5972 9.08531 16.9226 9.41075C17.248 9.73618 17.248 10.2638 16.9226 10.5893L11.0893 16.4226C10.7638 16.748 10.2362 16.748 9.91075 16.4226L4.07742 10.5893C3.75198 10.2638 3.75198 9.73618 4.07742 9.41075Z" fill="#A3A3A8"/>
</svg>
