<svg width="20" height="20" viewBox="0 0 20 20" fill="none" xmlns="http://www.w3.org/2000/svg">
<path fill-rule="evenodd" clip-rule="evenodd" d="M10.0001 3.33337C10.4603 3.33337 10.8334 3.70647 10.8334 4.16671V15.8334C10.8334 16.2936 10.4603 16.6667 10.0001 16.6667C9.53984 16.6667 9.16675 16.2936 9.16675 15.8334V4.16671C9.16675 3.70647 9.53984 3.33337 10.0001 3.33337Z" fill="white"/>
<path fill-rule="evenodd" clip-rule="evenodd" d="M3.57733 9.41076C3.90277 9.08533 4.4304 9.08533 4.75584 9.41076L9.99992 14.6548L15.244 9.41076C15.5694 9.08533 16.0971 9.08533 16.4225 9.41076C16.7479 9.7362 16.7479 10.2638 16.4225 10.5893L10.5892 16.4226C10.2637 16.748 9.7361 16.748 9.41066 16.4226L3.57733 10.5893C3.25189 10.2638 3.25189 9.7362 3.57733 9.41076Z" fill="white"/>
</svg>
