<svg width="40" height="40" viewBox="0 0 40 40" fill="none" xmlns="http://www.w3.org/2000/svg">
<path fill-rule="evenodd" clip-rule="evenodd" d="M30 15C30.9205 15 31.6667 15.7462 31.6667 16.6667V33.3333C31.6667 34.2538 30.9205 35 30 35C29.0795 35 28.3333 34.2538 28.3333 33.3333V16.6667C28.3333 15.7462 29.0795 15 30 15Z" fill="white"/>
<path fill-rule="evenodd" clip-rule="evenodd" d="M20 5C20.9205 5 21.6667 5.74619 21.6667 6.66667V33.3333C21.6667 34.2538 20.9205 35 20 35C19.0795 35 18.3333 34.2538 18.3333 33.3333V6.66667C18.3333 5.74619 19.0795 5 20 5Z" fill="white"/>
<path fill-rule="evenodd" clip-rule="evenodd" d="M9.99999 21.6667C10.9205 21.6667 11.6667 22.4129 11.6667 23.3334V33.3334C11.6667 34.2538 10.9205 35 9.99999 35C9.07952 35 8.33333 34.2538 8.33333 33.3334V23.3334C8.33333 22.4129 9.07952 21.6667 9.99999 21.6667Z" fill="white"/>
</svg>
