<svg width="40" height="41" viewBox="0 0 40 41" fill="none" xmlns="http://www.w3.org/2000/svg">
<path fill-rule="evenodd" clip-rule="evenodd" d="M6.6665 20.505C6.6665 19.5846 7.4127 18.8384 8.33317 18.8384H31.6665C32.587 18.8384 33.3332 19.5846 33.3332 20.505C33.3332 21.4255 32.587 22.1717 31.6665 22.1717H8.33317C7.4127 22.1717 6.6665 21.4255 6.6665 20.505Z" fill="white"/>
<path fill-rule="evenodd" clip-rule="evenodd" d="M18.8217 7.65954C19.4725 7.00867 20.5278 7.00867 21.1787 7.65954L32.8453 19.3262C33.4962 19.9771 33.4962 21.0324 32.8453 21.6832L21.1787 33.3499C20.5278 34.0008 19.4725 34.0008 18.8217 33.3499C18.1708 32.699 18.1708 31.6437 18.8217 30.9929L29.3098 20.5047L18.8217 10.0166C18.1708 9.36569 18.1708 8.31042 18.8217 7.65954Z" fill="white"/>
</svg>
