<svg width="80" height="81" viewBox="0 0 80 81" fill="none" xmlns="http://www.w3.org/2000/svg">
<rect y="0.504883" width="80" height="80" rx="40" fill="#FCFCFF"/>
<path fill-rule="evenodd" clip-rule="evenodd" d="M42.7242 17.8629C43.3154 16.7398 41.957 15.3801 40.8442 15.9662C39.9389 16.3306 39.7092 17.6542 40.4138 18.3239C41.0788 19.0217 42.3808 18.7783 42.7242 17.8629ZM28.8633 20.0616C28.9323 19.3174 28.0765 18.6918 27.4005 18.9729C26.4595 19.2261 26.3551 20.723 27.268 21.0802C27.9571 21.4642 28.9351 20.8695 28.8633 20.0616ZM51.9213 21.1015C50.8649 20.9726 50.6977 19.2949 51.7148 18.9571C52.5036 18.5685 53.2274 19.2972 53.3428 20.0525C53.1773 20.6975 52.6427 21.288 51.9213 21.1015ZM32.6968 25.7972C32.8706 24.4712 31.2579 23.3959 30.1278 24.1179C29.0693 24.6646 28.9238 26.2956 29.8842 27.0066C30.8776 27.9117 32.6381 27.136 32.6968 25.7972ZM47.3815 24.8835C47.8857 23.5709 49.9288 23.5312 50.5027 24.8089C51.0699 25.8033 50.3722 27.0346 49.3615 27.3727C48.0228 27.6252 46.7511 26.1633 47.3815 24.8835ZM39.9993 25.253C38.9378 25.3299 37.9205 26.1706 37.9315 27.2987C37.871 28.2206 38.523 28.9736 39.2973 29.3576C39.3752 29.3623 39.4541 29.3686 39.5336 29.375L39.5336 29.375L39.5337 29.375L39.5337 29.375C39.971 29.4101 40.4253 29.4465 40.8188 29.2238C41.8359 28.7694 42.3358 27.4063 41.7729 26.4163C41.4709 25.6986 40.7034 25.3956 39.9993 25.253ZM20.1332 28.9439C21.1656 28.3029 22.5585 29.4728 22.1676 30.6056C21.9524 31.5856 20.6484 31.9842 19.9029 31.3586C19.1072 30.7725 19.2333 29.3632 20.1332 28.9439ZM60.5773 30.1587C60.6817 29.0416 59.2363 28.2535 58.3603 28.9405C57.4615 29.498 57.5592 30.9862 58.5168 31.421C59.3864 31.9455 60.636 31.1773 60.5773 30.1587ZM42.9399 30.969C44.3854 30.4445 46.1022 31.0721 46.9261 32.3739C48.0128 33.9652 47.4346 36.3887 45.7481 37.3018C44.0006 38.3818 41.449 37.4663 40.8036 35.4952C40.0709 33.7305 41.1383 31.5221 42.9399 30.969ZM38.9932 32.675C38.2194 31.0197 36.0634 30.3789 34.4614 31.1427C32.754 31.913 31.9685 34.1851 32.8531 35.8579C33.6419 37.5877 35.9416 38.2966 37.5717 37.3616C39.1997 36.5297 39.9038 34.2862 38.9932 32.675ZM25.9656 34.0755C26.0874 33.0329 27.0611 32.3544 28.0435 32.2843C29.1019 32.4132 29.9475 33.2436 30.0626 34.3256C29.9932 35.3968 29.1737 36.4438 28.0499 36.4373C26.8135 36.5449 25.7295 35.3024 25.9656 34.0755ZM54.0206 34.3232C54.077 32.8502 52.3145 31.7638 51.0452 32.5101C49.6824 33.1592 49.58 35.3059 50.893 36.0682C52.157 36.9837 54.1077 35.8838 54.0206 34.3232ZM31.0096 38.0125C32.4942 37.5999 34.1916 38.3068 34.9197 39.6851C35.7173 41.0724 35.3913 42.9998 34.1526 44.0173C32.5639 45.5099 29.6339 44.9106 28.7883 42.8737C27.8167 41.0064 28.9969 38.504 31.0096 38.0125ZM51.0055 39.4739C50.2297 38.1459 48.5343 37.584 47.0911 38.001C45.0633 38.5619 43.9895 41.1607 45.0566 42.9996C45.9369 44.7773 48.4148 45.3743 50.0144 44.2374C51.5416 43.2582 52.0313 40.9928 51.0055 39.4739ZM21.4602 39.7336C22.7425 39.2436 24.164 40.673 23.6445 41.9572C23.3271 43.1271 21.6948 43.5596 20.8516 42.697C19.8648 41.887 20.2302 40.0848 21.4602 39.7336ZM58.0446 39.5155C56.955 39.5748 56.1777 40.5253 56.2147 41.5985C56.4276 42.0991 56.6862 42.6215 57.1904 42.8804C58.2662 43.4797 59.7878 42.6128 59.7073 41.3373C59.7768 40.3716 58.9228 39.656 58.0446 39.5155ZM15.1534 40.3658C15.9249 40.0257 16.8791 40.701 16.703 41.5665C16.6616 42.5464 15.2294 42.9231 14.7033 42.1044C14.2384 41.5358 14.5167 40.659 15.1534 40.3658ZM65.4257 40.8783C65.2104 40.2372 64.3389 39.9564 63.7956 40.3471C62.8916 40.8342 63.246 42.5202 64.3412 42.4193C65.1213 42.5377 65.7907 41.5784 65.4257 40.8783ZM35.1953 45.0482C37.2254 44.5149 39.4077 46.2248 39.4204 48.3363C39.5529 50.4699 37.4036 52.3619 35.3255 51.8691C33.7192 51.6079 32.4588 50.0449 32.5109 48.4054C32.5066 46.8373 33.6781 45.3798 35.1953 45.0482ZM47.5127 48.3661C47.5454 46.2059 45.2981 44.4653 43.2376 45.047C42.016 45.3536 40.9816 46.3707 40.7117 47.6213C40.1771 49.4981 41.5899 51.623 43.5046 51.8731C45.5393 52.2886 47.6215 50.4603 47.5127 48.3661ZM27.7392 46.3466C29.165 46.1009 30.5018 47.7077 29.9235 49.0752C29.5018 50.5324 27.4022 50.9277 26.474 49.7374C25.3852 48.5942 26.198 46.5044 27.7392 46.3466ZM54.0441 48.376C54.1418 46.9822 52.5812 45.8713 51.3099 46.4092C49.7732 46.9025 49.5169 49.2688 50.9251 50.0728C52.1684 50.9684 54.0951 49.9103 54.0441 48.376ZM57.9029 53.0868C57.405 52.1494 58.3093 50.907 59.3397 51.0805C59.8242 51.0723 60.1711 51.4361 60.4847 51.7651L60.5395 51.8224L60.5513 51.9175C60.6179 52.452 60.6943 53.0648 60.2636 53.4687C59.6437 54.2611 58.2396 54.035 57.9029 53.0868ZM22.2619 52.7947C22.4784 51.6575 21.0927 50.6918 20.1297 51.3393C19.2125 51.8115 19.1798 53.2865 20.0664 53.8046C20.8925 54.3752 22.1468 53.8004 22.2619 52.7947ZM39.1566 53.4467C40.4173 52.8848 42.0233 53.9934 41.9039 55.396C41.9973 56.9458 40.0108 58.019 38.7783 57.0884C37.4091 56.2892 37.6374 53.9382 39.1566 53.4467ZM32.7598 57.1514C32.8576 55.9376 31.4167 54.9521 30.343 55.5227C29.5865 55.8082 29.2782 56.6512 29.2649 57.408C29.5235 58.1025 30.0494 58.8328 30.8559 58.8503C31.8296 58.9975 32.7925 58.1481 32.7598 57.1514ZM48.1916 55.5409C49.2958 54.8517 50.8651 55.8416 50.7606 57.1397C50.789 58.4964 49.0155 59.3654 47.9874 58.4742C46.992 57.7757 47.1135 56.0964 48.1916 55.5409ZM52.1781 61.464C51.3806 61.6352 50.8024 62.5396 51.2935 63.2902C51.7977 64.1618 53.2693 63.8501 53.3627 62.8338C53.4975 62.0829 52.8194 61.5958 52.1781 61.464ZM26.6546 62.6399C26.8501 62.045 27.324 61.4537 28.0173 61.6084C29.028 61.6809 29.328 63.2196 28.4434 63.6938C27.6479 64.2356 26.725 63.4937 26.6546 62.6399ZM40.6028 62.483C39.8594 62.0155 38.7315 62.4435 38.538 63.3237C38.1844 64.2128 39.0335 65.2876 39.9748 65.1762C40.4813 65.1894 40.8724 64.825 41.1767 64.4606C41.2359 64.2149 41.2962 63.9689 41.3636 63.7231L41.3594 63.7075C41.2342 63.239 41.0886 62.6937 40.6028 62.483Z" fill="#1A1A25"/>
</svg>
