<svg width="20" height="20" viewBox="0 0 20 20" fill="none" xmlns="http://www.w3.org/2000/svg">
<path fill-rule="evenodd" clip-rule="evenodd" d="M8.75162 1.16894C9.13123 0.950191 9.56168 0.835037 9.99984 0.835037C10.438 0.835037 10.8685 0.950201 11.2481 1.16897C11.2487 1.1693 11.2493 1.16964 11.2498 1.16997L17.0832 4.5033C17.4628 4.72251 17.7782 5.0377 17.9976 5.41726C18.217 5.79682 18.3327 6.2274 18.3332 6.66581V13.3342C18.3327 13.7726 18.217 14.2032 17.9976 14.5827C17.7782 14.9623 17.4628 15.2775 17.0832 15.4967L17.08 15.4985L11.2498 18.83C11.2493 18.8303 11.2488 18.8306 11.2483 18.8309C10.8687 19.0497 10.4381 19.165 9.99984 19.165C9.56159 19.165 9.13105 19.0497 8.75138 18.8309C8.75086 18.8306 8.75035 18.8303 8.74984 18.83L2.91972 15.4985L2.9165 15.4967C2.53683 15.2775 2.22148 14.9623 2.00208 14.5827C1.78268 14.2032 1.66695 13.7726 1.6665 13.3342V6.66581C1.66695 6.2274 1.78268 5.79682 2.00208 5.41726C2.22148 5.0377 2.53683 4.72251 2.9165 4.50331L2.91972 4.50145L8.75162 1.16894ZM9.99984 2.5017C9.85356 2.5017 9.70985 2.54021 9.58317 2.61335L9.57996 2.6152L3.74984 5.94668C3.7494 5.94694 3.74896 5.94719 3.74852 5.94744C3.62255 6.02048 3.51791 6.12525 3.44503 6.25133C3.37196 6.37775 3.33338 6.52114 3.33317 6.66716V13.3328C3.33338 13.4788 3.37196 13.6222 3.44503 13.7487C3.51791 13.8747 3.62255 13.9795 3.74852 14.0525C3.74896 14.0528 3.7494 14.0531 3.74984 14.0533L9.58317 17.3866C9.70985 17.4598 9.85356 17.4983 9.99984 17.4983C10.1461 17.4983 10.2898 17.4598 10.4165 17.3866L10.4197 17.3848L16.2498 14.0533C16.2503 14.0531 16.2507 14.0528 16.2512 14.0525C16.3771 13.9795 16.4818 13.8747 16.5546 13.7487C16.6278 13.6221 16.6664 13.4786 16.6665 13.3325V6.66752C16.6664 6.52138 16.6278 6.37785 16.5546 6.25133C16.4818 6.12526 16.3771 6.02048 16.2512 5.94745C16.2507 5.94719 16.2503 5.94694 16.2498 5.94668L10.4165 2.61336C10.2898 2.54022 10.1461 2.5017 9.99984 2.5017Z" fill="#BBBBBE"/>
<path fill-rule="evenodd" clip-rule="evenodd" d="M2.00373 5.38272C2.23419 4.98434 2.74396 4.8482 3.14234 5.07865L10.0001 9.04561L16.8578 5.07865C17.2562 4.8482 17.766 4.98434 17.9964 5.38272C18.2269 5.78111 18.0907 6.29088 17.6923 6.52133L10.4173 10.7297C10.1592 10.879 9.84094 10.879 9.5828 10.7297L2.3078 6.52133C1.90942 6.29088 1.77328 5.78111 2.00373 5.38272Z" fill="#BBBBBE"/>
<path fill-rule="evenodd" clip-rule="evenodd" d="M9.99984 9.16667C10.4601 9.16667 10.8332 9.53977 10.8332 10V18.4C10.8332 18.8602 10.4601 19.2333 9.99984 19.2333C9.5396 19.2333 9.1665 18.8602 9.1665 18.4V10C9.1665 9.53977 9.5396 9.16667 9.99984 9.16667Z" fill="#BBBBBE"/>
</svg>
