<svg width="31" height="32" viewBox="0 0 31 32" fill="none" xmlns="http://www.w3.org/2000/svg">
<rect y="0.5" width="31" height="31" rx="15.5" fill="#FCFCFF"/>
<path fill-rule="evenodd" clip-rule="evenodd" d="M16.6577 6.37724C16.909 5.89995 16.3317 5.32205 15.8587 5.57116C15.474 5.72602 15.3763 6.28858 15.6758 6.5732C15.9584 6.86976 16.5118 6.7663 16.6577 6.37724ZM10.7668 7.31171C10.7961 6.99541 10.4325 6.72953 10.1451 6.84899C9.74521 6.95662 9.70084 7.59282 10.0888 7.74461C10.3817 7.9078 10.7973 7.65507 10.7668 7.31171ZM20.5665 7.75368C20.1175 7.69888 20.0464 6.98585 20.4787 6.84228C20.814 6.67712 21.1216 6.98684 21.1706 7.30784C21.1003 7.58194 20.8731 7.83292 20.5665 7.75368ZM12.3961 9.74932C12.4699 9.18578 11.7846 8.72877 11.3042 9.03564C10.8544 9.26798 10.7925 9.96117 11.2007 10.2633C11.6229 10.648 12.3711 10.3183 12.3961 9.74932ZM18.637 9.361C18.8513 8.80316 19.7197 8.78628 19.9636 9.32933C20.2047 9.75193 19.9081 10.2752 19.4786 10.4189C18.9096 10.5262 18.3692 9.90492 18.637 9.361ZM15.4996 9.51807C15.0485 9.55073 14.6161 9.90801 14.6208 10.3875C14.5951 10.7793 14.8722 11.0993 15.2013 11.2625C15.2344 11.2645 15.2679 11.2672 15.3017 11.2699L15.3017 11.2699H15.3017H15.3017H15.3017H15.3017C15.4876 11.2848 15.6807 11.3003 15.8479 11.2056C16.2802 11.0125 16.4926 10.4332 16.2534 10.0125C16.125 9.70745 15.7989 9.57867 15.4996 9.51807ZM7.05653 11.0867C7.4953 10.8142 8.08728 11.3115 7.92117 11.7929C7.8297 12.2094 7.27548 12.3788 6.95866 12.1129C6.62047 11.8638 6.67407 11.2649 7.05653 11.0867ZM24.2453 11.603C24.2897 11.1282 23.6753 10.7933 23.3031 11.0852C22.921 11.3222 22.9626 11.9547 23.3696 12.1394C23.7391 12.3624 24.2702 12.0359 24.2453 11.603ZM16.7494 11.9473C17.3637 11.7244 18.0934 11.9912 18.4435 12.5444C18.9054 13.2207 18.6596 14.2507 17.9429 14.6388C17.2002 15.0978 16.1157 14.7087 15.8415 13.871C15.5301 13.121 15.9837 12.1824 16.7494 11.9473ZM15.0719 12.6725C14.7431 11.969 13.8268 11.6966 13.1459 12.0212C12.4203 12.3486 12.0864 13.3142 12.4624 14.0252C12.7977 14.7604 13.775 15.0616 14.4678 14.6642C15.1597 14.3107 15.4589 13.3572 15.0719 12.6725ZM9.53533 13.2676C9.58708 12.8245 10.0009 12.5362 10.4184 12.5063C10.8682 12.5611 11.2276 12.914 11.2765 13.3739C11.247 13.8292 10.8987 14.2741 10.4211 14.2714C9.89566 14.3171 9.43496 13.7891 9.53533 13.2676ZM21.4587 13.3729C21.4827 12.7469 20.7336 12.2851 20.1941 12.6023C19.6149 12.8782 19.5714 13.7905 20.1295 14.1145C20.6666 14.5036 21.4957 14.0362 21.4587 13.3729ZM11.679 14.9408C12.31 14.7655 13.0314 15.0659 13.3408 15.6517C13.6798 16.2413 13.5412 17.0604 13.0148 17.4929C12.3396 18.1272 11.0943 17.8725 10.735 17.0068C10.322 16.2133 10.8236 15.1497 11.679 14.9408ZM20.1773 15.562C19.8475 14.9975 19.127 14.7587 18.5136 14.9359C17.6518 15.1743 17.1955 16.2788 17.649 17.0603C18.0231 17.8159 19.0762 18.0696 19.7561 17.5864C20.4051 17.1703 20.6132 16.2075 20.1773 15.562ZM7.6205 15.6723C8.16549 15.464 8.76962 16.0715 8.54882 16.6173C8.41396 17.1146 7.72021 17.2984 7.36184 16.9318C6.94248 16.5875 7.09775 15.8216 7.6205 15.6723ZM23.1689 15.5796C22.7058 15.6048 22.3754 16.0088 22.3912 16.4649C22.4817 16.6776 22.5916 16.8997 22.8059 17.0097C23.2631 17.2644 23.9097 16.8959 23.8756 16.3539C23.9051 15.9434 23.5421 15.6393 23.1689 15.5796ZM4.94011 15.941C5.26799 15.7964 5.67356 16.0835 5.5987 16.4513C5.58112 16.8677 4.97244 17.0278 4.74882 16.6799C4.55124 16.4382 4.66951 16.0656 4.94011 15.941ZM26.3058 16.1588C26.2144 15.8863 25.8439 15.767 25.6131 15.933C25.2289 16.14 25.3795 16.8566 25.8449 16.8137C26.1765 16.864 26.461 16.4563 26.3058 16.1588ZM13.4579 17.931C14.3207 17.7043 15.2482 18.4311 15.2536 19.3284C15.3099 20.2352 14.3965 21.0393 13.5133 20.8299C12.8306 20.7189 12.2949 20.0546 12.3171 19.3578C12.3152 18.6914 12.8131 18.0719 13.4579 17.931ZM18.6928 19.3411C18.7067 18.423 17.7516 17.6833 16.8759 17.9305C16.3567 18.0608 15.9171 18.4931 15.8024 19.0246C15.5752 19.8222 16.1756 20.7253 16.9894 20.8316C17.8541 21.0082 18.7391 20.2311 18.6928 19.3411ZM10.2891 18.4828C10.8951 18.3784 11.4632 19.0613 11.2174 19.6425C11.0382 20.2618 10.1459 20.4298 9.75137 19.9239C9.28862 19.4381 9.63409 18.5499 10.2891 18.4828ZM21.4687 19.3453C21.5102 18.753 20.8469 18.2808 20.3066 18.5094C19.6536 18.7191 19.5446 19.7247 20.1431 20.0665C20.6715 20.4471 21.4904 19.9974 21.4687 19.3453ZM23.1086 21.3474C22.8971 20.949 23.2814 20.421 23.7193 20.4948C23.9252 20.4912 24.0726 20.6459 24.2059 20.7857L24.2292 20.8101L24.2342 20.8504C24.2625 21.0776 24.295 21.3381 24.1119 21.5097C23.8485 21.8465 23.2518 21.7504 23.1086 21.3474ZM7.96125 21.2233C8.05326 20.74 7.46432 20.3295 7.05506 20.6047C6.66522 20.8054 6.65133 21.4323 7.02815 21.6525C7.37926 21.895 7.91232 21.6507 7.96125 21.2233ZM15.1415 21.5004C15.6773 21.2616 16.3598 21.7327 16.3091 22.3288C16.3488 22.9875 15.5045 23.4436 14.9807 23.0481C14.3988 22.7085 14.4958 21.7093 15.1415 21.5004ZM12.4229 23.0749C12.4644 22.559 11.852 22.1401 11.3957 22.3827C11.0742 22.504 10.9431 22.8623 10.9375 23.1839C11.0474 23.4791 11.2709 23.7894 11.6137 23.7969C12.0275 23.8595 12.4368 23.4985 12.4229 23.0749ZM18.9814 22.3904C19.4506 22.0975 20.1176 22.5182 20.0732 23.0699C20.0852 23.6465 19.3315 24.0158 18.8946 23.6371C18.4715 23.3402 18.5232 22.6265 18.9814 22.3904ZM20.6756 24.9077C20.3367 24.9805 20.0909 25.3648 20.2997 25.6839C20.514 26.0543 21.1394 25.9218 21.1791 25.4899C21.2364 25.1707 20.9482 24.9637 20.6756 24.9077ZM9.82812 25.4075C9.91124 25.1547 10.1126 24.9033 10.4073 24.9691C10.8368 24.9999 10.9643 25.6539 10.5884 25.8554C10.2503 26.0857 9.85807 25.7704 9.82812 25.4075ZM15.7561 25.3408C15.4402 25.1421 14.9608 25.324 14.8786 25.6981C14.7283 26.076 15.0892 26.5328 15.4892 26.4854C15.7045 26.491 15.8707 26.3361 16 26.1813C16.0252 26.0768 16.0508 25.9723 16.0794 25.8678L16.0777 25.8612C16.0245 25.6621 15.9626 25.4303 15.7561 25.3408Z" fill="#1A1A25"/>
</svg>
