<svg width="31" height="30" viewBox="0 0 31 30" fill="none" xmlns="http://www.w3.org/2000/svg">
<path fill-rule="evenodd" clip-rule="evenodd" d="M15.667 3.75C16.3573 3.75 16.917 4.30964 16.917 5V25C16.917 25.6904 16.3573 26.25 15.667 26.25C14.9766 26.25 14.417 25.6904 14.417 25V5C14.417 4.30964 14.9766 3.75 15.667 3.75ZM23.167 11.25C23.8573 11.25 24.417 11.8096 24.417 12.5V25C24.417 25.6904 23.8573 26.25 23.167 26.25C22.4766 26.25 21.917 25.6904 21.917 25V12.5C21.917 11.8096 22.4766 11.25 23.167 11.25ZM9.41699 17.5C9.41699 16.8096 8.85735 16.25 8.16699 16.25C7.47664 16.25 6.91699 16.8096 6.91699 17.5V25C6.91699 25.6904 7.47664 26.25 8.16699 26.25C8.85735 26.25 9.41699 25.6904 9.41699 25V17.5Z" fill="url(#paint0_linear_1892_23342)"/>
<defs>
<linearGradient id="paint0_linear_1892_23342" x1="8.66699" y1="26" x2="24.4964" y2="27.2176" gradientUnits="userSpaceOnUse">
<stop stop-color="white"/>
<stop offset="1" stop-color="#9B95E9"/>
</linearGradient>
</defs>
</svg>
