<svg width="31" height="32" viewBox="0 0 31 32" fill="none" xmlns="http://www.w3.org/2000/svg">
<rect y="0.5" width="31" height="31" rx="15.5" fill="#FCFCFF"/>
<path fill-rule="evenodd" clip-rule="evenodd" d="M16.6578 6.37724C16.9091 5.89995 16.3318 5.32205 15.8588 5.57116C15.4741 5.72602 15.3764 6.28858 15.6759 6.5732C15.9585 6.86976 16.5119 6.7663 16.6578 6.37724ZM10.767 7.31171C10.7963 6.99541 10.4326 6.72953 10.1453 6.84899C9.74534 6.95662 9.70096 7.59282 10.089 7.74461C10.3818 7.9078 10.7975 7.65507 10.767 7.31171ZM20.5666 7.75368C20.1176 7.69888 20.0466 6.98585 20.4788 6.84228C20.8141 6.67712 21.1217 6.98684 21.1707 7.30784C21.1004 7.58194 20.8732 7.83292 20.5666 7.75368ZM12.3962 9.74932C12.4701 9.18578 11.7847 8.72877 11.3043 9.03564C10.8545 9.26798 10.7927 9.96117 11.2008 10.2633C11.623 10.648 12.3712 10.3183 12.3962 9.74932ZM18.6372 9.361C18.8515 8.80316 19.7198 8.78628 19.9637 9.32933C20.2048 9.75193 19.9082 10.2752 19.4787 10.4189C18.9097 10.5262 18.3693 9.90492 18.6372 9.361ZM15.4998 9.51807C15.0486 9.55073 14.6163 9.90801 14.6209 10.3875C14.5952 10.7793 14.8723 11.0993 15.2014 11.2625C15.2345 11.2645 15.268 11.2672 15.3018 11.2699L15.3018 11.2699H15.3018H15.3018H15.3019H15.3019C15.4877 11.2848 15.6808 11.3003 15.8481 11.2056C16.2803 11.0125 16.4928 10.4332 16.2535 10.0125C16.1252 9.70745 15.799 9.57867 15.4998 9.51807ZM7.05665 11.0867C7.49543 10.8142 8.0874 11.3115 7.92129 11.7929C7.82982 12.2094 7.2756 12.3788 6.95879 12.1129C6.62059 11.8638 6.67419 11.2649 7.05665 11.0867ZM24.2454 11.603C24.2898 11.1282 23.6755 10.7933 23.3032 11.0852C22.9212 11.3222 22.9627 11.9547 23.3697 12.1394C23.7393 12.3624 24.2704 12.0359 24.2454 11.603ZM16.7495 11.9473C17.3638 11.7244 18.0935 11.9912 18.4436 12.5444C18.9055 13.2207 18.6598 14.2507 17.943 14.6388C17.2003 15.0978 16.1159 14.7087 15.8416 13.871C15.5302 13.121 15.9838 12.1824 16.7495 11.9473ZM15.072 12.6725C14.7432 11.969 13.8269 11.6966 13.1461 12.0212C12.4204 12.3486 12.0866 13.3142 12.4625 14.0252C12.7978 14.7604 13.7751 15.0616 14.4679 14.6642C15.1598 14.3107 15.4591 13.3572 15.072 12.6725ZM9.53545 13.2676C9.5872 12.8245 10.001 12.5362 10.4185 12.5063C10.8684 12.5611 11.2277 12.914 11.2767 13.3739C11.2471 13.8292 10.8989 14.2741 10.4212 14.2714C9.89578 14.3171 9.43509 13.7891 9.53545 13.2676ZM21.4588 13.3729C21.4828 12.7469 20.7337 12.2851 20.1942 12.6023C19.6151 12.8782 19.5716 13.7905 20.1296 14.1145C20.6668 14.5036 21.4958 14.0362 21.4588 13.3729ZM11.6791 14.9408C12.3101 14.7655 13.0315 15.0659 13.3409 15.6517C13.6799 16.2413 13.5413 17.0604 13.0149 17.4929C12.3397 18.1272 11.0944 17.8725 10.7351 17.0068C10.3221 16.2133 10.8237 15.1497 11.6791 14.9408ZM20.1774 15.562C19.8477 14.9975 19.1271 14.7587 18.5138 14.9359C17.6519 15.1743 17.1956 16.2788 17.6491 17.0603C18.0232 17.8159 19.0763 18.0696 19.7562 17.5864C20.4052 17.1703 20.6133 16.2075 20.1774 15.562ZM7.62062 15.6723C8.16562 15.464 8.76974 16.0715 8.54895 16.6173C8.41408 17.1146 7.72033 17.2984 7.36196 16.9318C6.94261 16.5875 7.09787 15.8216 7.62062 15.6723ZM23.169 15.5796C22.7059 15.6048 22.3756 16.0088 22.3913 16.4649C22.4818 16.6776 22.5917 16.8997 22.806 17.0097C23.2632 17.2644 23.9099 16.8959 23.8757 16.3539C23.9052 15.9434 23.5423 15.6393 23.169 15.5796ZM4.94023 15.941C5.26811 15.7964 5.67369 16.0835 5.59882 16.4513C5.58125 16.8677 4.97256 17.0278 4.74894 16.6799C4.55136 16.4382 4.66963 16.0656 4.94023 15.941ZM26.306 16.1588C26.2145 15.8863 25.8441 15.767 25.6132 15.933C25.229 16.14 25.3796 16.8566 25.845 16.8137C26.1766 16.864 26.4611 16.4563 26.306 16.1588ZM13.4581 17.931C14.3209 17.7043 15.2483 18.4311 15.2537 19.3284C15.3101 20.2352 14.3966 21.0393 13.5134 20.8299C12.8307 20.7189 12.2951 20.0546 12.3172 19.3578C12.3153 18.6914 12.8133 18.0719 13.4581 17.931ZM18.693 19.3411C18.7069 18.423 17.7517 17.6833 16.876 17.9305C16.3569 18.0608 15.9172 18.4931 15.8025 19.0246C15.5753 19.8222 16.1758 20.7253 16.9895 20.8316C17.8543 21.0082 18.7392 20.2311 18.693 19.3411ZM10.2892 18.4828C10.8952 18.3784 11.4633 19.0613 11.2175 19.6425C11.0383 20.2618 10.146 20.4298 9.7515 19.9239C9.28874 19.4381 9.63421 18.5499 10.2892 18.4828ZM21.4688 19.3453C21.5103 18.753 20.8471 18.2808 20.3067 18.5094C19.6537 18.7191 19.5447 19.7247 20.1432 20.0665C20.6716 20.4471 21.4905 19.9974 21.4688 19.3453ZM23.1088 21.3474C22.8972 20.949 23.2815 20.421 23.7194 20.4948C23.9253 20.4912 24.0728 20.6459 24.2061 20.7857L24.2294 20.8101L24.2343 20.8504C24.2627 21.0776 24.2951 21.3381 24.1121 21.5097C23.8486 21.8465 23.2519 21.7504 23.1088 21.3474ZM7.96137 21.2233C8.05338 20.74 7.46444 20.3295 7.05518 20.6047C6.66534 20.8054 6.65146 21.4323 7.02828 21.6525C7.37938 21.895 7.91244 21.6507 7.96137 21.2233ZM15.1416 21.5004C15.6774 21.2616 16.36 21.7327 16.3092 22.3288C16.3489 22.9875 15.5047 23.4436 14.9808 23.0481C14.3989 22.7085 14.4959 21.7093 15.1416 21.5004ZM12.423 23.0749C12.4645 22.559 11.8522 22.1401 11.3958 22.3827C11.0743 22.504 10.9433 22.8623 10.9376 23.1839C11.0475 23.4791 11.271 23.7894 11.6138 23.7969C12.0276 23.8595 12.4369 23.4985 12.423 23.0749ZM18.9815 22.3904C19.4508 22.0975 20.1177 22.5182 20.0733 23.0699C20.0854 23.6465 19.3316 24.0158 18.8947 23.6371C18.4716 23.3402 18.5233 22.6265 18.9815 22.3904ZM20.6758 24.9077C20.3368 24.9805 20.0911 25.3648 20.2998 25.6839C20.5141 26.0543 21.1395 25.9218 21.1792 25.4899C21.2365 25.1707 20.9483 24.9637 20.6758 24.9077ZM9.82825 25.4075C9.91136 25.1547 10.1127 24.9033 10.4074 24.9691C10.837 24.9999 10.9645 25.6539 10.5885 25.8554C10.2504 26.0857 9.85819 25.7704 9.82825 25.4075ZM15.7562 25.3408C15.4403 25.1421 14.9609 25.324 14.8787 25.6981C14.7284 26.076 15.0893 26.5328 15.4893 26.4854C15.7046 26.491 15.8708 26.3361 16.0001 26.1813C16.0253 26.0768 16.0509 25.9723 16.0796 25.8678L16.0778 25.8612C16.0246 25.6621 15.9627 25.4303 15.7562 25.3408Z" fill="#1A1A25"/>
</svg>
