<svg width="16" height="16" viewBox="0 0 16 16" fill="none" xmlns="http://www.w3.org/2000/svg">
<path fill-rule="evenodd" clip-rule="evenodd" d="M7.33325 6.66665C6.96506 6.66665 6.66659 6.96512 6.66659 7.33331V13.3333C6.66659 13.7015 6.96506 14 7.33325 14H13.3333C13.7014 14 13.9999 13.7015 13.9999 13.3333V7.33331C13.9999 6.96512 13.7014 6.66665 13.3333 6.66665H7.33325ZM5.33325 7.33331C5.33325 6.22874 6.22868 5.33331 7.33325 5.33331H13.3333C14.4378 5.33331 15.3333 6.22874 15.3333 7.33331V13.3333C15.3333 14.4379 14.4378 15.3333 13.3333 15.3333H7.33325C6.22868 15.3333 5.33325 14.4379 5.33325 13.3333V7.33331Z" fill="#BBBBBE"/>
<path fill-rule="evenodd" clip-rule="evenodd" d="M2.66675 2.00002C2.48994 2.00002 2.32037 2.07026 2.19534 2.19528C2.07032 2.32031 2.00008 2.48988 2.00008 2.66669V8.66669C2.00008 8.8435 2.07032 9.01307 2.19534 9.13809C2.32037 9.26312 2.48994 9.33335 2.66675 9.33335H3.33341C3.7016 9.33335 4.00008 9.63183 4.00008 10C4.00008 10.3682 3.7016 10.6667 3.33341 10.6667H2.66675C2.13631 10.6667 1.62761 10.456 1.25253 10.0809C0.877462 9.70583 0.666748 9.19712 0.666748 8.66669V2.66669C0.666748 2.13625 0.877462 1.62755 1.25253 1.25247C1.62761 0.877401 2.13632 0.666687 2.66675 0.666687H8.66675C9.19718 0.666687 9.70589 0.877401 10.081 1.25247C10.456 1.62755 10.6667 2.13625 10.6667 2.66669V3.33335C10.6667 3.70154 10.3683 4.00002 10.0001 4.00002C9.63189 4.00002 9.33342 3.70154 9.33342 3.33335V2.66669C9.33342 2.48988 9.26318 2.32031 9.13815 2.19528C9.01313 2.07026 8.84356 2.00002 8.66675 2.00002H2.66675Z" fill="#BBBBBE"/>
</svg>
