<svg width="124" height="124" viewBox="0 0 124 124" fill="none" xmlns="http://www.w3.org/2000/svg">
<path fill-rule="evenodd" clip-rule="evenodd" d="M8.19972 38.2176C4.94265 44.2306 2.88372 52.6364 2.88372 62C2.88372 71.3637 4.94265 79.7694 8.19972 85.7825C11.4875 91.8523 15.7902 95.1628 20.186 95.1628C24.5819 95.1628 28.8845 91.8523 32.1724 85.7825C35.4294 79.7694 37.4884 71.3637 37.4884 62C37.4884 52.6364 35.4294 44.2306 32.1724 38.2176C28.8847 32.148 24.5823 28.8375 20.1866 28.8372C20.1864 28.8372 20.1862 28.8372 20.186 28.8372C15.7902 28.8372 11.4875 32.1477 8.19972 38.2176ZM20.1866 25.9535C20.1864 25.9535 20.1862 25.9535 20.186 25.9535C14.2298 25.9535 9.16032 30.3895 5.66409 36.8441C2.1371 43.3554 0 52.252 0 62C0 71.748 2.1371 80.6446 5.66409 87.1559C9.16032 93.6105 14.2298 98.0465 20.186 98.0465C20.1862 98.0465 20.1864 98.0465 20.1866 98.0465H103.814C103.814 98.0465 103.814 98.0465 103.814 98.0465C109.77 98.0462 114.84 93.6103 118.336 87.1559C121.863 80.6446 124 71.748 124 62C124 52.252 121.863 43.3554 118.336 36.8441C114.84 30.3897 109.77 25.9538 103.814 25.9535C103.814 25.9535 103.814 25.9535 103.814 25.9535H20.1866ZM28.1867 28.8372C30.712 30.7594 32.9165 33.5367 34.708 36.8441C38.235 43.3554 40.3721 52.252 40.3721 62C40.3721 71.748 38.235 80.6446 34.708 87.1559C32.9165 90.4633 30.712 93.2407 28.1867 95.1628H103.814C103.814 95.1628 103.814 95.1628 103.814 95.1628C108.21 95.1625 112.513 91.852 115.8 85.7825C119.057 79.7694 121.116 71.3637 121.116 62C121.116 52.6364 119.057 44.2306 115.8 38.2176C112.513 32.148 108.21 28.8375 103.814 28.8372C103.814 28.8372 103.814 28.8372 103.814 28.8372H28.1867Z" fill="url(#paint0_linear_322_2013)"/>
<defs>
<linearGradient id="paint0_linear_322_2013" x1="1.12287" y1="96.8134" x2="99.8211" y2="-14.0058" gradientUnits="userSpaceOnUse">
<stop stop-color="#8B72FF"/>
<stop offset="1" stop-color="#3C66FF"/>
</linearGradient>
</defs>
</svg>
