<svg width="124" height="124" viewBox="0 0 124 124" fill="none" xmlns="http://www.w3.org/2000/svg">
<mask id="path-1-inside-1_216_2252" fill="white">
<path fill-rule="evenodd" clip-rule="evenodd" d="M9.02675 43.6617L33.5209 13.3334H90.4788L114.973 43.6617L61.9998 108.907L9.02675 43.6617ZM32.0876 10.3334H91.9121L118.833 43.6667L63.932 111.287L61.9998 113.667L60.0677 111.287L5.1665 43.6667L32.0876 10.3334ZM62 56.8333C67.7069 56.8333 72.3333 52.2069 72.3333 46.5C72.3333 40.7931 67.7069 36.1667 62 36.1667C56.2931 36.1667 51.6667 40.7931 51.6667 46.5C51.6667 52.2069 56.2931 56.8333 62 56.8333Z"/>
</mask>
<path fill-rule="evenodd" clip-rule="evenodd" d="M9.02675 43.6617L33.5209 13.3334H90.4788L114.973 43.6617L61.9998 108.907L9.02675 43.6617ZM32.0876 10.3334H91.9121L118.833 43.6667L63.932 111.287L61.9998 113.667L60.0677 111.287L5.1665 43.6667L32.0876 10.3334ZM62 56.8333C67.7069 56.8333 72.3333 52.2069 72.3333 46.5C72.3333 40.7931 67.7069 36.1667 62 36.1667C56.2931 36.1667 51.6667 40.7931 51.6667 46.5C51.6667 52.2069 56.2931 56.8333 62 56.8333Z" fill="url(#paint0_linear_216_2252)"/>
<path d="M33.5209 13.3334V3.33337H28.7431L25.7412 7.05029L33.5209 13.3334ZM9.02675 43.6617L1.2471 37.3786L-3.84073 43.6783L1.26335 49.9649L9.02675 43.6617ZM90.4788 13.3334L98.2584 7.05029L95.2565 3.33337H90.4788V13.3334ZM114.973 43.6617L122.736 49.9649L127.84 43.6783L122.753 37.3786L114.973 43.6617ZM61.9998 108.907L54.2364 115.21L61.9998 124.772L69.7632 115.21L61.9998 108.907ZM91.9121 10.3334L99.6918 4.05029L96.6899 0.333374H91.9121V10.3334ZM32.0876 10.3334V0.333374H27.3098L24.3079 4.05029L32.0876 10.3334ZM118.833 43.6667L126.597 49.9698L131.701 43.6833L126.613 37.3836L118.833 43.6667ZM63.932 111.287L56.1686 104.984L56.1686 104.984L63.932 111.287ZM61.9998 113.667L54.2364 119.97L61.9998 129.532L69.7632 119.97L61.9998 113.667ZM60.0677 111.287L67.8311 104.984L67.8311 104.984L60.0677 111.287ZM5.1665 43.6667L-2.61314 37.3836L-7.70097 43.6833L-2.5969 49.9698L5.1665 43.6667ZM25.7412 7.05029L1.2471 37.3786L16.8064 49.9448L41.3005 19.6165L25.7412 7.05029ZM90.4788 3.33337H33.5209V23.3334H90.4788V3.33337ZM122.753 37.3786L98.2584 7.05029L82.6991 19.6165L107.193 49.9448L122.753 37.3786ZM69.7632 115.21L122.736 49.9649L107.21 37.3586L54.2364 102.604L69.7632 115.21ZM1.26335 49.9649L54.2364 115.21L69.7632 102.604L16.7901 37.3586L1.26335 49.9649ZM91.9121 0.333374H32.0876V20.3334H91.9121V0.333374ZM126.613 37.3836L99.6918 4.05029L84.1325 16.6165L111.054 49.9498L126.613 37.3836ZM71.6954 117.59L126.597 49.9698L111.07 37.3636L56.1686 104.984L71.6954 117.59ZM69.7632 119.97L71.6954 117.59L56.1686 104.984L54.2364 107.364L69.7632 119.97ZM52.3043 117.59L54.2364 119.97L69.7632 107.364L67.8311 104.984L52.3043 117.59ZM-2.5969 49.9698L52.3043 117.59L67.8311 104.984L12.9299 37.3636L-2.5969 49.9698ZM24.3079 4.05029L-2.61314 37.3836L12.9461 49.9498L39.8672 16.6165L24.3079 4.05029ZM62.3333 46.5C62.3333 46.6841 62.1841 46.8333 62 46.8333V66.8333C73.2298 66.8333 82.3333 57.7298 82.3333 46.5H62.3333ZM62 46.1667C62.1841 46.1667 62.3333 46.3159 62.3333 46.5H82.3333C82.3333 35.2702 73.2298 26.1667 62 26.1667V46.1667ZM61.6667 46.5C61.6667 46.3159 61.8159 46.1667 62 46.1667V26.1667C50.7702 26.1667 41.6667 35.2702 41.6667 46.5H61.6667ZM62 46.8333C61.8159 46.8333 61.6667 46.6841 61.6667 46.5H41.6667C41.6667 57.7298 50.7702 66.8333 62 66.8333V46.8333Z" fill="url(#paint1_linear_216_2252)" mask="url(#path-1-inside-1_216_2252)"/>
<defs>
<linearGradient id="paint0_linear_216_2252" x1="6.1958" y1="111.899" x2="141.145" y2="14.9957" gradientUnits="userSpaceOnUse">
<stop stop-color="#8B72FF"/>
<stop offset="1" stop-color="#3C66FF"/>
</linearGradient>
<linearGradient id="paint1_linear_216_2252" x1="6.1958" y1="111.899" x2="141.145" y2="14.9957" gradientUnits="userSpaceOnUse">
<stop stop-color="#8B72FF"/>
<stop offset="1" stop-color="#3C66FF"/>
</linearGradient>
</defs>
</svg>
