<svg width="30" height="30" viewBox="0 0 30 30" fill="none" xmlns="http://www.w3.org/2000/svg">
<path fill-rule="evenodd" clip-rule="evenodd" d="M6.45994 3.05665C6.69177 2.70891 7.08206 2.50003 7.5 2.50003H22.5C22.9179 2.50003 23.3082 2.70891 23.5401 3.05665L28.5401 10.5567C28.8372 11.0023 28.8173 11.5877 28.4908 12.0122L15.9908 28.2622C15.7542 28.5698 15.3881 28.75 15 28.75C14.6119 28.75 14.2458 28.5698 14.0092 28.2622L1.50922 12.0122C1.18267 11.5877 1.16285 11.0023 1.45994 10.5567L6.45994 3.05665ZM8.16898 5.00003L4.03701 11.198L15 25.4499L25.963 11.198L21.831 5.00003H8.16898Z" fill="url(#paint0_linear_1892_23335)"/>
<path fill-rule="evenodd" clip-rule="evenodd" d="M15.691 2.632C16.3085 2.32326 17.0593 2.57354 17.368 3.19101L21.118 10.691C21.2618 10.9785 21.2893 11.3104 21.1947 11.6176L16.1947 27.8676C15.9917 28.5275 15.2922 28.8978 14.6324 28.6948C13.9726 28.4917 13.6023 27.7922 13.8053 27.1324L18.658 11.3611L15.132 4.30905C14.8232 3.69157 15.0735 2.94073 15.691 2.632Z" fill="url(#paint1_linear_1892_23335)"/>
<path fill-rule="evenodd" clip-rule="evenodd" d="M14.309 2.632C14.9265 2.94073 15.1768 3.69157 14.868 4.30905L11.342 11.3611L16.1947 27.1324C16.3977 27.7922 16.0274 28.4917 15.3676 28.6948C14.7078 28.8978 14.0083 28.5275 13.8053 27.8676L8.80528 11.6176C8.71074 11.3104 8.73821 10.9785 8.88197 10.691L12.632 3.19101C12.9407 2.57354 13.6915 2.32326 14.309 2.632Z" fill="url(#paint2_linear_1892_23335)"/>
<path fill-rule="evenodd" clip-rule="evenodd" d="M1.25 11.25C1.25 10.5597 1.80965 10 2.5 10H27.5C28.1904 10 28.75 10.5597 28.75 11.25C28.75 11.9404 28.1904 12.5 27.5 12.5H2.5C1.80965 12.5 1.25 11.9404 1.25 11.25Z" fill="url(#paint3_linear_1892_23335)"/>
<defs>
<linearGradient id="paint0_linear_1892_23335" x1="0.85753" y1="28.7504" x2="22.0664" y2="4.94502" gradientUnits="userSpaceOnUse">
<stop stop-color="white"/>
<stop offset="1" stop-color="#9B95E9"/>
</linearGradient>
<linearGradient id="paint1_linear_1892_23335" x1="0.85753" y1="28.7504" x2="22.0664" y2="4.94502" gradientUnits="userSpaceOnUse">
<stop stop-color="white"/>
<stop offset="1" stop-color="#9B95E9"/>
</linearGradient>
<linearGradient id="paint2_linear_1892_23335" x1="0.85753" y1="28.7504" x2="22.0664" y2="4.94502" gradientUnits="userSpaceOnUse">
<stop stop-color="white"/>
<stop offset="1" stop-color="#9B95E9"/>
</linearGradient>
<linearGradient id="paint3_linear_1892_23335" x1="0.85753" y1="28.7504" x2="22.0664" y2="4.94502" gradientUnits="userSpaceOnUse">
<stop stop-color="white"/>
<stop offset="1" stop-color="#9B95E9"/>
</linearGradient>
</defs>
</svg>
