<svg width="16" height="16" viewBox="0 0 16 16" fill="none" xmlns="http://www.w3.org/2000/svg">
<path d="M13.5681 2.6081C12.5485 2.13103 11.47 1.79205 10.3609 1.6001C10.2098 1.87729 10.0729 2.16192 9.95046 2.4529C8.77248 2.27306 7.57404 2.27306 6.39606 2.4529C6.28406 2.1857 6.12006 1.8497 5.98006 1.6001C4.86988 1.7921 3.79042 2.13192 2.77046 2.6105C0.740859 5.6777 0.192059 8.6681 0.466459 11.6161C1.65084 12.5106 2.98153 13.1928 4.39926 13.6321C4.71606 13.1953 4.99846 12.7321 5.24166 12.2441C4.77766 12.0681 4.33446 11.8505 3.91526 11.5985C4.02646 11.5161 4.13526 11.4305 4.24006 11.3409C6.79846 12.5377 9.57766 12.5377 12.1041 11.3409C12.2113 11.4297 12.3201 11.5161 12.4297 11.5985C12.0089 11.8521 11.5641 12.0689 11.1009 12.2449C11.3441 12.7329 11.6257 13.1969 11.9433 13.6329C13.3624 13.1942 14.6943 12.5117 15.8793 11.6161C16.2017 8.1977 15.3273 5.2353 13.5681 2.6081ZM5.59046 9.8033C4.82246 9.8033 4.19286 9.0865 4.19286 8.2137C4.19286 7.3409 4.80886 6.6225 5.59046 6.6225C6.37126 6.6225 7.00086 7.3393 6.98806 8.2137C6.98886 9.0865 6.37206 9.8033 5.59046 9.8033ZM10.7545 9.8033C9.98646 9.8033 9.35766 9.0865 9.35766 8.2137C9.35766 7.3409 9.97366 6.6225 10.7545 6.6225C11.5361 6.6225 12.1657 7.3393 12.1521 8.2137C12.1521 9.0865 11.5361 9.8033 10.7545 9.8033Z" fill="white"/>
</svg>
