<svg width="124" height="124" viewBox="0 0 124 124" fill="none" xmlns="http://www.w3.org/2000/svg">
<path fill-rule="evenodd" clip-rule="evenodd" d="M94.5757 33.887C106.712 47.4937 114.693 62.3 117.88 75.132C120.98 87.6107 119.414 97.4613 113.86 103.044C113.643 103.253 113.425 103.46 113.205 103.666C113.194 103.675 113.184 103.685 113.173 103.695C107.064 109.143 96.787 109.8 84.2599 105.119C71.8745 100.49 58.0735 90.875 45.9374 77.2682C33.8013 63.6615 25.8203 48.8552 22.6327 36.0232C19.4087 23.0445 21.2317 12.9088 27.3402 7.46056C33.4487 2.01233 43.7261 1.35545 56.2532 6.03666C68.6386 10.6649 82.4396 20.2802 94.5757 33.887ZM104.007 110.842C87.5529 113.292 63.405 101.227 43.7644 79.2064C24.0334 57.0843 14.8025 31.5871 19.2556 15.5315C10.0685 26.683 4.55288 40.9689 4.55288 56.544C4.55288 92.1908 33.4503 121.088 69.0971 121.088C81.9598 121.088 93.9424 117.327 104.007 110.842ZM115.173 105.813C103.116 117.092 86.9118 124 69.0971 124C31.8422 124 1.64111 93.7989 1.64111 56.544C1.64111 35.9345 10.8854 17.4827 25.4486 5.11161L25.5139 5.18854C40.1956 -7.70149 72.0392 4.245 96.7487 31.9489C120.579 58.6671 129.093 90.3085 116.681 104.293L116.713 104.325C116.451 104.586 116.187 104.845 115.921 105.101C115.679 105.344 115.429 105.582 115.173 105.813Z" fill="url(#paint0_linear_322_2015)"/>
<defs>
<linearGradient id="paint0_linear_322_2015" x1="2.73425" y1="121.879" x2="157.463" y2="23.5468" gradientUnits="userSpaceOnUse">
<stop stop-color="#8B72FF"/>
<stop offset="1" stop-color="#3C66FF"/>
</linearGradient>
</defs>
</svg>
