<svg width="20" height="20" viewBox="0 0 21 27" fill="none" xmlns="http://www.w3.org/2000/svg">
<path fill-rule="evenodd" clip-rule="evenodd" d="M10.3335 0.5C10.9293 0.5 11.4424 0.920575 11.5592 1.50485C12.1242 4.32973 13.8345 7.07503 16.1144 8.89891C18.8389 11.0785 20.3335 13.7868 20.3335 16.75C20.3335 19.4022 19.2799 21.9457 17.4046 23.8211C15.5292 25.6964 12.9857 26.75 10.3335 26.75C7.68133 26.75 5.13779 25.6964 3.26243 23.8211C1.38706 21.9457 0.333496 19.4022 0.333496 16.75C0.333496 13.7868 1.8281 11.0785 4.55263 8.89891C6.83249 7.07503 8.5428 4.32973 9.10777 1.50485C9.22463 0.920575 9.73764 0.5 10.3335 0.5ZM10.3335 24.25C12.3226 24.25 14.2303 23.4598 15.6368 22.0533C17.0433 20.6468 17.8335 18.7391 17.8335 16.75C17.8335 14.7132 16.8281 12.6715 14.5526 10.8511C12.8063 9.45406 11.3405 7.6125 10.3335 5.5667C9.32649 7.6125 7.86065 9.45406 6.11436 10.8511C3.83889 12.6715 2.8335 14.7132 2.8335 16.75C2.8335 18.7391 3.62367 20.6468 5.0302 22.0533C6.43672 23.4598 8.34437 24.25 10.3335 24.25Z" fill="#ffffff"/>
<defs>
</defs>
</svg>
