<svg width="31" height="30" viewBox="0 0 31 30" fill="none" xmlns="http://www.w3.org/2000/svg">
<path fill-rule="evenodd" clip-rule="evenodd" d="M15.333 2.5C15.9289 2.5 16.4419 2.92057 16.5587 3.50485C17.1237 6.32973 18.834 9.07503 21.1139 10.8989C23.8384 13.0785 25.333 15.7868 25.333 18.75C25.333 21.4022 24.2794 23.9457 22.4041 25.8211C20.5287 27.6964 17.9852 28.75 15.333 28.75C12.6808 28.75 10.1373 27.6964 8.26194 25.8211C6.38658 23.9457 5.33301 21.4022 5.33301 18.75C5.33301 15.7868 6.82761 13.0785 9.55214 10.8989C11.832 9.07503 13.5423 6.32973 14.1073 3.50485C14.2241 2.92057 14.7372 2.5 15.333 2.5ZM15.333 26.25C17.3221 26.25 19.2298 25.4598 20.6363 24.0533C22.0428 22.6468 22.833 20.7391 22.833 18.75C22.833 16.7132 21.8276 14.6715 19.5521 12.8511C17.8059 11.4541 16.34 9.6125 15.333 7.5667C14.326 9.6125 12.8602 11.4541 11.1139 12.8511C8.83841 14.6715 7.83301 16.7132 7.83301 18.75C7.83301 20.7391 8.62318 22.6468 10.0297 24.0533C11.4362 25.4598 13.3439 26.25 15.333 26.25Z" fill="url(#paint0_linear_1892_23328)"/>
<defs>
<linearGradient id="paint0_linear_1892_23328" x1="5.04758" y1="28.75" x2="25.9653" y2="11.6743" gradientUnits="userSpaceOnUse">
<stop stop-color="white"/>
<stop offset="1" stop-color="#9B95E9"/>
</linearGradient>
</defs>
</svg>
