<svg width="36" height="36" viewBox="0 0 36 36" fill="none" xmlns="http://www.w3.org/2000/svg">
<path fill-rule="evenodd" clip-rule="evenodd" d="M18 4.5C10.5442 4.5 4.5 10.5442 4.5 18C4.5 25.4558 10.5442 31.5 18 31.5C25.4558 31.5 31.5 25.4558 31.5 18C31.5 10.5442 25.4558 4.5 18 4.5ZM1.5 18C1.5 8.8873 8.8873 1.5 18 1.5C27.1127 1.5 34.5 8.8873 34.5 18C34.5 27.1127 27.1127 34.5 18 34.5C8.8873 34.5 1.5 27.1127 1.5 18Z" fill="#F04438"/>
<path fill-rule="evenodd" clip-rule="evenodd" d="M18 10.5C18.8284 10.5 19.5 11.1716 19.5 12V18C19.5 18.8284 18.8284 19.5 18 19.5C17.1716 19.5 16.5 18.8284 16.5 18V12C16.5 11.1716 17.1716 10.5 18 10.5Z" fill="#F04438"/>
<path fill-rule="evenodd" clip-rule="evenodd" d="M16.5 24C16.5 23.1716 17.1716 22.5 18 22.5H18.015C18.8434 22.5 19.515 23.1716 19.515 24C19.515 24.8284 18.8434 25.5 18.015 25.5H18C17.1716 25.5 16.5 24.8284 16.5 24Z" fill="#F04438"/>
</svg>
