<?xml version="1.0" encoding="UTF-8" standalone="no"?>
<svg
   width="31.425188"
   height="32"
   viewBox="0 0 31.425188 32"
   fill="none"
   version="1.1"
   id="svg54"
   xmlns="http://www.w3.org/2000/svg"
   xmlnsSvg="http://www.w3.org/2000/svg">
  <path
     d="M 31.425188,8.93488 17.798088,0 v 4.99554 l 8.7419,5.68066 -1.0285,3.2542 h -7.7134 v 4.1392 h 7.7134 l 1.0285,3.2542 -8.7419,5.6807 V 32 l 13.6271,-8.9063 -2.2284,-7.0794 z"
     fill="url(#paint0_linear_536_8492)"
     id="path2"
     style="fill:url(#paint0_linear_536_8492)" />
  <path
     d="m 5.942208,18.0696 h 7.68488 v -4.1392 h -7.71345 l -0.99989,-3.2542 8.71334,-5.68066 V 0 L 0,8.93488 2.228328,16.0143 0,23.0937 13.655688,32 v -4.9955 l -8.74194,-5.6807 z"
     fill="url(#paint1_linear_536_8492)"
     id="path4"
     style="fill:url(#paint1_linear_536_8492)" />
  <mask
     id="mask0_536_8492"
     maskUnits="userSpaceOnUse"
     x="0"
     y="0"
     width="32"
     height="32">
    <path
       d="M 31.808,8.93488 18.1809,0 v 4.99554 l 8.7419,5.68066 -1.0285,3.2542 h -7.7134 v 4.1392 h 7.7134 l 1.0285,3.2542 -8.7419,5.6807 V 32 L 31.808,23.0937 29.5796,16.0143 Z"
       fill="url(#paint2_linear_536_8492)"
       id="path6" />
    <path
       d="M 6.32502,18.0696 H 14.0099 V 13.9304 H 6.29645 L 5.29656,10.6762 14.0099,4.99554 V 0 L 0.382812,8.93488 2.61114,16.0143 0.382812,23.0937 14.0385,32 V 27.0045 L 5.29656,21.3238 Z"
       fill="url(#paint3_linear_536_8492)"
       id="path8" />
  </mask>
  <g
     mask="url(#mask0_536_8492)"
     id="g13"
     transform="translate(-0.382812)">
    <rect
       x="0.40039101"
       width="31.200001"
       height="32"
       fill="url(#paint4_linear_536_8492)"
       id="rect11"
       y="0"
       style="fill:url(#paint4_linear_536_8492)" />
  </g>
  <defs
     id="defs52">
    <linearGradient
       id="paint0_linear_536_8492"
       x1="27.399599"
       y1="34.200001"
       x2="18.271601"
       y2="-3.51423"
       gradientUnits="userSpaceOnUse"
       gradientTransform="translate(-0.382812)">
      <stop
         stop-color="#0B46F9"
         id="stop27" />
      <stop
         offset="1"
         stop-color="#BBFBE0"
         id="stop29" />
    </linearGradient>
    <linearGradient
       id="paint1_linear_536_8492"
       x1="27.399599"
       y1="34.200001"
       x2="18.271601"
       y2="-3.51423"
       gradientUnits="userSpaceOnUse"
       gradientTransform="translate(-0.382812)">
      <stop
         stop-color="#0B46F9"
         id="stop32" />
      <stop
         offset="1"
         stop-color="#BBFBE0"
         id="stop34" />
    </linearGradient>
    <linearGradient
       id="paint2_linear_536_8492"
       x1="27.399599"
       y1="34.200001"
       x2="18.271601"
       y2="-3.51423"
       gradientUnits="userSpaceOnUse">
      <stop
         stop-color="#0B46F9"
         id="stop37" />
      <stop
         offset="1"
         stop-color="#BBFBE0"
         id="stop39" />
    </linearGradient>
    <linearGradient
       id="paint3_linear_536_8492"
       x1="27.399599"
       y1="34.200001"
       x2="18.271601"
       y2="-3.51423"
       gradientUnits="userSpaceOnUse">
      <stop
         stop-color="#0B46F9"
         id="stop42" />
      <stop
         offset="1"
         stop-color="#BBFBE0"
         id="stop44" />
    </linearGradient>
    <linearGradient
       id="paint4_linear_536_8492"
       x1="2.4003899"
       y1="7.1999998"
       x2="18.200399"
       y2="19"
       gradientUnits="userSpaceOnUse">
      <stop
         offset="0.119792"
         stop-color="#8952FF"
         stop-opacity="0.87"
         id="stop47" />
      <stop
         offset="1"
         stop-color="#DABDFF"
         stop-opacity="0"
         id="stop49" />
    </linearGradient>
  </defs>
</svg>
