<svg width="17" height="28" viewBox="0 0 17 28" fill="none" xmlns="http://www.w3.org/2000/svg">
<g clip-path="url(#clip0_167_141)">
<path d="M9.80074 0.204154V6.65413C9.80134 6.82526 9.73683 6.99007 9.62057 7.11438L4.88504 12.1371C4.78123 12.2654 4.70385 12.4134 4.65744 12.5725C4.61103 12.7315 4.59653 12.8983 4.6148 13.0631C4.68326 13.6099 5.05619 14.5724 6.00564 14.6754C6.67944 14.7492 8.3108 14.7355 9.2008 14.7218C9.24994 14.7218 9.29799 14.7365 9.33896 14.7639C9.37993 14.7914 9.41202 14.8304 9.43122 14.8762C9.45043 14.9219 9.4559 14.9724 9.44697 15.0213C9.43803 15.0702 9.41507 15.1153 9.38096 15.1511L3.52572 21.3067C3.12126 21.7351 2.00787 22.8415 0.98185 22.1552C0.307146 21.6995 -0.00183105 21.4352 -0.00183105 20.5083V11.85C-0.00183105 11.1109 -0.0018314 9.63622 2.03309 7.61201C3.28431 6.36795 8.11353 1.40993 9.45573 0.063798C9.48368 0.0352881 9.51932 0.0157522 9.55819 0.00763384C9.59706 -0.000484539 9.63743 0.00317475 9.67426 0.0181558C9.71109 0.0331368 9.74273 0.0587729 9.76522 0.0918565C9.78772 0.12494 9.80007 0.164003 9.80074 0.204154Z" fill="#EE751F"/>
<path d="M7.57572 12.1025L13.939 5.89219C13.939 5.89219 14.7867 5.2059 15.7361 5.58322C16.6856 5.96054 16.9909 6.98951 16.9909 8.08775V15.3963C16.9909 15.3963 17.1945 17.6948 15.7028 19.2733C14.3065 20.7489 8.08377 27.0248 7.27305 27.8332C7.188 27.9216 7.07659 27.9792 6.95597 27.9973C6.80824 28.0155 6.64429 27.9635 6.64429 27.6418C6.64429 26.9902 6.65149 22.1051 6.64429 21.1526C6.64421 21.1007 6.65428 21.0492 6.67391 21.0012C6.69354 20.9532 6.72236 20.9096 6.75869 20.8729L11.6275 15.9449C11.6275 15.9449 12.2716 15.1556 12.0689 14.3673C11.8663 13.5789 11.2888 13.1661 10.1691 13.1661C9.04944 13.1661 7.79552 13.2007 7.45681 13.2007C7.11811 13.2007 6.95327 12.7705 7.18657 12.4953C7.30632 12.3546 7.4364 12.2233 7.57572 12.1025Z" fill="#EE751F"/>
</g>
<defs>
<clipPath id="clip0_167_141">
<rect width="17" height="28" fill="white"/>
</clipPath>
</defs>
</svg>
