<svg width="40" height="40" viewBox="0 0 40 40" fill="none" xmlns="http://www.w3.org/2000/svg">
<path fill-rule="evenodd" clip-rule="evenodd" d="M8.61325 4.07551C8.92236 3.61185 9.44274 3.33334 10 3.33334H30C30.5573 3.33334 31.0776 3.61185 31.3868 4.07551L38.0534 14.0755C38.4495 14.6697 38.4231 15.4502 37.9877 16.0162L21.321 37.6829C21.0055 38.093 20.5174 38.3333 20 38.3333C19.4826 38.3333 18.9945 38.093 18.679 37.6829L2.01229 16.0162C1.5769 15.4502 1.55047 14.6697 1.94658 14.0755L8.61325 4.07551ZM10.892 6.66668L5.38268 14.9306L20 33.9331L34.6173 14.9306L29.108 6.66668H10.892Z" fill="white"/>
<path fill-rule="evenodd" clip-rule="evenodd" d="M20.9213 3.5093C21.7446 3.09765 22.7457 3.43136 23.1574 4.25465L28.1574 14.2547C28.3491 14.638 28.3857 15.0805 28.2596 15.4902L21.593 37.1568C21.3223 38.0366 20.3896 38.5303 19.5099 38.2596C18.6301 37.9889 18.1363 37.0563 18.407 36.1765L24.8773 15.1481L20.176 5.74536C19.7643 4.92207 20.098 3.92095 20.9213 3.5093Z" fill="white"/>
<path fill-rule="evenodd" clip-rule="evenodd" d="M19.0787 3.5093C19.902 3.92095 20.2357 4.92207 19.824 5.74536L15.1227 15.1481L21.593 36.1765C21.8637 37.0563 21.3699 37.9889 20.4901 38.2596C19.6104 38.5303 18.6777 38.0366 18.407 37.1568L11.7404 15.4902C11.6143 15.0805 11.6509 14.638 11.8426 14.2547L16.8426 4.25465C17.2543 3.43136 18.2554 3.09765 19.0787 3.5093Z" fill="white"/>
<path fill-rule="evenodd" clip-rule="evenodd" d="M1.66667 15C1.66667 14.0795 2.41286 13.3333 3.33333 13.3333H36.6667C37.5871 13.3333 38.3333 14.0795 38.3333 15C38.3333 15.9205 37.5871 16.6667 36.6667 16.6667H3.33333C2.41286 16.6667 1.66667 15.9205 1.66667 15Z" fill="white"/>
</svg>
