<svg width="28" height="24" viewBox="0 0 28 24" fill="none" xmlns="http://www.w3.org/2000/svg">
<path d="M12.1385 23.5576C11.8873 23.5112 11.6387 23.4542 11.3937 23.3883C11.3029 23.3633 11.2129 23.3384 11.1238 23.3108C11.0579 23.2912 10.9928 23.2707 10.9269 23.2493C10.8806 23.2342 10.8333 23.2181 10.787 23.2021C10.7149 23.1772 10.6436 23.1522 10.5723 23.1255C10.4957 23.097 10.42 23.0685 10.3451 23.0382L10.1919 20.2283L10.5215 18.6442L12.1189 23.4988L12.1385 23.5576Z" fill="url(#paint0_linear_167_203)"/>
<path d="M17.6348 20.2282L17.4717 23.022C17.3951 23.0532 17.3185 23.0826 17.2419 23.112C17.1652 23.1414 17.0877 23.169 17.0102 23.1958C16.9719 23.2091 16.9327 23.2225 16.8935 23.235C16.8276 23.2573 16.7608 23.2777 16.6939 23.2982C16.3548 23.4022 16.01 23.4872 15.6614 23.553L15.6667 23.5352L15.6685 23.5281L17.2855 18.5711L17.6348 20.2282Z" fill="url(#paint1_linear_167_203)"/>
<path d="M16.0092 22.2476L15.145 23.6357L15.1014 23.641C15.0853 23.6428 15.0693 23.6455 15.0532 23.6473C15.0399 23.649 15.0256 23.6508 15.0123 23.6517L14.9223 23.6624C14.8581 23.6695 14.7949 23.6758 14.7307 23.6811C14.4575 23.7052 14.1819 23.7176 13.9039 23.7185H13.8879C13.6126 23.7185 13.3383 23.7069 13.0665 23.6829C13.0068 23.6775 12.9471 23.6722 12.8874 23.666C12.8607 23.6633 12.8331 23.6606 12.8064 23.6571L12.7627 23.6517L12.7208 23.6464L12.6745 23.641L11.8121 22.2467L11.6215 18.8426L12.5293 21.3077L13.6091 21.5028L14.2933 21.501L15.3178 21.2997L16.0974 18.9344L16.0092 22.2476Z" fill="url(#paint2_linear_167_203)"/>
<path d="M15.1582 12.6399L16.5374 13.4337L16.5409 14.346L15.1582 12.6399Z" fill="url(#paint3_linear_167_203)"/>
<path d="M19.9874 13.0336L20.9425 12.8002L20.4917 14.3219L19.9874 13.0336Z" fill="url(#paint4_linear_167_203)"/>
<path d="M16.5409 14.3459L16.6816 15.8275L17.3569 14.844L18.1489 13.5931L16.5409 14.3459Z" fill="url(#paint5_linear_167_203)"/>
<path d="M19.9876 13.0337L18.8543 13.333L18.1487 13.5932L17.3567 14.844L16.6814 15.8276L17.6142 15.8757L19.3675 15.5461L20.4918 14.322L19.9876 13.0337Z" fill="url(#paint6_linear_167_203)"/>
<path d="M16.0107 16.3921L16.6816 15.8272L16.8767 16.393L16.0107 16.3921Z" fill="url(#paint7_linear_167_203)"/>
<path d="M16.6814 15.8272L17.6142 15.8753L16.8765 16.393L16.6814 15.8272Z" fill="url(#paint8_linear_167_203)"/>
<path d="M16.0102 16.3925L16.8762 16.3934L15.9487 17.0651L16.0102 16.3925Z" fill="url(#paint9_linear_167_203)"/>
<path d="M15.1582 12.6399L16.5409 14.346L15.6901 15.1799L15.1582 12.6399Z" fill="url(#paint10_linear_167_203)"/>
<path d="M16.0102 16.3926L16.681 15.8278L15.6895 15.18L16.0102 16.3926Z" fill="url(#paint11_linear_167_203)"/>
<path d="M16.5403 14.3462L16.681 15.8278L15.6895 15.1801L16.5403 14.3462Z" fill="url(#paint12_linear_167_203)"/>
<path d="M15.69 15.18L14.865 17.6505L15.9493 17.0652L16.0107 16.3926L15.69 15.18Z" fill="url(#paint13_linear_167_203)"/>
<path d="M15.7595 17.8913L15.9493 17.0655L14.865 17.6508L15.3363 18.98L16.0374 19.1359L15.7595 17.8913Z" fill="url(#paint14_linear_167_203)"/>
<path d="M15.1608 19.9187L14.4686 20.9361L14.2939 21.501L15.3185 21.2996L15.1608 19.9187Z" fill="url(#paint15_linear_167_203)"/>
<path d="M11.2559 14.3548L11.2488 13.4425L12.619 12.6434L11.2559 14.3548Z" fill="url(#paint16_linear_167_203)"/>
<path d="M7.29215 14.3447L6.81909 12.8213L7.78214 13.052L7.29215 14.3447Z" fill="url(#paint17_linear_167_203)"/>
<path d="M11.2557 14.3549L11.1061 15.8383L10.4441 14.8556L9.63428 13.6065L11.2557 14.3549Z" fill="url(#paint18_linear_167_203)"/>
<path d="M7.78246 13.0518L8.92373 13.3485L9.63464 13.6069L10.4445 14.8559L11.1064 15.8386L10.1995 15.8902L8.43548 15.5669L7.29248 14.3445L7.78246 13.0518Z" fill="url(#paint19_linear_167_203)"/>
<path d="M10.9438 16.4064L11.106 15.8389L11.8116 16.4011L10.9438 16.4064Z" fill="url(#paint20_linear_167_203)"/>
<path d="M10.9438 16.4064L10.199 15.8906L11.1059 15.8389L10.9438 16.4064Z" fill="url(#paint21_linear_167_203)"/>
<path d="M11.882 17.0742L10.9438 16.4061L11.8116 16.4007L11.882 17.0742Z" fill="url(#paint22_linear_167_203)"/>
<path d="M12.1181 15.1869L11.2557 14.3548L12.6188 12.6434L12.1181 15.1869Z" fill="url(#paint23_linear_167_203)"/>
<path d="M12.1179 15.1871L11.1058 15.8383L11.8114 16.4005L12.1179 15.1871Z" fill="url(#paint24_linear_167_203)"/>
<path d="M12.1179 15.1877L11.1058 15.8389L11.2555 14.3556L12.1179 15.1877Z" fill="url(#paint25_linear_167_203)"/>
<path d="M12.1175 15.1871L12.9185 17.6424L11.8814 17.074L11.811 16.4005L12.1175 15.1871Z" fill="url(#paint26_linear_167_203)"/>
<path d="M12.7061 19.9261L12.519 18.9871L13.9356 19.0985L12.7061 19.9261Z" fill="url(#paint27_linear_167_203)"/>
<path d="M11.882 17.0742L12.1092 17.8564L11.7128 19.1705L12.519 18.987L12.9191 17.6426L11.882 17.0742Z" fill="url(#paint28_linear_167_203)"/>
<path d="M12.7061 19.9263L13.376 20.9393L13.6094 21.5041L12.5297 21.3081L12.7061 19.9263Z" fill="url(#paint29_linear_167_203)"/>
<path d="M14.4686 20.9363L13.9296 20.8819V20.8801L13.9224 20.881L13.9153 20.8801V20.8819L13.3763 20.9389L13.6097 21.5038L14.294 21.5011L14.4686 20.9363Z" fill="url(#paint30_linear_167_203)"/>
<path d="M15.1608 19.9188L13.9358 19.1081V19.0983L13.9287 19.1027L13.9215 19.0983V19.1081L12.7063 19.926L13.3763 20.9389L13.9224 20.881L14.4685 20.9363L15.1608 19.9188Z" fill="url(#paint31_linear_167_203)"/>
<path d="M14.865 17.6505L15.6899 15.18L13.9054 15.2905L12.1183 15.1872L12.9192 17.6425L12.5192 18.9869L13.9215 19.0974V19.0983L13.9286 19.0974L13.9357 19.0983V19.0974L15.3363 18.9798L14.865 17.6505Z" fill="url(#paint32_linear_167_203)"/>
<path d="M13.9126 15.2903L15.6899 15.1799L15.1581 12.6399L13.8841 12.9366L12.619 12.6435L12.1183 15.187L13.8983 15.2903V15.2912L13.9054 15.2903L13.9126 15.2912V15.2903Z" fill="url(#paint33_linear_167_203)"/>
<path d="M15.336 18.9795L15.1605 19.9185L15.3182 21.2994L16.0372 19.1354L15.336 18.9795Z" fill="url(#paint34_linear_167_203)"/>
<path d="M12.519 18.9871L11.7128 19.1707L12.5297 21.3079L12.7061 19.9261L12.519 18.9871Z" fill="url(#paint35_linear_167_203)"/>
<path d="M12.519 18.987L11.7127 19.1705L10.9438 16.406L11.882 17.0742L12.4958 17.8599L12.519 18.987Z" fill="url(#paint36_linear_167_203)"/>
<path d="M15.3361 18.9794L16.0372 19.1353L16.8765 16.3931L15.949 17.0648L15.3601 17.97L15.3361 18.9794Z" fill="url(#paint37_linear_167_203)"/>
<path d="M13.9211 19.098L15.3359 18.9795L15.1604 19.9185L13.9211 19.098Z" fill="url(#paint38_linear_167_203)"/>
<path d="M13.3372 19.4876H14.5978L13.9216 19.0983L13.3372 19.4876Z" fill="url(#paint39_linear_167_203)"/>
<path d="M23.7788 10.965L23.2433 11.1726L23.1115 11.047L23.1533 10.7209L25.5294 8.08472L27.37 4.32241L27.0137 4.23065L25.4848 7.20895L25.5276 6.735L26.0595 3.36469L25.6639 0.375686L25.3343 0.28125L25.4768 2.88805L24.5378 7.33547L23.3306 8.96761L23.1926 7.87448L23.9739 5.93227L24.136 3.28985L23.8607 3.27827L23.6612 5.18034L22.9306 6.972L22.6357 7.24547L22.4424 6.91584L22.4085 4.99861L22.1199 5.02622L22.0406 7.42636L22.1208 9.44602L21.2494 10.197L19.5941 10.9383L18.3852 11.088L19.7251 9.31505L19.6378 8.31192L19.5167 8.32528L19.4186 8.76895L17.5157 11.2947L16.5125 11.5637L15.1646 12.6524L16.5365 13.4338L17.1549 12.6934L17.7954 12.517L19.1585 12.2738L19.9737 12.1286L21.4766 12.0404L23.1685 11.9415L25.9205 9.90394L25.7031 9.56719L23.7788 10.965Z" fill="url(#paint40_linear_167_203)"/>
<path d="M10.2276 11.3051L8.31575 8.78376L8.21506 8.34187L8.09478 8.32851L8.01463 9.32812L9.35989 11.0975L8.15539 10.9469L6.50633 10.2066L5.63591 9.45731L5.70181 7.44562L5.60736 5.05533L5.32048 5.02861L5.3 6.93783L5.11114 7.26567L4.81625 6.99394L4.08036 5.21212L3.87011 3.31805L3.59749 3.33052L3.77567 5.95959L4.56323 7.89197L4.43227 8.98068L3.22687 7.35567L2.26825 2.93407L2.3912 0.341522L2.0669 0.43685L1.69451 3.40982L2.2433 6.75965L2.28785 7.23094L0.758159 4.27221L0.40625 4.36398L2.25043 8.10136L4.61936 10.726L4.66302 11.0503L4.53383 11.175L4.00196 10.9683L2.08739 9.57581L1.87536 9.91078L4.61312 11.9403L6.29248 12.0427L7.78564 12.1327L8.59728 12.2797L9.9568 12.5247L10.5965 12.702L11.2486 13.4423L12.6188 12.6432L11.229 11.575L10.2276 11.3051Z" fill="url(#paint41_linear_167_203)"/>
<path d="M12.7213 23.6473L12.675 23.6419C12.553 23.6259 12.4318 23.608 12.3115 23.5884C12.2937 23.5858 12.2759 23.5822 12.2581 23.5795L12.1396 23.5582C11.8883 23.5118 11.6398 23.4548 11.3948 23.3889C11.3039 23.3639 11.2139 23.339 11.1248 23.3114C11.0589 23.2918 10.9939 23.2713 10.928 23.2499L10.6536 21.8797L10.5226 18.6457L10.9449 16.4077L11.7137 19.1722L11.8135 22.2494L12.7213 23.6473Z" fill="url(#paint42_linear_167_203)"/>
<path d="M17.2993 18.6436L17.1683 21.8776L17.163 21.8829L16.8922 23.2335C16.8262 23.2558 16.7594 23.2763 16.6926 23.2967C16.3534 23.4007 16.0087 23.4858 15.66 23.5515C15.6199 23.5587 15.5798 23.5667 15.5397 23.5738L15.5112 23.5792C15.5094 23.5792 15.5085 23.5801 15.5068 23.5801C15.3865 23.6005 15.2654 23.6193 15.1433 23.6353L15.0996 23.6407L16.0066 22.2464L16.0342 19.1344L16.8743 16.3931L17.2841 18.5714L17.2993 18.6436Z" fill="url(#paint43_linear_167_203)"/>
<defs>
<linearGradient id="paint0_linear_167_203" x1="11.1652" y1="10.3396" x2="11.1652" y2="25.5505" gradientUnits="userSpaceOnUse">
<stop stop-color="#00E0A4"/>
<stop offset="1" stop-color="#00182E"/>
</linearGradient>
<linearGradient id="paint1_linear_167_203" x1="4770.97" y1="-9767.96" x2="4770.97" y2="-1261.99" gradientUnits="userSpaceOnUse">
<stop stop-color="#00E0A4"/>
<stop offset="1" stop-color="#00182E"/>
</linearGradient>
<linearGradient id="paint2_linear_167_203" x1="13.8594" y1="26.2713" x2="13.8594" y2="15.4145" gradientUnits="userSpaceOnUse">
<stop stop-color="#00E0B5"/>
<stop offset="1" stop-color="#000B08"/>
</linearGradient>
<linearGradient id="paint3_linear_167_203" x1="15.5636" y1="12.4757" x2="16.7873" y2="13.8948" gradientUnits="userSpaceOnUse">
<stop stop-color="#00917B"/>
<stop offset="1" stop-color="#00BD86"/>
</linearGradient>
<linearGradient id="paint4_linear_167_203" x1="20.3653" y1="12.4417" x2="21.1604" y2="13.0159" gradientUnits="userSpaceOnUse">
<stop stop-color="#004F75"/>
<stop offset="1" stop-color="#006186"/>
</linearGradient>
<linearGradient id="paint5_linear_167_203" x1="16.8003" y1="15.3855" x2="18.8688" y2="13.6965" gradientUnits="userSpaceOnUse">
<stop stop-color="#00E0A3"/>
<stop offset="1" stop-color="#00298F"/>
</linearGradient>
<linearGradient id="paint6_linear_167_203" x1="17.5985" y1="15.0706" x2="21.6425" y2="11.7686" gradientUnits="userSpaceOnUse">
<stop stop-color="#00E094"/>
<stop offset="1" stop-color="#000051"/>
</linearGradient>
<linearGradient id="paint7_linear_167_203" x1="16.9378" y1="16.0909" x2="16.1168" y2="16.3236" gradientUnits="userSpaceOnUse">
<stop stop-color="#005773"/>
<stop offset="1" stop-color="#003B1B"/>
</linearGradient>
<linearGradient id="paint8_linear_167_203" x1="23568.4" y1="-6781.08" x2="23580.9" y2="-6751.74" gradientUnits="userSpaceOnUse">
<stop stop-color="#00E094"/>
<stop offset="1" stop-color="#000051"/>
</linearGradient>
<linearGradient id="paint9_linear_167_203" x1="16.1256" y1="16.5628" x2="16.5966" y2="17.207" gradientUnits="userSpaceOnUse">
<stop stop-color="#000700"/>
<stop offset="1" stop-color="#002B16"/>
</linearGradient>
<linearGradient id="paint10_linear_167_203" x1="15.6402" y1="12.6954" x2="16.7855" y2="13.5503" gradientUnits="userSpaceOnUse">
<stop stop-color="#00ABB5"/>
<stop offset="1" stop-color="#00AD95"/>
</linearGradient>
<linearGradient id="paint11_linear_167_203" x1="15.874" y1="15.2105" x2="16.8204" y2="16.2037" gradientUnits="userSpaceOnUse">
<stop stop-color="#00C77A"/>
<stop offset="1" stop-color="#00C797"/>
</linearGradient>
<linearGradient id="paint12_linear_167_203" x1="15.9812" y1="14.2094" x2="16.9334" y2="15.2087" gradientUnits="userSpaceOnUse">
<stop stop-color="#00D4B0"/>
<stop offset="1" stop-color="#00A1B5"/>
</linearGradient>
<linearGradient id="paint13_linear_167_203" x1="14.8241" y1="18.8056" x2="16.8535" y2="17.1486" gradientUnits="userSpaceOnUse">
<stop stop-color="#00E088"/>
<stop offset="1" stop-color="#00E0B5"/>
</linearGradient>
<linearGradient id="paint14_linear_167_203" x1="15.1671" y1="19.2112" x2="16.6143" y2="17.8753" gradientUnits="userSpaceOnUse">
<stop stop-color="#00E094"/>
<stop offset="1" stop-color="#00E0B5"/>
</linearGradient>
<linearGradient id="paint15_linear_167_203" x1="876.67" y1="-442.015" x2="1045.5" y2="-528.617" gradientUnits="userSpaceOnUse">
<stop stop-color="#00C77A"/>
<stop offset="1" stop-color="#00C797"/>
</linearGradient>
<linearGradient id="paint16_linear_167_203" x1="-45326.5" y1="-113105" x2="-45544" y2="-112900" gradientUnits="userSpaceOnUse">
<stop stop-color="#00917B"/>
<stop offset="1" stop-color="#00BD86"/>
</linearGradient>
<linearGradient id="paint17_linear_167_203" x1="-15203.9" y1="-103393" x2="-15292.3" y2="-103349" gradientUnits="userSpaceOnUse">
<stop stop-color="#004F75"/>
<stop offset="1" stop-color="#006186"/>
</linearGradient>
<linearGradient id="paint18_linear_167_203" x1="-5969.61" y1="-2536.64" x2="-6406.65" y2="-2787.87" gradientUnits="userSpaceOnUse">
<stop stop-color="#00E0A3"/>
<stop offset="1" stop-color="#00298F"/>
</linearGradient>
<linearGradient id="paint19_linear_167_203" x1="-26758.1" y1="-1020.45" x2="-27943.9" y2="-2302.4" gradientUnits="userSpaceOnUse">
<stop stop-color="#00E094"/>
<stop offset="1" stop-color="#000051"/>
</linearGradient>
<linearGradient id="paint20_linear_167_203" x1="1476.07" y1="-283.896" x2="1526.92" y2="-248.827" gradientUnits="userSpaceOnUse">
<stop stop-color="#005773"/>
<stop offset="1" stop-color="#003B1B"/>
</linearGradient>
<linearGradient id="paint21_linear_167_203" x1="-27136.2" y1="-7154.42" x2="-27154.2" y2="-7113.07" gradientUnits="userSpaceOnUse">
<stop stop-color="#00E094"/>
<stop offset="1" stop-color="#000051"/>
</linearGradient>
<linearGradient id="paint22_linear_167_203" x1="-26077.8" y1="-10274.3" x2="-26105" y2="-10220.3" gradientUnits="userSpaceOnUse">
<stop stop-color="#000700"/>
<stop offset="1" stop-color="#002B16"/>
</linearGradient>
<linearGradient id="paint23_linear_167_203" x1="-25072.7" y1="-271683" x2="-25235.8" y2="-271611" gradientUnits="userSpaceOnUse">
<stop stop-color="#00ABB5"/>
<stop offset="1" stop-color="#00AD95"/>
</linearGradient>
<linearGradient id="paint24_linear_167_203" x1="-25406.5" y1="-59280.2" x2="-25531" y2="-59169.2" gradientUnits="userSpaceOnUse">
<stop stop-color="#00C77A"/>
<stop offset="1" stop-color="#00C797"/>
</linearGradient>
<linearGradient id="paint25_linear_167_203" x1="-17694.1" y1="-73379.2" x2="-17822.7" y2="-73284.2" gradientUnits="userSpaceOnUse">
<stop stop-color="#00D4B0"/>
<stop offset="1" stop-color="#00A1B5"/>
</linearGradient>
<linearGradient id="paint26_linear_167_203" x1="-1487.33" y1="-2306.52" x2="-1695.59" y2="-2374.86" gradientUnits="userSpaceOnUse">
<stop stop-color="#00E088"/>
<stop offset="1" stop-color="#00E0B5"/>
</linearGradient>
<linearGradient id="paint27_linear_167_203" x1="-57845.2" y1="-14124.9" x2="-57874" y2="-14038.6" gradientUnits="userSpaceOnUse">
<stop stop-color="#00E094"/>
<stop offset="1" stop-color="#00E0B5"/>
</linearGradient>
<linearGradient id="paint28_linear_167_203" x1="688.883" y1="-1797.7" x2="933.336" y2="-1938.37" gradientUnits="userSpaceOnUse">
<stop stop-color="#00E094"/>
<stop offset="1" stop-color="#00E0B5"/>
</linearGradient>
<linearGradient id="paint29_linear_167_203" x1="-3339.69" y1="-630.009" x2="-3530.41" y2="-732.585" gradientUnits="userSpaceOnUse">
<stop stop-color="#00C77A"/>
<stop offset="1" stop-color="#00C797"/>
</linearGradient>
<linearGradient id="paint30_linear_167_203" x1="2299.07" y1="-120.153" x2="2320.99" y2="-158.549" gradientUnits="userSpaceOnUse">
<stop stop-color="#00C77A"/>
<stop offset="1" stop-color="#00C797"/>
</linearGradient>
<linearGradient id="paint31_linear_167_203" x1="15.0824" y1="20.0186" x2="12.8186" y2="20.0186" gradientUnits="userSpaceOnUse">
<stop stop-color="#004D45"/>
<stop offset="0.11" stop-color="#003630"/>
<stop offset="0.24" stop-color="#00221E"/>
<stop offset="0.37" stop-color="#001613"/>
<stop offset="0.5" stop-color="#00120F"/>
<stop offset="0.67" stop-color="#001512"/>
<stop offset="0.78" stop-color="#001E1A"/>
<stop offset="0.88" stop-color="#002D28"/>
<stop offset="0.97" stop-color="#00423B"/>
<stop offset="1" stop-color="#004D45"/>
</linearGradient>
<linearGradient id="paint32_linear_167_203" x1="13.9041" y1="18.9554" x2="13.9041" y2="15.2531" gradientUnits="userSpaceOnUse">
<stop stop-color="#00C584"/>
<stop offset="1" stop-color="#00E0A9"/>
</linearGradient>
<linearGradient id="paint33_linear_167_203" x1="13.8885" y1="14.8521" x2="13.9714" y2="12.7797" gradientUnits="userSpaceOnUse">
<stop stop-color="#00C7B5"/>
<stop offset="1" stop-color="#00ABB5"/>
</linearGradient>
<linearGradient id="paint34_linear_167_203" x1="15.5989" y1="21.3886" x2="15.5989" y2="18.8493" gradientUnits="userSpaceOnUse">
<stop stop-color="#007F9B"/>
<stop offset="1" stop-color="#00C693"/>
</linearGradient>
<linearGradient id="paint35_linear_167_203" x1="1910.58" y1="-1703.27" x2="1910.58" y2="-2328.62" gradientUnits="userSpaceOnUse">
<stop stop-color="#007F9B"/>
<stop offset="1" stop-color="#00C693"/>
</linearGradient>
<linearGradient id="paint36_linear_167_203" x1="12.3339" y1="19.5663" x2="10.0094" y2="17.6913" gradientUnits="userSpaceOnUse">
<stop stop-color="#00C696"/>
<stop offset="1" stop-color="#00959B"/>
</linearGradient>
<linearGradient id="paint37_linear_167_203" x1="1046.67" y1="-1617.62" x2="1463.78" y2="-1799.48" gradientUnits="userSpaceOnUse">
<stop stop-color="#00C696"/>
<stop offset="1" stop-color="#00959B"/>
</linearGradient>
<linearGradient id="paint38_linear_167_203" x1="51159.3" y1="-14391.3" x2="51188.8" y2="-14304.6" gradientUnits="userSpaceOnUse">
<stop stop-color="#00E094"/>
<stop offset="1" stop-color="#00E0B5"/>
</linearGradient>
<linearGradient id="paint39_linear_167_203" x1="2581.97" y1="-90.1325" x2="2582.59" y2="-84.9648" gradientUnits="userSpaceOnUse">
<stop stop-color="#00E094"/>
<stop offset="1" stop-color="#00E0B5"/>
</linearGradient>
<linearGradient id="paint40_linear_167_203" x1="35751.9" y1="-20969.3" x2="35751.9" y2="-47256.7" gradientUnits="userSpaceOnUse">
<stop stop-color="#00E094"/>
<stop offset="1" stop-color="#000051"/>
</linearGradient>
<linearGradient id="paint41_linear_167_203" x1="15531.5" y1="-20886.8" x2="15531.5" y2="-47070.7" gradientUnits="userSpaceOnUse">
<stop stop-color="#00E094"/>
<stop offset="1" stop-color="#000051"/>
</linearGradient>
<linearGradient id="paint42_linear_167_203" x1="11.622" y1="24.3508" x2="11.622" y2="16.6883" gradientUnits="userSpaceOnUse">
<stop stop-color="#00E0AB"/>
<stop offset="1" stop-color="#00182E"/>
</linearGradient>
<linearGradient id="paint43_linear_167_203" x1="5205.08" y1="-2826.24" x2="5205.08" y2="-9065.02" gradientUnits="userSpaceOnUse">
<stop stop-color="#00E0AB"/>
<stop offset="1" stop-color="#00182E"/>
</linearGradient>
</defs>
</svg>
