<svg width="22" height="22" viewBox="0 0 22 22" fill="none" xmlns="http://www.w3.org/2000/svg">
<path fill-rule="evenodd" clip-rule="evenodd" d="M11.3825 2.12486H10.6179L8.6179 6.12479H13.3824L11.3825 2.12486ZM13.6464 8.12479H8.35393L11.0002 16.7251L13.6464 8.12479ZM6.38183 6.12479L8.3818 2.12486H5.53519L2.86857 6.12479H6.38183ZM3.03081 8.12479H6.26139L8.41511 15.1244L3.03081 8.12479ZM0 7.12479C0 7.35538 0.078045 7.56774 0.209161 7.73689L10.1946 20.718C10.3407 20.9162 10.5549 21.0525 10.7925 21.1031C10.8601 21.1175 10.9295 21.125 10.9998 21.1249C11.3212 21.1252 11.6247 20.9694 11.8119 20.7095L21.7916 7.73589C21.9181 7.57228 21.995 7.36839 21.9998 7.14674C22.0042 6.94657 21.9486 6.74493 21.8321 6.57016L17.8321 0.570164C17.6466 0.291965 17.3344 0.124864 17 0.124864H12.0283C12.0093 0.124314 11.9901 0.124312 11.971 0.124864H10.0294C10.0102 0.124312 9.9911 0.124314 9.97201 0.124864H5C4.66565 0.124864 4.35342 0.291965 4.16795 0.570164L0.17701 6.55657C0.0653875 6.71794 0 6.91373 0 7.12479ZM19.1314 6.12479L16.4648 2.12486H13.6186L15.6185 6.12479H19.1314ZM18.9692 8.12479H15.739L13.5855 15.1236L18.9692 8.12479Z" fill="url(#paint0_linear_671_11865)"/>
<defs>
<linearGradient id="paint0_linear_671_11865" x1="-0.200003" y1="21.7248" x2="14.5906" y2="-3.87208" gradientUnits="userSpaceOnUse">
<stop stop-color="white"/>
<stop offset="1" stop-color="#9B95E9"/>
</linearGradient>
</defs>
</svg>
