<svg width="21" height="20" viewBox="0 0 21 20" fill="none" xmlns="http://www.w3.org/2000/svg">
<path fill-rule="evenodd" clip-rule="evenodd" d="M14.9226 5.24411C15.248 5.56955 15.248 6.09718 14.9226 6.42262L6.58925 14.756C6.26381 15.0814 5.73617 15.0814 5.41073 14.756C5.0853 14.4305 5.0853 13.9029 5.41073 13.5774L13.7441 5.24411C14.0695 4.91867 14.5971 4.91867 14.9226 5.24411Z" fill="#BBBBBE"/>
<path fill-rule="evenodd" clip-rule="evenodd" d="M5.16666 5.83336C5.16666 5.37313 5.53975 5.00003 5.99999 5.00003H14.3333C14.7936 5.00003 15.1667 5.37313 15.1667 5.83336V14.1667C15.1667 14.6269 14.7936 15 14.3333 15C13.8731 15 13.5 14.6269 13.5 14.1667V6.6667H5.99999C5.53975 6.6667 5.16666 6.2936 5.16666 5.83336Z" fill="#BBBBBE"/>
</svg>
