<svg width="21" height="20" viewBox="0 0 21 20" fill="none" xmlns="http://www.w3.org/2000/svg">
<path fill-rule="evenodd" clip-rule="evenodd" d="M10.3333 3.33337C10.7936 3.33337 11.1667 3.70646 11.1667 4.1667V15.8334C11.1667 16.2936 10.7936 16.6667 10.3333 16.6667C9.8731 16.6667 9.5 16.2936 9.5 15.8334V4.1667C9.5 3.70646 9.8731 3.33337 10.3333 3.33337Z" fill="white"/>
<path fill-rule="evenodd" clip-rule="evenodd" d="M3.91009 9.41077C4.23553 9.08534 4.76317 9.08534 5.0886 9.41077L10.3327 14.6549L15.5768 9.41077C15.9022 9.08534 16.4298 9.08534 16.7553 9.41077C17.0807 9.73621 17.0807 10.2638 16.7553 10.5893L10.9219 16.4226C10.5965 16.7481 10.0689 16.7481 9.74343 16.4226L3.91009 10.5893C3.58466 10.2638 3.58466 9.73621 3.91009 9.41077Z" fill="white"/>
</svg>
