<svg width="20" height="20" viewBox="0 0 20 20" fill="none" xmlns="http://www.w3.org/2000/svg">
<path fill-rule="evenodd" clip-rule="evenodd" d="M9.99992 2.50016C5.85778 2.50016 2.49992 5.85803 2.49992 10.0002C2.49992 14.1423 5.85778 17.5002 9.99992 17.5002C14.1421 17.5002 17.4999 14.1423 17.4999 10.0002C17.4999 5.85803 14.1421 2.50016 9.99992 2.50016ZM0.833252 10.0002C0.833252 4.93755 4.93731 0.833496 9.99992 0.833496C15.0625 0.833496 19.1666 4.93755 19.1666 10.0002C19.1666 15.0628 15.0625 19.1668 9.99992 19.1668C4.93731 19.1668 0.833252 15.0628 0.833252 10.0002Z" fill="#F79009"/>
<path fill-rule="evenodd" clip-rule="evenodd" d="M10.0001 5.8335C10.4603 5.8335 10.8334 6.20659 10.8334 6.66683V10.0002C10.8334 10.4604 10.4603 10.8335 10.0001 10.8335C9.53984 10.8335 9.16675 10.4604 9.16675 10.0002V6.66683C9.16675 6.20659 9.53984 5.8335 10.0001 5.8335Z" fill="#F79009"/>
<path fill-rule="evenodd" clip-rule="evenodd" d="M9.16675 13.3333C9.16675 12.8731 9.53984 12.5 10.0001 12.5H10.0084C10.4687 12.5 10.8417 12.8731 10.8417 13.3333C10.8417 13.7936 10.4687 14.1667 10.0084 14.1667H10.0001C9.53984 14.1667 9.16675 13.7936 9.16675 13.3333Z" fill="#F79009"/>
</svg>
