<svg width="21" height="20" viewBox="0 0 21 20" fill="none" xmlns="http://www.w3.org/2000/svg">
<path fill-rule="evenodd" clip-rule="evenodd" d="M4.16663 9.99996C4.16663 9.53972 4.53972 9.16663 4.99996 9.16663H16.6666C17.1269 9.16663 17.5 9.53972 17.5 9.99996C17.5 10.4602 17.1269 10.8333 16.6666 10.8333H4.99996C4.53972 10.8333 4.16663 10.4602 4.16663 9.99996Z" fill="#595977"/>
<path fill-rule="evenodd" clip-rule="evenodd" d="M10.2441 3.57745C10.5695 3.25201 11.0972 3.25201 11.4226 3.57745L17.2559 9.41079C17.5814 9.73622 17.5814 10.2639 17.2559 10.5893L11.4226 16.4226C11.0972 16.7481 10.5695 16.7481 10.2441 16.4226C9.91864 16.0972 9.91864 15.5696 10.2441 15.2441L15.4882 10L10.2441 4.75596C9.91864 4.43053 9.91864 3.90289 10.2441 3.57745Z" fill="#595977"/>
</svg>
