<svg width="40" height="40" viewBox="0 0 40 40" fill="none" xmlns="http://www.w3.org/2000/svg">
<path fill-rule="evenodd" clip-rule="evenodd" d="M6.6665 19.9999C6.6665 19.0794 7.4127 18.3333 8.33317 18.3333H31.6665C32.587 18.3333 33.3332 19.0794 33.3332 19.9999C33.3332 20.9204 32.587 21.6666 31.6665 21.6666H8.33317C7.4127 21.6666 6.6665 20.9204 6.6665 19.9999Z" fill="white"/>
<path fill-rule="evenodd" clip-rule="evenodd" d="M18.8217 7.1549C19.4725 6.50403 20.5278 6.50403 21.1787 7.1549L32.8453 18.8216C33.4962 19.4724 33.4962 20.5277 32.8453 21.1786L21.1787 32.8453C20.5278 33.4961 19.4725 33.4961 18.8217 32.8453C18.1708 32.1944 18.1708 31.1391 18.8217 30.4882L29.3098 20.0001L18.8217 9.51193C18.1708 8.86105 18.1708 7.80578 18.8217 7.1549Z" fill="white"/>
</svg>
