<svg width="21" height="20" viewBox="0 0 21 20" fill="none" xmlns="http://www.w3.org/2000/svg">
<path fill-rule="evenodd" clip-rule="evenodd" d="M3.83325 9.99984C3.83325 9.5396 4.20635 9.1665 4.66659 9.1665H16.3333C16.7935 9.1665 17.1666 9.5396 17.1666 9.99984C17.1666 10.4601 16.7935 10.8332 16.3333 10.8332H4.66659C4.20635 10.8332 3.83325 10.4601 3.83325 9.99984Z" fill="#BBBBBE"/>
<path fill-rule="evenodd" clip-rule="evenodd" d="M9.91083 3.57757C10.2363 3.25214 10.7639 3.25214 11.0893 3.57757L16.9227 9.41091C17.2481 9.73634 17.2481 10.264 16.9227 10.5894L11.0893 16.4228C10.7639 16.7482 10.2363 16.7482 9.91083 16.4228C9.58539 16.0973 9.58539 15.5697 9.91083 15.2442L15.1549 10.0002L9.91083 4.75609C9.58539 4.43065 9.58539 3.90301 9.91083 3.57757Z" fill="#BBBBBE"/>
</svg>
