<svg width="30" height="30" viewBox="0 0 30 30" fill="none" xmlns="http://www.w3.org/2000/svg">
<path fill-rule="evenodd" clip-rule="evenodd" d="M15 3.75C15.6904 3.75 16.25 4.30964 16.25 5V25C16.25 25.6904 15.6904 26.25 15 26.25C14.3096 26.25 13.75 25.6904 13.75 25V5C13.75 4.30964 14.3096 3.75 15 3.75ZM22.5 11.25C23.1904 11.25 23.75 11.8096 23.75 12.5V25C23.75 25.6904 23.1904 26.25 22.5 26.25C21.8096 26.25 21.25 25.6904 21.25 25V12.5C21.25 11.8096 21.8096 11.25 22.5 11.25ZM8.75 17.5C8.75 16.8096 8.19036 16.25 7.5 16.25C6.80964 16.25 6.25 16.8096 6.25 17.5V25C6.25 25.6904 6.80964 26.25 7.5 26.25C8.19036 26.25 8.75 25.6904 8.75 25V17.5Z" fill="url(#paint0_linear_671_11824)"/>
<defs>
<linearGradient id="paint0_linear_671_11824" x1="8" y1="26" x2="23.8295" y2="27.2176" gradientUnits="userSpaceOnUse">
<stop stop-color="white"/>
<stop offset="1" stop-color="#9B95E9"/>
</linearGradient>
</defs>
</svg>
