<svg width="17" height="16" viewBox="0 0 17 16" fill="none" xmlns="http://www.w3.org/2000/svg">
<path fill-rule="evenodd" clip-rule="evenodd" d="M4 4.66666C3.82319 4.66666 3.65362 4.7369 3.5286 4.86192C3.40357 4.98695 3.33333 5.15652 3.33333 5.33333V12.6667C3.33333 12.8435 3.40357 13.013 3.5286 13.1381C3.65362 13.2631 3.82319 13.3333 4 13.3333H11.3333C11.5101 13.3333 11.6797 13.2631 11.8047 13.1381C11.9298 13.013 12 12.8435 12 12.6667V8.66666C12 8.29847 12.2985 8 12.6667 8C13.0349 8 13.3333 8.29847 13.3333 8.66666V12.6667C13.3333 13.1971 13.1226 13.7058 12.7475 14.0809C12.3725 14.4559 11.8638 14.6667 11.3333 14.6667H4C3.46957 14.6667 2.96086 14.4559 2.58579 14.0809C2.21071 13.7058 2 13.1971 2 12.6667V5.33333C2 4.8029 2.21071 4.29419 2.58579 3.91911C2.96086 3.54404 3.46957 3.33333 4 3.33333H8C8.36819 3.33333 8.66667 3.63181 8.66667 3.99999C8.66667 4.36818 8.36819 4.66666 8 4.66666H4Z" fill="white"/>
<path fill-rule="evenodd" clip-rule="evenodd" d="M10 1.99999C10 1.63181 10.2985 1.33333 10.6667 1.33333H14.6667C15.0349 1.33333 15.3333 1.63181 15.3333 1.99999V5.99999C15.3333 6.36818 15.0349 6.66666 14.6667 6.66666C14.2985 6.66666 14 6.36818 14 5.99999V2.66666H10.6667C10.2985 2.66666 10 2.36818 10 1.99999Z" fill="white"/>
<path fill-rule="evenodd" clip-rule="evenodd" d="M15.1379 1.52859C15.3983 1.78894 15.3983 2.21105 15.1379 2.4714L7.80458 9.80473C7.54423 10.0651 7.12212 10.0651 6.86177 9.80473C6.60142 9.54438 6.60142 9.12227 6.86177 8.86192L14.1951 1.52859C14.4554 1.26824 14.8776 1.26824 15.1379 1.52859Z" fill="white"/>
</svg>
