<svg width="16" height="16" viewBox="0 0 16 16" xmlns="http://www.w3.org/2000/svg">
<path fill-rule="evenodd" clip-rule="evenodd" d="M8.00008 2.00001C4.68637 2.00001 2.00008 4.6863 2.00008 8C2.00008 11.3137 4.68637 14 8.00008 14C11.3138 14 14.0001 11.3137 14.0001 8C14.0001 4.6863 11.3138 2.00001 8.00008 2.00001ZM0.666748 8C0.666748 3.94992 3.94999 0.666672 8.00008 0.666672C12.0502 0.666672 15.3334 3.94992 15.3334 8C15.3334 12.0501 12.0502 15.3333 8.00008 15.3333C3.94999 15.3333 0.666748 12.0501 0.666748 8Z"/>
<path fill-rule="evenodd" clip-rule="evenodd" d="M7.99992 7.33333C8.36811 7.33333 8.66659 7.63181 8.66659 7.99999V10.6667C8.66659 11.0349 8.36811 11.3333 7.99992 11.3333C7.63173 11.3333 7.33325 11.0349 7.33325 10.6667V7.99999C7.33325 7.63181 7.63173 7.33333 7.99992 7.33333Z" />
<path fill-rule="evenodd" clip-rule="evenodd" d="M7.33325 5.33334C7.33325 4.96515 7.63173 4.66667 7.99992 4.66667H8.00659C8.37477 4.66667 8.67325 4.96515 8.67325 5.33334C8.67325 5.70153 8.37477 6.00001 8.00659 6.00001H7.99992C7.63173 6.00001 7.33325 5.70153 7.33325 5.33334Z" />
</svg>
