<svg width="20" height="20" viewBox="0 0 20 20" fill="none" xmlns="http://www.w3.org/2000/svg">
<path fill-rule="evenodd" clip-rule="evenodd" d="M4.16675 3.33334C3.94573 3.33334 3.73377 3.42114 3.57749 3.57742C3.42121 3.7337 3.33341 3.94566 3.33341 4.16667V15.8333C3.33341 16.0544 3.42121 16.2663 3.57749 16.4226C3.73377 16.5789 3.94573 16.6667 4.16675 16.6667H7.50008C7.96032 16.6667 8.33341 17.0398 8.33341 17.5C8.33341 17.9602 7.96032 18.3333 7.50008 18.3333H4.16675C3.50371 18.3333 2.86782 18.0699 2.39898 17.6011C1.93014 17.1323 1.66675 16.4964 1.66675 15.8333V4.16667C1.66675 3.50363 1.93014 2.86775 2.39898 2.3989C2.86782 1.93006 3.50371 1.66667 4.16675 1.66667H7.50008C7.96032 1.66667 8.33341 2.03977 8.33341 2.50001C8.33341 2.96024 7.96032 3.33334 7.50008 3.33334H4.16675Z" fill="#A3A3A3"/>
<path fill-rule="evenodd" clip-rule="evenodd" d="M12.7441 5.24408C13.0695 4.91864 13.5972 4.91864 13.9226 5.24408L18.0893 9.41074C18.4147 9.73618 18.4147 10.2638 18.0893 10.5893L13.9226 14.7559C13.5972 15.0814 13.0695 15.0814 12.7441 14.7559C12.4186 14.4305 12.4186 13.9028 12.7441 13.5774L16.3215 10L12.7441 6.42259C12.4186 6.09715 12.4186 5.56951 12.7441 5.24408Z" fill="#A3A3A3"/>
<path fill-rule="evenodd" clip-rule="evenodd" d="M6.66675 10C6.66675 9.53977 7.03984 9.16667 7.50008 9.16667H17.5001C17.9603 9.16667 18.3334 9.53977 18.3334 10C18.3334 10.4602 17.9603 10.8333 17.5001 10.8333H7.50008C7.03984 10.8333 6.66675 10.4602 6.66675 10Z" fill="#A3A3A3"/>
</svg>
