<svg width="25" height="24" viewBox="0 0 25 24" fill="none" xmlns="http://www.w3.org/2000/svg">
<path d="M15.833 5C15.283 5 14.833 4.55 14.833 4V2C14.833 1.45 15.283 1 15.833 1C16.383 1 16.833 1.45 16.833 2V4C16.833 4.55 16.383 5 15.833 5Z" fill="#595977"/>
<path d="M15.833 17C15.283 17 14.833 16.55 14.833 16V14C14.833 13.45 15.283 13 15.833 13C16.383 13 16.833 13.45 16.833 14V16C16.833 16.55 16.383 17 15.833 17Z" fill="#595977"/>
<path d="M10.833 10H8.83301C8.28301 10 7.83301 9.55 7.83301 9C7.83301 8.45 8.28301 8 8.83301 8H10.833C11.383 8 11.833 8.45 11.833 9C11.833 9.55 11.383 10 10.833 10Z" fill="#595977"/>
<path d="M22.833 10H20.833C20.283 10 19.833 9.55 19.833 9C19.833 8.45 20.283 8 20.833 8H22.833C23.383 8 23.833 8.45 23.833 9C23.833 9.55 23.383 10 22.833 10Z" fill="#595977"/>
<path d="M19.8334 14C19.5734 14 19.3234 13.9 19.1234 13.71L17.9234 12.51C17.5334 12.12 17.5334 11.49 17.9234 11.1C18.3134 10.71 18.9434 10.71 19.3334 11.1L20.5334 12.3C20.9234 12.69 20.9234 13.32 20.5334 13.71C20.3434 13.9 20.0934 14 19.8334 14Z" fill="#595977"/>
<path d="M15.833 10C15.573 10 15.313 9.9 15.123 9.71C14.943 9.52 14.833 9.27 14.833 9C14.833 8.74 14.943 8.48 15.123 8.3C15.493 7.93 16.173 7.92 16.543 8.3C16.723 8.48 16.833 8.74 16.833 9C16.833 9.27 16.723 9.52 16.543 9.71C16.353 9.9 16.093 10 15.833 10Z" fill="#595977"/>
<path d="M18.6334 7.20001C18.3734 7.20001 18.1234 7.10001 17.9234 6.91001C17.5334 6.52001 17.5334 5.89001 17.9234 5.50001L19.1234 4.30001C19.5134 3.91001 20.1434 3.91001 20.5334 4.30001C20.9234 4.69001 20.9234 5.32001 20.5334 5.71001L19.3334 6.91001C19.1434 7.10001 18.8934 7.20001 18.6334 7.20001Z" fill="#595977"/>
<path d="M3.83258 22C3.57258 22 3.32258 21.9 3.12258 21.71C2.73258 21.32 2.73258 20.69 3.12258 20.3L12.1226 11.3C12.5126 10.91 13.1426 10.91 13.5326 11.3C13.9226 11.69 13.9226 12.32 13.5326 12.71L4.53258 21.71C4.34258 21.9 4.09258 22 3.83258 22Z" fill="#595977"/>
<path d="M13.0326 7.20001C12.7726 7.20001 12.5226 7.10001 12.3226 6.91001L11.1226 5.71001C10.7326 5.32001 10.7326 4.69001 11.1226 4.30001C11.5126 3.91001 12.1426 3.91001 12.5326 4.30001L13.7326 5.50001C14.1226 5.89001 14.1226 6.52001 13.7326 6.91001C13.5426 7.10001 13.2926 7.20001 13.0326 7.20001Z" fill="#595977"/>
</svg>
