<svg width="20" height="20" viewBox="0 0 20 20" fill="none" xmlns="http://www.w3.org/2000/svg">
<path fill-rule="evenodd" clip-rule="evenodd" d="M4.16675 5.83335C3.94573 5.83335 3.73377 5.92115 3.57749 6.07743C3.42121 6.23371 3.33341 6.44567 3.33341 6.66669V15.8334C3.33341 16.0544 3.42121 16.2663 3.57749 16.4226C3.73377 16.5789 3.94573 16.6667 4.16675 16.6667H13.3334C13.5544 16.6667 13.7664 16.5789 13.9227 16.4226C14.0789 16.2663 14.1667 16.0544 14.1667 15.8334V10.8334C14.1667 10.3731 14.5398 10 15.0001 10C15.4603 10 15.8334 10.3731 15.8334 10.8334V15.8334C15.8334 16.4964 15.57 17.1323 15.1012 17.6011C14.6323 18.07 13.9965 18.3334 13.3334 18.3334H4.16675C3.50371 18.3334 2.86782 18.07 2.39898 17.6011C1.93014 17.1323 1.66675 16.4964 1.66675 15.8334V6.66669C1.66675 6.00365 1.93014 5.36776 2.39898 4.89892C2.86782 4.43008 3.50371 4.16669 4.16675 4.16669H9.16675C9.62699 4.16669 10.0001 4.53978 10.0001 5.00002C10.0001 5.46026 9.62699 5.83335 9.16675 5.83335H4.16675Z" fill="white"/>
<path fill-rule="evenodd" clip-rule="evenodd" d="M11.6667 2.50002C11.6667 2.03978 12.0398 1.66669 12.5001 1.66669H17.5001C17.9603 1.66669 18.3334 2.03978 18.3334 2.50002V7.50002C18.3334 7.96026 17.9603 8.33335 17.5001 8.33335C17.0398 8.33335 16.6667 7.96026 16.6667 7.50002V3.33335H12.5001C12.0398 3.33335 11.6667 2.96026 11.6667 2.50002Z" fill="white"/>
<path fill-rule="evenodd" clip-rule="evenodd" d="M18.0893 1.91076C18.4147 2.2362 18.4147 2.76384 18.0893 3.08928L8.92259 12.2559C8.59715 12.5814 8.06951 12.5814 7.74408 12.2559C7.41864 11.9305 7.41864 11.4029 7.74408 11.0774L16.9107 1.91076C17.2362 1.58533 17.7638 1.58533 18.0893 1.91076Z" fill="white"/>
</svg>
