<svg width="20" height="20" viewBox="0 0 20 20" fill="none" xmlns="http://www.w3.org/2000/svg">
<path fill-rule="evenodd" clip-rule="evenodd" d="M7.5 5.00001C7.5 4.53977 7.8731 4.16667 8.33333 4.16667H17.5C17.9602 4.16667 18.3333 4.53977 18.3333 5.00001C18.3333 5.46024 17.9602 5.83334 17.5 5.83334H8.33333C7.8731 5.83334 7.5 5.46024 7.5 5.00001Z" fill="#BBBBBE"/>
<path fill-rule="evenodd" clip-rule="evenodd" d="M7.5 10C7.5 9.53977 7.8731 9.16667 8.33333 9.16667H17.5C17.9602 9.16667 18.3333 9.53977 18.3333 10C18.3333 10.4602 17.9602 10.8333 17.5 10.8333H8.33333C7.8731 10.8333 7.5 10.4602 7.5 10Z" fill="#BBBBBE"/>
<path fill-rule="evenodd" clip-rule="evenodd" d="M7.5 15C7.5 14.5398 7.8731 14.1667 8.33333 14.1667H17.5C17.9602 14.1667 18.3333 14.5398 18.3333 15C18.3333 15.4602 17.9602 15.8333 17.5 15.8333H8.33333C7.8731 15.8333 7.5 15.4602 7.5 15Z" fill="#BBBBBE"/>
<path fill-rule="evenodd" clip-rule="evenodd" d="M4.41058 3.57741C4.73602 3.25197 5.26366 3.25197 5.58909 3.57741C5.91453 3.90284 5.91453 4.43048 5.58909 4.75592L3.92243 6.42258C3.59699 6.74802 3.06935 6.74802 2.74392 6.42258L1.91058 5.58925C1.58514 5.26381 1.58514 4.73618 1.91058 4.41074C2.23602 4.0853 2.76366 4.0853 3.08909 4.41074L3.33317 4.65482L4.41058 3.57741Z" fill="#BBBBBE"/>
<path fill-rule="evenodd" clip-rule="evenodd" d="M4.41058 8.57741C4.73602 8.25197 5.26366 8.25197 5.58909 8.57741C5.91453 8.90284 5.91453 9.43048 5.58909 9.75592L3.92243 11.4226C3.59699 11.748 3.06935 11.748 2.74392 11.4226L1.91058 10.5893C1.58514 10.2638 1.58514 9.73618 1.91058 9.41074C2.23602 9.0853 2.76366 9.0853 3.08909 9.41074L3.33317 9.65482L4.41058 8.57741Z" fill="#BBBBBE"/>
<path fill-rule="evenodd" clip-rule="evenodd" d="M4.41058 13.5774C4.73602 13.252 5.26366 13.252 5.58909 13.5774C5.91453 13.9028 5.91453 14.4305 5.58909 14.7559L3.92243 16.4226C3.59699 16.748 3.06935 16.748 2.74392 16.4226L1.91058 15.5893C1.58514 15.2638 1.58514 14.7362 1.91058 14.4107C2.23602 14.0853 2.76366 14.0853 3.08909 14.4107L3.33317 14.6548L4.41058 13.5774Z" fill="#BBBBBE"/>
</svg>
