<?xml version="1.0" encoding="UTF-8" standalone="no"?>
<svg width="66.519783mm" height="66.519783mm" viewBox="0 0 15.605595 67.255818" version="1.1" id="svg501" xmlns="http://www.w3.org/2000/svg" xmlnsSvg="http://www.w3.org/2000/svg">
  <defs id="defs18"/>
  <g id="g7" transform="translate(-25.825113)">
    <path style="fill:#ffffff;fill-opacity:1;stroke-width:0.227303" d="m 128.97657,61.41792 c -5.5076,7.035601 -10.67759,14.356788 -16.02644,21.523227 -10.60919,14.500392 -21.347094,28.913803 -31.776403,43.542193 -0.839343,1.20088 0.971093,2.54573 1.839732,1.33274 10.037094,-8.67346 19.814391,-17.64198 29.796201,-26.37867 -2.02418,6.92658 -3.76874,13.99112 -7.01654,20.47839 -0.96789,2.31741 -2.20754,4.54856 -3.01231,6.91915 -0.0301,1.31478 1.69407,1.34947 2.31076,0.45149 2.61435,-2.329 5.0861,-4.81267 7.63152,-7.21597 5.58306,-0.51852 11.20068,-0.80331 16.75869,-1.51787 1.43059,-0.90777 -0.0731,-2.4985 -0.35443,-3.63762 -1.5663,-3.6759 -3.23686,-7.30629 -4.81049,-10.97901 4.6895,-2.96881 9.64351,-5.63806 14.31253,-8.629099 0.79399,-1.200954 -0.16753,-2.831438 -0.11976,-4.197518 -0.41517,-3.080487 -0.8468,-6.158805 -1.24362,-9.241733 7.57045,7.524699 14.77689,15.470177 22.48078,22.88522 0.80162,1.06616 2.67328,0.0829 1.88901,-1.17248 -10.30497,-14.724994 -20.73023,-29.369033 -31.26878,-43.927591 -0.41324,-0.409414 -0.86317,-0.484652 -1.39045,-0.234849 z" id="path3320" transform="scale(0.26458333)"/>
    <path style="fill:#ffffff;fill-opacity:1;stroke-width:0.227303" d="M 126.20587,12.376458 C 103.9167,12.620181 81.640316,19.275895 63.220091,31.912324 44.126519,44.656455 29.072008,63.279146 20.564242,84.596587 13.973128,101.04891 11.24875,119.0764 12.79688,136.73594 c -0.117962,1.1551 1.220966,2.22572 2.127019,1.16839 13.570289,-10.95938 26.983506,-22.17308 40.601463,-33.03606 7.492943,4.64737 14.729663,9.79123 22.374671,14.21574 1.55527,0.27965 2.022124,-1.87668 2.965595,-2.73157 15.891091,-21.870326 31.664512,-43.826269 47.627032,-65.644833 17.34555,23.676164 34.37872,47.572461 51.62747,71.321133 1.29128,1.10852 2.69234,-0.62457 3.75077,-1.27732 10.38745,-8.1979 20.51021,-16.72717 30.91557,-24.902903 8.43438,7.683193 16.40298,15.937723 24.87323,23.604863 1.04978,0.90625 2.20277,-0.47394 1.77751,-1.56617 C 239.31405,90.152983 226.51101,63.471249 206.39178,44.293039 185.12523,23.761292 155.77134,12.055216 126.20587,12.376458 Z" id="path3398" transform="scale(0.26458333)"/>
    <path style="fill:#ffffff;fill-opacity:1;stroke-width:0.227303" d="m 214.77493,102.26893 c -4.5495,2.94446 -8.67989,6.52709 -13.02757,9.76785 -7.5068,5.89669 -15.20971,11.55464 -22.58261,17.61592 -1.16919,0.85828 0.0622,2.57794 1.27725,1.91432 5.93252,-1.46845 11.83679,-3.21643 17.72295,-4.74939 -1.88644,2.62436 -3.99461,5.10296 -5.72252,7.83396 -0.38045,1.24128 1.20204,1.71528 2.0331,1.02968 6.91855,-2.90465 13.72481,-6.06912 20.64257,-8.97551 5.23432,4.04557 10.11634,8.54774 15.39488,12.52562 1.25414,0.51176 1.95418,-1.16933 1.17514,-2.05416 -1.39541,-2.91903 -2.64567,-5.9312 -4.18024,-8.76936 -3.49841,-3.08636 -7.06201,-6.09758 -10.61131,-9.12496 2.05729,-0.25734 4.25147,0.0577 6.21398,-0.59534 0.79842,-1.37006 -0.82192,-2.70347 -1.15609,-4.02142 -2.01709,-4.00821 -3.64806,-8.24678 -6.04036,-12.04871 -0.28453,-0.34233 -0.71591,-0.43308 -1.13917,-0.3485 z" id="path3437" transform="scale(0.26458333)"/>
    <path style="fill:#e4c21e;fill-opacity:1;stroke-width:0.227303" d="m 140.47977,89.853852 c -1.4813,0.707706 -0.35758,2.515689 -0.3259,3.70839 0.26979,1.43294 0.63699,2.850853 0.80315,4.301369 -4.12388,2.615959 -8.46363,4.941769 -12.54331,7.586769 -0.86922,1.18253 0.5883,2.58827 0.80522,3.82052 3.1712,7.97885 6.39027,15.93844 9.58892,23.90633 -6.00158,11.41813 -12.0029,22.83639 -18.00397,34.25479 -4.11692,1.83673 -8.23383,3.6735 -12.35071,5.51032 -1.5651,-0.73806 -3.10719,-1.91987 -4.92644,-1.30157 -1.9277,0.32737 -3.973752,0.21385 -5.824274,0.82876 -2.214517,1.84236 -4.311763,3.88662 -6.597549,5.60616 -2.646003,1.03828 -5.493076,1.6933 -7.968918,3.10549 -1.055448,1.05209 0.444436,2.47058 1.604882,1.86059 3.26986,-0.88566 6.614177,-1.68744 9.772312,-2.86021 1.578235,-1.68297 3.062825,-3.4186 4.682724,-5.0612 2.878113,0.63016 5.713483,1.63965 8.618413,2.03196 3.51203,-1.05354 7.01088,-2.15228 10.53984,-3.1485 1.11175,8.80816 1.96018,17.69032 3.10943,26.4972 3.35062,6.73614 6.79281,13.48452 10.04483,20.23173 -2.9093,3.98814 -5.81261,7.98983 -9.06855,11.71951 -1.31566,0.64998 -1.16969,2.20402 0.0287,2.89128 2.44391,2.37848 4.56762,5.13802 7.26141,7.23602 1.16475,0.66005 2.21212,-1.05035 1.24484,-1.901 -1.52037,-2.37081 -3.42506,-4.65363 -4.80577,-7.00909 3.87543,-4.80066 8.03316,-9.41157 11.84931,-14.2313 0.39047,-1.35015 -1.11742,-2.4651 -1.5407,-3.69287 -3.15222,-5.72828 -6.62982,-11.29417 -9.45667,-17.19278 -0.65435,-8.73523 -1.42215,-17.46177 -2.13806,-26.1922 3.09918,-4.18959 6.19839,-8.37916 9.29766,-12.56869 2.25392,2.18202 4.25344,4.71687 6.66489,6.68058 3.25536,0.12357 6.61359,-0.31838 9.90846,-0.41101 2.35445,-0.0905 4.76519,-0.33042 7.07412,-0.31708 2.17172,1.66424 4.27339,3.40382 6.19312,5.36248 1.40733,5.00635 2.33886,10.15466 3.92053,15.10454 0.63726,1.1491 2.52648,0.44167 2.19178,-0.84529 -0.20854,-2.71978 -0.51663,-5.43376 -0.92075,-8.1314 1.35399,-0.55468 2.70046,-1.47905 4.17996,-0.76797 1.87578,0.24298 3.73688,1.10109 5.62291,0.92646 1.99401,-1.26292 4.29731,-2.14858 6.04528,-3.75227 0.73975,-1.19797 -0.9061,-2.27276 -1.90677,-1.47569 -1.49983,0.53265 -2.96432,1.55801 -4.46354,1.82042 -2.28911,-0.69949 -4.46894,-2.02041 -6.8319,-2.30211 -0.94438,0.33551 -1.91379,0.79829 -2.85282,1.04462 -0.63763,-1.62139 -0.62311,-3.60655 -1.69579,-5.04134 -2.5024,-2.03402 -4.89501,-4.2595 -7.46442,-6.17668 -2.15005,-0.3211 -4.42116,0.21715 -6.61594,0.21392 -3.54498,0.2143 -7.08995,0.42878 -10.63493,0.64318 -2.11007,-2.0428 -4.26558,-4.01737 -6.28501,-6.12874 3.68544,-7.49826 7.87421,-14.75622 11.30698,-22.37334 -0.3409,-2.38354 -1.59304,-4.62419 -2.29118,-6.94885 -2.26849,-6.29072 -4.61808,-12.55087 -6.75209,-18.89042 2.93283,-2.56939 6.36789,-4.56535 9.09832,-7.35404 0.46509,-1.279641 -0.4421,-2.656136 -0.49435,-3.965746 -0.18185,-2.113504 -2.36976,-3.127907 -3.59132,-4.648231 -0.97599,-0.711769 -1.76866,-2.27045 -3.10633,-2.203771 z" id="path3476" transform="scale(0.26458333)"/>
    <path style="fill:#ffffff;fill-opacity:1;stroke-width:0.227303" d="m 55.323363,109.93152 c -7.34388,5.76936 -14.388086,11.94047 -21.602228,17.88115 -3.885652,3.31834 -7.928087,6.47366 -11.662555,9.95856 -0.755314,1.10079 0.747242,2.19578 1.751385,1.56315 9.011129,-2.4075 18.050194,-4.70946 27.086767,-7.01931 -3.444207,2.30196 -7.0893,4.35043 -10.366694,6.87813 -0.762641,1.309 0.942448,1.87448 1.943541,1.84043 10.539763,1.32919 21.11975,2.40506 31.683951,3.46789 1.375302,-0.27236 0.919719,-1.92467 0.239734,-2.66592 -5.96883,-10.47961 -11.861598,-21.00251 -17.833946,-31.4801 -0.383981,-0.42839 -0.675506,-0.52391 -1.239955,-0.42398 z" id="path3515" transform="scale(0.26458333)"/>
  </g>
  <g id="layer1" transform="translate(104.81245,70.574596)" style="display:inline">
    <g id="g66" transform="matrix(0.35277777,0,0,-0.35277777,-21.034783,-35.033058)"/>
    <g id="g162" transform="matrix(0.35277777,0,0,-0.35277777,-94.300623,-12.849404)">
      <path d="M 0,0 -0.152,0.621 0.006,-0.634 Z" style="fill:#e4c21d;fill-opacity:1;fill-rule:nonzero;stroke:none" id="path164"/>
    </g>
    <g id="g170" transform="matrix(0.27941297,0,0,-0.27941297,-73.784006,-45.566576)">
      <path d="m 0,0 -31.962,-26.006 -49.84,69.013 -47.612,-65.78 -21.597,14.097 L -190.455,-41 c -0.314,3.342 -0.482,6.727 -0.482,10.15 0,59.449 48.366,107.813 107.814,107.813 57.018,0 103.831,-44.492 107.565,-100.581 z m 0.401,-29.425 -21.533,-9.538 7.483,9.881 -21.171,-5.851 35.221,27.247 6.919,-14.633 -7.538,-0.404 11.542,-9.835 4.709,-9.947 z m -73.099,27.365 -14.151,-8.376 6.001,-13.497 -16.2,-1.342 -8.866,-8.48 6.192,13.743 4.744,16.132 -32.835,-29.346 46.965,64.345 32.382,-45.668 -25.446,26.349 -0.702,0.357 z m 38.308,-75.721 -6.411,1.358 -3.358,-1.373 1.902,-15.145 0.152,-0.622 0.005,-0.634 -0.157,1.256 -5.117,20.889 -6.167,5.522 -16.511,-0.833 -6.365,6.786 -0.09,0.017 -9.571,-12.944 2.127,-25.825 10.531,-18.564 -11.705,-13.87 8.067,-11.345 -9.746,10.202 -0.953,0.998 1.677,1.486 8.167,10.821 -9.793,19.47 -2.934,25.999 -11.018,-3.338 -8.24,2.075 -4.608,-5.137 -22.938,-6.512 20.749,7.213 6.289,5.408 6.614,0.734 2.962,-1.493 12.313,5.483 17.381,33.05 -3.317,8.249 -1.492,3.711 -0.986,2.452 -4.525,11.253 12.453,7.425 -1.587,7.749 5.401,-5.243 0.961,-4.541 -9.147,-6.868 9.038,-24.805 -11.154,-21.348 6.795,-6.497 16.206,1.008 7.139,-5.99 1.337,-5.108 3.599,1.377 6.365,-2.383 11.865,5.35 z m -148.575,35.654 32.246,26.946 17.713,-31.338 -32.247,3.407 14.988,9.537 z M 37.229,-30.85 c 0,66.469 -53.883,120.352 -120.352,120.352 -66.469,0 -120.352,-53.883 -120.352,-120.352 0,-66.468 53.883,-120.352 120.352,-120.352 15.076,0 29.5,2.781 42.8,7.843 0.229,0.087 0.458,0.172 0.686,0.26 0.536,0.208 1.07,0.422 1.602,0.637 0.449,0.18 0.896,0.362 1.342,0.548 0.325,0.136 0.65,0.275 0.974,0.414 0.653,0.279 1.302,0.563 1.948,0.853 0.13,0.058 0.26,0.117 0.39,0.176 40.234,18.221 68.656,57.935 70.61,104.497 l -0.112,0.108 c 0.068,1.664 0.112,3.335 0.112,5.016" style="fill:#000000;fill-opacity:1;fill-rule:nonzero;stroke:none" id="path172"/>
    </g>
  </g>
</svg>
