<svg width="24" height="24" viewBox="0 0 24 24" fill="none" xmlns="http://www.w3.org/2000/svg">
<path fill-rule="evenodd" clip-rule="evenodd" d="M19.8145 11.3018C21.9137 7.87872 22.9633 6.15425 22.9633 6.12932C22.9633 6.09609 22.9468 6.07116 22.9147 6.05547L16.2725 2.72561C15.9746 2.57605 15.531 2.63883 15.3146 2.99702L11.3372 9.49518L16.125 17.3135C16.4852 16.73 17.7154 14.7249 19.8145 11.3018ZM7.32317 21.248C7.85208 21.513 8.32967 21.248 8.32967 20.6064C8.32415 14.1352 8.33336 10.5601 8.33846 8.57978C8.34458 6.20163 8.34479 6.12341 8.30646 6.09157L8.30241 6.08839C8.29948 6.08615 8.29635 6.08376 8.293 6.08039L2.01933 2.92316C1.31258 2.56866 1 2.80592 1 3.33027V17.3873C1 17.5766 1.0605 17.7686 1.17875 17.9615C1.297 18.1545 1.44183 18.292 1.61417 18.3742L7.32317 21.248ZM15.6712 18.0659L9.11519 7.38667V14.7858L15.6712 18.0659ZM23.0001 7.60915V20.6064C23.0001 20.8123 22.9432 20.9784 22.8277 21.1058C22.7131 21.2332 22.5573 21.2969 22.3611 21.2969C22.165 21.2969 21.9725 21.2434 21.7846 21.1363L16.3707 18.4231L23.0001 7.60915Z" fill="white" fill-opacity="0.64"/>
</svg>
