<svg width="26" height="26" viewBox="0 0 26 26" fill="none" xmlns="http://www.w3.org/2000/svg">
<rect width="26" height="26" rx="13" fill="#2F45C5" fill-opacity="0.4"/>
<mask id="mask0_1_3739" style="mask-type:alpha" maskUnits="userSpaceOnUse" x="4" y="4" width="18" height="19">
<path fill-rule="evenodd" clip-rule="evenodd" d="M4.81885 4.01572H21.6667V22.0724H4.81885V4.01572Z" fill="white"/>
</mask>
<g mask="url(#mask0_1_3739)">
<path fill-rule="evenodd" clip-rule="evenodd" d="M21.3387 13.3701C20.3732 10.3128 17.7011 8.21763 14.6145 7.80877C17.5682 7.13437 18.5871 8.22118 18.5871 8.22118C19.2666 5.25515 16.9141 4.01547 16.9141 4.01547C15.4784 4.91094 14.1151 6.84053 13.5306 7.73683C10.0875 7.73057 7.70398 10.0387 7.70398 10.0387C8.41799 7.91901 11.572 7.08612 11.572 7.08612C11.3778 3.76103 8.7014 4.25235 8.7014 4.25235C8.7014 4.25235 1.80582 13.8568 6.3939 19.053C10.0105 23.1489 15.9486 22.4345 18.7104 20.6689C20.6942 19.4006 22.4062 16.7505 21.3387 13.3701" fill="#FEFEFE"/>
</g>
<path opacity="0.104152" fill-rule="evenodd" clip-rule="evenodd" d="M14.6554 8.97163C14.5104 8.8964 14.5961 8.67418 14.7533 8.71725C16.9177 9.311 21.4153 11.2402 20.1541 16.8639C19.7388 18.7156 18.1008 20.3134 16.009 20.5785C13.4714 20.9001 11.6218 19.8721 11.7137 18.461C11.9604 14.6737 18.6486 19.0266 18.1289 13.4798C17.9262 11.3167 17.1439 10.2631 14.6554 8.97163" fill="#231F20"/>
<path fill-rule="evenodd" clip-rule="evenodd" d="M10.1354 13.7401C10.1371 13.7409 10.143 13.7468 10.1486 13.7523L10.166 13.7689C10.1784 13.7805 10.19 13.7921 10.2035 13.8036C10.2288 13.8273 10.2556 13.8503 10.2828 13.8729C10.3097 13.8957 10.3385 13.917 10.3657 13.9394L10.4517 14.0017C10.5677 14.0828 10.6911 14.1498 10.8166 14.2054C11.0681 14.3177 11.3356 14.3667 11.6052 14.3608C11.6379 14.362 11.675 14.3584 11.7112 14.356L11.8197 14.3488C11.8913 14.3388 11.9637 14.3326 12.0347 14.3189C12.1781 14.2981 12.3177 14.2601 12.4569 14.2208C12.5946 14.1774 12.7304 14.1261 12.8611 14.0649C12.9275 14.036 12.9908 14.0018 13.0535 13.9679C13.0843 13.9507 13.1157 13.9331 13.1446 13.9149C13.1595 13.906 13.1745 13.8973 13.1879 13.8884L13.208 13.8756C13.2136 13.8721 13.222 13.8661 13.2223 13.867C13.3461 13.7545 13.5369 13.7646 13.6484 13.8896C13.7598 14.0147 13.7498 14.2073 13.6259 14.3199L13.5935 14.3508L13.5658 14.3763C13.5476 14.393 13.5295 14.4084 13.5116 14.4237C13.4752 14.4543 13.4387 14.482 13.4016 14.5099C13.3272 14.5641 13.2511 14.6148 13.1726 14.6607C13.0155 14.7524 12.8512 14.8301 12.6813 14.8928C12.3396 15.0148 11.9834 15.0846 11.6179 15.0881C11.2382 15.0908 10.8512 15.0029 10.52 14.8215C10.3532 14.7336 10.1989 14.6262 10.0595 14.5039C9.9909 14.4412 9.9238 14.3775 9.8622 14.3075C9.83144 14.2727 9.80093 14.2374 9.77182 14.2C9.75731 14.1819 9.74298 14.1617 9.72878 14.1423L9.70709 14.1117L9.68253 14.0756C9.60021 13.9547 9.6306 13.7894 9.75033 13.7063C9.82811 13.6523 9.92457 13.6464 10.0051 13.682L10.1354 13.7401Z" fill="#010202"/>
<path fill-rule="evenodd" clip-rule="evenodd" d="M17.4397 13.6376L17.5102 13.6761C17.5363 13.6906 17.5631 13.7047 17.5904 13.7184C17.6448 13.7459 17.7008 13.7708 17.757 13.7946C17.8691 13.8426 17.9836 13.8814 18.0973 13.9117C18.2113 13.9421 18.3247 13.9621 18.4355 13.9682C18.5469 13.979 18.6539 13.9694 18.758 13.9522C18.8612 13.9363 18.965 13.8972 19.0693 13.8546C19.1732 13.8068 19.2756 13.7479 19.3768 13.6814C19.4766 13.6121 19.5749 13.5362 19.669 13.4533C19.7166 13.4123 19.7631 13.3695 19.8076 13.3253C19.8304 13.3033 19.8518 13.2808 19.8734 13.2585L19.9324 13.1966L19.9523 13.1758C20.0668 13.0556 20.2561 13.052 20.3751 13.1677C20.4812 13.2708 20.4954 13.4338 20.4162 13.5531C20.3889 13.5943 20.369 13.623 20.3452 13.656C20.322 13.6874 20.2982 13.7182 20.2741 13.7481C20.2258 13.8086 20.1756 13.8669 20.1234 13.9239C20.0181 14.0367 19.904 14.1429 19.7801 14.2408C19.6554 14.3382 19.519 14.4247 19.373 14.5008C19.297 14.535 19.2234 14.5724 19.1416 14.5979C19.1013 14.6112 19.0619 14.6265 19.0204 14.6375L18.8942 14.6676C18.5539 14.7361 18.21 14.7019 17.9041 14.6094C17.75 14.5637 17.6029 14.5043 17.4627 14.434C17.3931 14.3977 17.3248 14.3598 17.2579 14.3184C17.2244 14.298 17.191 14.2767 17.1579 14.2544C17.1237 14.2306 17.0953 14.2101 17.0536 14.178C16.9087 14.067 16.8804 13.8585 16.9904 13.7123C17.09 13.5797 17.269 13.5439 17.4094 13.6209L17.4397 13.6376Z" fill="#010202"/>
<path fill-rule="evenodd" clip-rule="evenodd" d="M16.4552 14.8783H15.2236C14.9891 14.8783 14.799 15.0838 14.799 15.3374C14.799 15.4655 14.8485 15.5878 14.9355 15.6747L15.2839 15.964C15.5264 16.1595 15.5473 16.3216 15.5536 16.4906L15.5785 17.3039C15.5475 17.3159 15.5165 17.3275 15.4844 17.3373C15.4602 17.3462 15.4351 17.3525 15.4101 17.3587C15.3951 17.3625 15.38 17.3662 15.3652 17.3705C15.3413 17.3762 15.3173 17.3806 15.2933 17.385C15.2771 17.3879 15.261 17.3909 15.2449 17.3942C15.0841 17.4195 14.9244 17.4161 14.7755 17.3844C14.6266 17.3528 14.4857 17.2982 14.361 17.2092C14.3149 17.1838 14.2738 17.1477 14.2329 17.1118C14.2154 17.0964 14.1979 17.081 14.1801 17.0666L14.158 17.048L14.138 17.0254L14.098 16.9807L14.0177 16.8927L13.9918 16.8642L13.9856 16.8576C13.8523 16.7195 13.6288 16.7086 13.4845 16.8351C13.3157 16.9832 13.3168 17.2415 13.4774 17.3885L13.6028 17.5036L13.6657 17.5603L13.6972 17.5885L13.7324 17.6137C13.7526 17.6277 13.7725 17.6419 13.7924 17.6561C13.8663 17.7088 13.9397 17.7612 14.0241 17.8005C14.2267 17.9142 14.4587 17.9811 14.688 18.0051C14.9181 18.0298 15.1478 18.0091 15.3621 17.9536C15.3783 17.9488 15.3946 17.9442 15.4108 17.9395C15.4477 17.9289 15.4845 17.9184 15.5206 17.906C15.5375 17.8995 15.5546 17.8934 15.5717 17.8872C15.6062 17.8748 15.6407 17.8624 15.674 17.8468L15.6752 17.8463C15.7499 17.8149 15.8339 17.8172 15.905 17.856C15.9249 17.867 15.945 17.877 15.9652 17.8864C16.0841 17.94 16.2077 17.9707 16.3265 17.9818C16.4456 17.9937 16.5623 17.9919 16.6736 17.9786C16.7295 17.9722 16.7852 17.9652 16.8383 17.9534C16.892 17.9436 16.946 17.9325 17.0016 17.9153C17.2204 17.8538 17.449 17.7479 17.6337 17.5655C17.727 17.4768 17.8072 17.3707 17.8689 17.2537C17.8999 17.1952 17.9264 17.134 17.9483 17.07L17.9486 17.0688C17.9589 17.0368 17.9691 17.0048 17.9769 16.9703C17.9813 16.9538 17.9849 16.9351 17.9883 16.9165C17.9901 16.9077 17.9917 16.898 17.9932 16.8868C17.9934 16.8851 17.9937 16.8835 17.9939 16.8819C17.9952 16.8731 17.9965 16.8639 17.9978 16.8456C18.0081 16.6521 17.8611 16.4869 17.6694 16.4765C17.4799 16.4663 17.3179 16.6115 17.3045 16.802C17.3047 16.801 17.3048 16.8021 17.3048 16.8029C17.305 16.8036 17.3049 16.8058 17.3045 16.8088C17.3045 16.8098 17.3044 16.8108 17.3043 16.8118C17.3041 16.8162 17.3038 16.8206 17.3027 16.8261C17.3018 16.8352 17.2997 16.845 17.2976 16.855C17.2968 16.8588 17.296 16.8627 17.2952 16.8665C17.2884 16.8945 17.2791 16.923 17.2676 16.9509C17.2443 17.0068 17.2122 17.0598 17.1698 17.1072C17.0891 17.2048 16.9657 17.28 16.8221 17.3337C16.6743 17.3871 16.5081 17.4241 16.3675 17.4203C16.2955 17.4206 16.2299 17.4081 16.1721 17.3887C16.1639 17.3861 16.1564 17.3828 16.1489 17.3796C16.1429 17.377 16.137 17.3745 16.1308 17.3723C16.1257 17.3691 16.1202 17.3663 16.1147 17.3636C16.1091 17.3608 16.1036 17.358 16.0987 17.3549L16.124 16.5275H16.1241C16.1294 16.3523 16.2064 16.1137 16.4319 15.938L16.7375 15.7124C16.828 15.6253 16.8798 15.5005 16.8798 15.3694V15.3374C16.8798 15.0838 16.6897 14.8783 16.4552 14.8783Z" fill="#010202"/>
<path fill-rule="evenodd" clip-rule="evenodd" d="M17.305 16.8022C17.3049 16.8029 17.3048 16.8043 17.3044 16.8084C17.3045 16.8062 17.3049 16.8043 17.305 16.8022" fill="#010202"/>
</svg>
