<svg width="124" height="124" viewBox="0 0 124 124" fill="none" xmlns="http://www.w3.org/2000/svg">
<path fill-rule="evenodd" clip-rule="evenodd" d="M63.0606 9.38691L61.916 8.92908L61.2949 9.9939L1.25408 112.921L0 115.071H2.48889H122.57H124V113.641V72.1845V71.7726L123.781 71.4238L92.3308 21.3898L92.0833 20.996L91.6514 20.8232L63.0606 9.38691ZM62.5234 13.562L6.87532 108.959L62.8698 71.1951L78.8285 41.7975L62.5234 13.562ZM119.49 112.212H7.16535L64.3963 73.6141H97.2014L119.49 112.212ZM100.503 73.6141L121.141 109.353V72.5965L121.141 72.596V73.6141H100.503ZM119.983 70.755H98.8519L82.1051 41.7544L91.2109 24.9805L119.983 70.755ZM95.5504 70.755H66.3619L80.5053 44.7013L95.5504 70.755ZM65.8325 13.575L89.0974 22.881L80.4282 38.8506L65.8325 13.575Z" fill="url(#paint0_linear_322_2017)"/>
<defs>
<linearGradient id="paint0_linear_322_2017" x1="1.12287" y1="113.255" x2="142.199" y2="5.66633" gradientUnits="userSpaceOnUse">
<stop stop-color="#8B72FF"/>
<stop offset="1" stop-color="#3C66FF"/>
</linearGradient>
</defs>
</svg>
