<svg width="20" height="20" viewBox="0 0 20 20" fill="none" xmlns="http://www.w3.org/2000/svg">
<path fill-rule="evenodd" clip-rule="evenodd" d="M16.4228 3.57741C16.7482 3.90284 16.7482 4.43048 16.4228 4.75592L4.75609 16.4226C4.43065 16.748 3.90301 16.748 3.57757 16.4226C3.25214 16.0971 3.25214 15.5695 3.57757 15.2441L15.2442 3.57741C15.5697 3.25197 16.0973 3.25197 16.4228 3.57741Z" fill="#BBBBBE"/>
<path fill-rule="evenodd" clip-rule="evenodd" d="M5.41667 4.16667C4.72631 4.16667 4.16667 4.72631 4.16667 5.41667C4.16667 6.10702 4.72631 6.66667 5.41667 6.66667C6.10702 6.66667 6.66667 6.10702 6.66667 5.41667C6.66667 4.72631 6.10702 4.16667 5.41667 4.16667ZM2.5 5.41667C2.5 3.80584 3.80584 2.5 5.41667 2.5C7.0275 2.5 8.33333 3.80584 8.33333 5.41667C8.33333 7.0275 7.0275 8.33333 5.41667 8.33333C3.80584 8.33333 2.5 7.0275 2.5 5.41667Z" fill="#BBBBBE"/>
<path fill-rule="evenodd" clip-rule="evenodd" d="M14.5832 13.3333C13.8928 13.3333 13.3332 13.893 13.3332 14.5833C13.3332 15.2737 13.8928 15.8333 14.5832 15.8333C15.2735 15.8333 15.8332 15.2737 15.8332 14.5833C15.8332 13.893 15.2735 13.3333 14.5832 13.3333ZM11.6665 14.5833C11.6665 12.9725 12.9723 11.6667 14.5832 11.6667C16.194 11.6667 17.4998 12.9725 17.4998 14.5833C17.4998 16.1942 16.194 17.5 14.5832 17.5C12.9723 17.5 11.6665 16.1942 11.6665 14.5833Z" fill="#BBBBBE"/>
</svg>
