<svg width="20" height="20" viewBox="0 0 20 20" fill="none" xmlns="http://www.w3.org/2000/svg">
<path d="M11.9195 13.1277C11.5088 13.5384 10.6289 13.685 10.0018 13.685C9.37294 13.685 8.49483 13.5384 8.08416 13.1277C7.98695 13.0305 7.83113 13.0305 7.73406 13.1277C7.63685 13.2249 7.63685 13.3807 7.73406 13.4778C8.38489 14.1286 9.6352 14.18 10.0018 14.18C10.3684 14.18 11.6169 14.1286 12.2697 13.4778C12.365 13.3806 12.365 13.2248 12.2697 13.1277C12.1725 13.0305 12.0167 13.0305 11.9195 13.1277Z" fill="#A3A3A3"/>
<path d="M8.85426 10.9552C8.85426 10.429 8.42527 10 7.89908 10C7.37302 10 6.94389 10.429 6.94389 10.9552C6.94389 11.4813 7.37302 11.9104 7.89908 11.9104C8.42527 11.9104 8.85426 11.4814 8.85426 10.9552Z" fill="#A3A3A3"/>
<path fill-rule="evenodd" clip-rule="evenodd" d="M0.833374 10C0.833374 4.93817 4.9382 0.833344 10 0.833344C15.0619 0.833344 19.1667 4.93817 19.1667 10C19.1667 15.0618 15.0619 19.1667 10 19.1667C4.9382 19.1667 0.833374 15.0618 0.833374 10ZM15.3497 11.6243C15.3497 11.4887 15.3387 11.3548 15.3185 11.2228C15.7824 11.0138 16.1105 10.5464 16.1105 10C16.1105 9.2612 15.513 8.66353 14.774 8.66353C14.4129 8.66353 14.0865 8.80662 13.8464 9.03937C12.9334 8.37931 11.6739 7.95396 10.2714 7.90458L10.88 5.03902L12.8692 5.46255C12.893 5.96847 13.3073 6.37186 13.8188 6.37186C14.3468 6.37186 14.774 5.94469 14.774 5.41668C14.774 4.88866 14.3468 4.46149 13.8188 4.46149C13.443 4.46149 13.1223 4.67969 12.9665 4.99496L10.7444 4.52205C10.6821 4.50919 10.6179 4.52024 10.5647 4.55506C10.5116 4.58975 10.4749 4.64304 10.462 4.70529C10.462 4.70529 9.79471 7.8843 9.79471 7.90263C8.36661 7.93927 7.08314 8.36658 6.15551 9.03573C5.91535 8.80466 5.59085 8.66353 5.23152 8.66353C4.49271 8.66353 3.89504 9.26302 3.89504 10C3.89504 10.5427 4.21954 11.0102 4.68518 11.2191C4.66503 11.3512 4.65398 11.4869 4.65398 11.6243C4.65398 13.6813 7.04832 15.3479 10.0019 15.3479C12.9554 15.3479 15.3497 13.6813 15.3497 11.6243Z" fill="#A3A3A3"/>
<path d="M12.1011 10C11.5749 10 11.1459 10.429 11.1459 10.9552C11.1459 11.4813 11.5749 11.9104 12.1011 11.9104C12.6271 11.9104 13.0562 11.4813 13.0562 10.9552C13.0562 10.429 12.6273 10 12.1011 10Z" fill="#A3A3A3"/>
</svg>
