<svg width="20" height="26" viewBox="0 0 20 26" fill="none" xmlns="http://www.w3.org/2000/svg">
<path fill-rule="evenodd" clip-rule="evenodd" d="M10.3901 0.848516C10.1386 0.754189 9.8614 0.754189 9.60986 0.848516L0.720974 4.18185C0.287303 4.34448 0 4.75905 0 5.22221V13C0 16.8294 2.53527 19.8892 4.82388 21.8917C5.99153 22.9134 7.15394 23.712 8.02222 24.2547C8.45753 24.5268 8.82187 24.7364 9.07993 24.8792C9.20903 24.9507 9.31175 25.0056 9.38369 25.0433C9.41967 25.0622 9.44797 25.0768 9.46805 25.0871L9.49194 25.0993L9.49913 25.1029L9.50241 25.1046C9.81522 25.261 10.1841 25.2613 10.4969 25.1049L10 24.1111C10.4969 25.1049 10.4981 25.1043 10.4985 25.1041L10.5009 25.1029L10.5081 25.0993L10.532 25.0871C10.552 25.0768 10.5803 25.0622 10.6163 25.0433C10.6883 25.0056 10.791 24.9507 10.9201 24.8792C11.1781 24.7364 11.5425 24.5268 11.9778 24.2547C12.8461 23.712 14.0085 22.9134 15.1761 21.8917C17.4647 19.8892 20 16.8294 20 13V5.22221C20 4.75905 19.7127 4.34448 19.279 4.18185L10.3901 0.848516ZM10 24.1111L9.50241 25.1046C9.50277 25.1047 9.5031 25.1049 10 24.1111ZM10.8 22.3703C10.4852 22.567 10.2129 22.7268 10 22.8475C9.78707 22.7268 9.51477 22.567 9.2 22.3703C8.40162 21.8713 7.3418 21.1421 6.28723 20.2193C4.13139 18.333 2.22222 15.8373 2.22222 13V5.99222L10 3.07555L17.7778 5.99222V13C17.7778 15.8373 15.8686 18.333 13.7128 20.2193C12.6582 21.1421 11.5984 21.8713 10.8 22.3703ZM14.119 11.5634C14.5529 11.1295 14.5529 10.426 14.119 9.9921C13.6851 9.55818 12.9816 9.55818 12.5477 9.9921L8.88889 13.6509L7.45234 12.2143C7.01842 11.7804 6.31491 11.7804 5.88099 12.2143C5.44708 12.6482 5.44708 13.3518 5.88099 13.7857L8.10321 16.0079C8.53713 16.4418 9.24065 16.4418 9.67456 16.0079L14.119 11.5634Z" fill="url(#paint0_linear_671_11847)"/>
<defs>
<linearGradient id="paint0_linear_671_11847" x1="0.222222" y1="25.4444" x2="26.3984" y2="24.0076" gradientUnits="userSpaceOnUse">
<stop stop-color="white"/>
<stop offset="1" stop-color="#9B95E9"/>
</linearGradient>
</defs>
</svg>
