<svg width="40" height="40" viewBox="0 0 40 40" fill="none" xmlns="http://www.w3.org/2000/svg">
<path fill-rule="evenodd" clip-rule="evenodd" d="M19.4148 1.77281C19.7921 1.63131 20.2079 1.63131 20.5852 1.77281L33.9185 6.77281C34.569 7.01674 35 7.63861 35 8.33335V20C35 25.7441 31.1971 30.3338 27.7642 33.3376C26.0127 34.8702 24.2691 36.0681 22.9667 36.8821C22.3137 37.2902 21.7672 37.6046 21.3801 37.8189C21.1865 37.9261 21.0324 38.0084 20.9245 38.065C20.8705 38.0934 20.828 38.1153 20.7979 38.1307L20.7621 38.149L20.7513 38.1544L20.7477 38.1562C20.7472 38.1565 20.7454 38.1574 20 36.6667C19.2546 38.1574 19.2542 38.1572 19.2536 38.1569L19.2487 38.1544L19.2379 38.149L19.2021 38.1307C19.172 38.1153 19.1295 38.0934 19.0755 38.065C18.9676 38.0084 18.8135 37.9261 18.6199 37.8189C18.2328 37.6046 17.6863 37.2902 17.0333 36.8821C15.7309 36.0681 13.9873 34.8702 12.2358 33.3376C8.80291 30.3338 5 25.7441 5 20V8.33335C5 7.63861 5.43095 7.01674 6.08146 6.77281L19.4148 1.77281ZM20 36.6667L19.2536 38.1569C19.7228 38.3915 20.2761 38.392 20.7454 38.1574L20 36.6667ZM20 34.7713C20.3194 34.5903 20.7278 34.3505 21.2 34.0554C22.3976 33.307 23.9873 32.2132 25.5692 30.8291C28.8029 27.9995 31.6667 24.256 31.6667 20V9.48835L20 5.11335L8.33333 9.48835V20C8.33333 24.256 11.1971 27.9995 14.4308 30.8291C16.0127 32.2132 17.6024 33.307 18.8 34.0554C19.2722 34.3505 19.6806 34.5903 20 34.7713Z" fill="white"/>
<path fill-rule="evenodd" clip-rule="evenodd" d="M26.1785 15.4882C26.8294 16.139 26.8294 17.1943 26.1785 17.8452L19.5118 24.5118C18.861 25.1627 17.8057 25.1627 17.1548 24.5118L13.8215 21.1785C13.1706 20.5276 13.1706 19.4724 13.8215 18.8215C14.4724 18.1706 15.5276 18.1706 16.1785 18.8215L18.3333 20.9763L23.8215 15.4882C24.4724 14.8373 25.5276 14.8373 26.1785 15.4882Z" fill="white"/>
</svg>
