<svg width="124" height="124" viewBox="0 0 124 124" fill="none" xmlns="http://www.w3.org/2000/svg">
<path fill-rule="evenodd" clip-rule="evenodd" d="M121.729 62C121.729 94.9875 94.9875 121.729 62 121.729C29.0125 121.729 2.27081 94.9875 2.27081 62C2.27081 29.0125 29.0125 2.27081 62 2.27081C94.9875 2.27081 121.729 29.0125 121.729 62ZM124 62C124 96.2417 96.2417 124 62 124C27.7583 124 0 96.2417 0 62C0 27.7583 27.7583 0 62 0C96.2417 0 124 27.7583 124 62ZM86.2292 62C86.2292 75.3814 75.3814 86.2292 62 86.2292C48.6186 86.2292 37.7708 75.3814 37.7708 62C37.7708 48.6186 48.6186 37.7708 62 37.7708C75.3814 37.7708 86.2292 48.6186 86.2292 62ZM88.5 62C88.5 76.6355 76.6355 88.5 62 88.5C47.3645 88.5 35.5 76.6355 35.5 62C35.5 47.3645 47.3645 35.5 62 35.5C76.6355 35.5 88.5 47.3645 88.5 62Z" fill="url(#paint0_linear_322_2014)"/>
<defs>
<linearGradient id="paint0_linear_322_2014" x1="1.12286" y1="121.879" x2="157.578" y2="19.7459" gradientUnits="userSpaceOnUse">
<stop stop-color="#8B72FF"/>
<stop offset="1" stop-color="#3C66FF"/>
</linearGradient>
</defs>
</svg>
