<svg width="36" height="36" viewBox="0 0 36 36" fill="none" xmlns="http://www.w3.org/2000/svg">
<path fill-rule="evenodd" clip-rule="evenodd" d="M23.4945 5.66015C20.8354 4.47531 17.8645 4.18178 15.0249 4.82335C12.1853 5.46492 9.62913 7.00721 7.73768 9.2202C5.84623 11.4332 4.72081 14.1983 4.52927 17.1032C4.33772 20.008 5.09031 22.897 6.6748 25.3392C8.25929 27.7814 10.5908 29.646 13.3215 30.6548C16.0523 31.6637 19.036 31.7628 21.8277 30.9374C24.6194 30.112 27.0695 28.4063 28.8126 26.0746C30.5557 23.743 31.4983 20.9103 31.5 17.9992V16.62C31.5 15.7916 32.1716 15.12 33 15.12C33.8284 15.12 34.5 15.7916 34.5 16.62V18C34.498 21.5581 33.3458 25.0211 31.2154 27.8709C29.085 30.7207 26.0904 32.8055 22.6783 33.8143C19.2663 34.8232 15.6195 34.702 12.2819 33.4689C8.94427 32.2359 6.09468 29.9569 4.15808 26.972C2.22149 23.9871 1.30166 20.4562 1.53577 16.9058C1.76988 13.3554 3.14539 9.97581 5.45716 7.27104C7.76893 4.56627 10.8931 2.68125 14.3637 1.89711C17.8343 1.11297 21.4654 1.47172 24.7155 2.91987C25.4722 3.25704 25.8123 4.1438 25.4752 4.90051C25.138 5.65722 24.2512 5.99732 23.4945 5.66015Z" fill="#12B76A"/>
<path fill-rule="evenodd" clip-rule="evenodd" d="M34.0601 4.93881C34.6462 5.5243 34.6467 6.47405 34.0612 7.06013L19.0612 22.0751C18.7799 22.3567 18.3983 22.5149 18.0004 22.515C17.6024 22.5151 17.2207 22.3571 16.9393 22.0757L12.4393 17.5757C11.8536 16.9899 11.8536 16.0401 12.4393 15.4543C13.0251 14.8686 13.9749 14.8686 14.5607 15.4543L17.9995 18.8931L31.9388 4.93987C32.5243 4.35379 33.4741 4.35332 34.0601 4.93881Z" fill="#12B76A"/>
</svg>
