<svg width="25" height="24" viewBox="0 0 25 24" fill="none" xmlns="http://www.w3.org/2000/svg">
<path fill-rule="evenodd" clip-rule="evenodd" d="M18.2071 6.29289C18.5976 6.68342 18.5976 7.31658 18.2071 7.70711L8.20711 17.7071C7.81658 18.0976 7.18342 18.0976 6.79289 17.7071C6.40237 17.3166 6.40237 16.6834 6.79289 16.2929L16.7929 6.29289C17.1834 5.90237 17.8166 5.90237 18.2071 6.29289Z" fill="#A3A3A3"/>
<path fill-rule="evenodd" clip-rule="evenodd" d="M6.5 7C6.5 6.44772 6.94772 6 7.5 6H17.5C18.0523 6 18.5 6.44772 18.5 7V17C18.5 17.5523 18.0523 18 17.5 18C16.9477 18 16.5 17.5523 16.5 17V8H7.5C6.94772 8 6.5 7.55228 6.5 7Z" fill="#A3A3A3"/>
</svg>
