<svg width="20" height="20" viewBox="0 0 20 20" fill="none" xmlns="http://www.w3.org/2000/svg">
<path fill-rule="evenodd" clip-rule="evenodd" d="M10.0002 2.50016C5.85803 2.50016 2.50016 5.85803 2.50016 10.0002C2.50016 14.1423 5.85803 17.5002 10.0002 17.5002C14.1423 17.5002 17.5002 14.1423 17.5002 10.0002C17.5002 5.85803 14.1423 2.50016 10.0002 2.50016ZM0.833496 10.0002C0.833496 4.93755 4.93755 0.833496 10.0002 0.833496C15.0628 0.833496 19.1668 4.93755 19.1668 10.0002C19.1668 15.0628 15.0628 19.1668 10.0002 19.1668C4.93755 19.1668 0.833496 15.0628 0.833496 10.0002Z" fill="#F79009"/>
<path fill-rule="evenodd" clip-rule="evenodd" d="M9.99984 5.8335C10.4601 5.8335 10.8332 6.20659 10.8332 6.66683V10.0002C10.8332 10.4604 10.4601 10.8335 9.99984 10.8335C9.5396 10.8335 9.1665 10.4604 9.1665 10.0002V6.66683C9.1665 6.20659 9.5396 5.8335 9.99984 5.8335Z" fill="#F79009"/>
<path fill-rule="evenodd" clip-rule="evenodd" d="M9.1665 13.3333C9.1665 12.8731 9.5396 12.5 9.99984 12.5H10.0082C10.4684 12.5 10.8415 12.8731 10.8415 13.3333C10.8415 13.7936 10.4684 14.1667 10.0082 14.1667H9.99984C9.5396 14.1667 9.1665 13.7936 9.1665 13.3333Z" fill="#F79009"/>
</svg>
