<svg width="100%" height="auto" viewBox="0 0 30 30" preserveAspectRatio="xMidYMid">
    <path
      d="M15 0C6.71571 0 0 6.72974 0 15.0313C0 17.4393 0.565065 19.7151 1.56957 21.7327L5.58641 18.2739C6.06335 17.8632 6.24241 17.2129 6.1344 16.5928C6.04605 16.0856 5.99998 15.5638 5.99998 15.0313C5.99998 10.0504 10.0294 6.01252 15 6.01252C17.2428 6.01252 19.2941 6.83468 20.87 8.19466C21.3686 8.62496 22.0566 8.80133 22.6717 8.56606L27.4999 6.7195C24.8126 2.66933 20.2174 0 15 0Z"
      fill="url(#paint0_linear_343_756)"
    />
    <path
      d="M15 0C6.71571 0 0 6.72974 0 15.0313C0 17.4393 0.565065 19.7151 1.56957 21.7327L5.58641 18.2739C6.06335 17.8632 6.24241 17.2129 6.1344 16.5928C6.04605 16.0856 5.99998 15.5638 5.99998 15.0313C5.99998 10.0504 10.0294 6.01252 15 6.01252C17.2428 6.01252 19.2941 6.83468 20.87 8.19466C21.3686 8.62496 22.0566 8.80133 22.6717 8.56606L27.4999 6.7195C24.8126 2.66933 20.2174 0 15 0Z"
      fill="url(#paint1_linear_343_756)"
    />
    <path
      d="M27.4999 6.7195C24.8126 2.66933 20.2173 0 14.9999 0C8.37576 0 2.75451 4.30278 0.767578 10.2714C4.74987 5.01043 11.5344 4.54407 17.6248 6.40214C18.8342 6.7711 19.9356 7.38836 20.8699 8.19467C21.3686 8.62497 22.0565 8.80133 22.6717 8.56606L27.4999 6.7195Z"
      fill="url(#paint2_linear_343_756)"
    />
    <path
      d="M15 29.9999C23.2843 29.9999 30 23.2701 30 14.9686C30 12.5606 29.4349 10.2848 28.4304 8.26714L24.4136 11.726C23.9366 12.1367 23.7576 12.787 23.8656 13.407C23.954 13.9143 24 14.436 24 14.9686C24 19.9495 19.9706 23.9874 15 23.9874C12.7572 23.9874 10.7059 23.1652 9.12999 21.8052C8.63138 21.3749 7.94341 21.1985 7.32826 21.4338L2.50007 23.2804C5.18737 27.3306 9.78263 29.9999 15 29.9999Z"
      fill="url(#paint3_linear_343_756)"
    />
    <path
      d="M15 29.9999C23.2843 29.9999 30 23.2701 30 14.9686C30 12.5606 29.4349 10.2848 28.4304 8.26714L24.4136 11.726C23.9366 12.1367 23.7576 12.787 23.8656 13.407C23.954 13.9143 24 14.436 24 14.9686C24 19.9495 19.9706 23.9874 15 23.9874C12.7572 23.9874 10.7059 23.1652 9.12999 21.8052C8.63138 21.3749 7.94341 21.1985 7.32826 21.4338L2.50007 23.2804C5.18737 27.3306 9.78263 29.9999 15 29.9999Z"
      fill="url(#paint4_linear_343_756)"
    />
    <path
      d="M2.50014 23.2804C5.18744 27.3305 9.7827 29.9999 15.0001 29.9999C21.6242 29.9999 27.2455 25.6971 29.2324 19.7285C25.2501 24.9894 18.4656 25.4558 12.3752 23.5977C11.1658 23.2288 10.0644 22.6115 9.13005 21.8052C8.63144 21.3749 7.94348 21.1985 7.32833 21.4338L2.50014 23.2804Z"
      fill="url(#paint5_linear_343_756)"
    />
    <defs>
      <linearGradient
        id="paint0_linear_343_756"
        x1="0.249021"
        y1="21.361"
        x2="8.50697"
        y2="4.28611"
        gradientUnits="userSpaceOnUse"
      >
        <stop stopColor="#8B72FF" />
        <stop offset="1" stopColor="#2D54E3" />
      </linearGradient>
      <linearGradient
        id="paint1_linear_343_756"
        x1="6.6"
        y1="13.4999"
        x2="9.49757"
        y2="4.91179"
        gradientUnits="userSpaceOnUse"
      >
        <stop stopColor="#8B72FF" stopOpacity="0" />
        <stop offset="1" stopColor="#15102E" stopOpacity="0.4" />
      </linearGradient>
      <linearGradient
        id="paint2_linear_343_756"
        x1="1.00965"
        y1="10.0957"
        x2="13.3865"
        y2="-10.9321"
        gradientUnits="userSpaceOnUse"
      >
        <stop stopColor="#8B72FF" />
        <stop offset="1" stopColor="#3C66FF" />
      </linearGradient>
      <linearGradient
        id="paint3_linear_343_756"
        x1="29.751"
        y1="8.63886"
        x2="21.493"
        y2="25.7138"
        gradientUnits="userSpaceOnUse"
      >
        <stop stopColor="#8B72FF" />
        <stop offset="1" stopColor="#2D54E3" />
      </linearGradient>
      <linearGradient
        id="paint4_linear_343_756"
        x1="23.4"
        y1="16.5"
        x2="20.5024"
        y2="25.0881"
        gradientUnits="userSpaceOnUse"
      >
        <stop stopColor="#8B72FF" stopOpacity="0" />
        <stop offset="1" stopColor="#15102E" stopOpacity="0.4" />
      </linearGradient>
      <linearGradient
        id="paint5_linear_343_756"
        x1="28.9904"
        y1="19.9042"
        x2="16.6135"
        y2="40.932"
        gradientUnits="userSpaceOnUse"
      >
        <stop stopColor="#8B72FF" />
        <stop offset="1" stopColor="#3C66FF" />
      </linearGradient>
    </defs>
</svg>
