<svg width="20" height="20" viewBox="0 0 20 20" fill="none" xmlns="http://www.w3.org/2000/svg">
<g clip-path="url(#clip0_185_1243)">
<path fill-rule="evenodd" clip-rule="evenodd" d="M18.3327 10.1059C18.3274 10.5324 18.29 10.9511 18.2229 11.3598H13.5365H12.2154L12.7845 12.5521L14.8135 16.8034C13.454 17.767 11.7932 18.3333 10 18.3333C8.23084 18.3333 6.59045 17.782 5.24124 16.8419L7.28863 12.5521L7.85767 11.3598H6.53656H1.77706C1.70998 10.9511 1.67264 10.5324 1.66733 10.1059H7.48201H8.02242L8.24286 9.61251L10.0002 5.67913L11.7575 9.61251L11.978 10.1059H12.5184H18.3327ZM2.23327 13.0265C2.62514 14.0314 3.20641 14.9415 3.93322 15.7131L5.21545 13.0265H2.23327ZM14.8576 13.0265H17.7667C17.3836 14.009 16.8194 14.9009 16.1152 15.6613L14.8576 13.0265ZM18.1874 8.43925H13.0588L10.761 3.29629L10.033 1.66673C14.0872 1.68245 17.4587 4.5933 18.1874 8.43925ZM9.96739 1.66673C5.91298 1.68226 2.5413 4.59318 1.81258 8.43925H6.9416L9.23935 3.29629L9.96739 1.66673ZM20 10C20 15.5228 15.5228 20 10 20C4.47715 20 0 15.5228 0 10C0 4.47715 4.47715 0 10 0C15.5228 0 20 4.47715 20 10Z" fill="white" fill-opacity="0.92"/>
</g>
<defs>
<clipPath id="clip0_185_1243">
<rect width="20" height="20" fill="white"/>
</clipPath>
</defs>
</svg>
