<svg width="20" height="20" viewBox="0 0 20 20" fill="none" xmlns="http://www.w3.org/2000/svg">
<path d="M12.3571 15.4249H7.71682C8.098 9.62314 12.5938 5.01009 18.1639 4.60397V9.44146C15.1145 9.81786 12.713 12.318 12.3571 15.4249Z" stroke="white" stroke-opacity="0.92" stroke-width="1.6"/>
<path d="M13.1094 16.2249H6.88845C6.88845 12.8999 4.25943 10.1924 1.03613 10.1924V3.7749C7.69282 3.7749 13.1094 9.35318 13.1094 16.2249Z" fill="#0A0C1B"/>
<path d="M13.1094 16.2249H6.88845C6.88845 12.8999 4.25943 10.1924 1.03613 10.1924V3.7749C7.69282 3.7749 13.1094 9.35318 13.1094 16.2249Z" fill="white" fill-opacity="0.04"/>
<path d="M1.83613 4.60397C7.40623 5.01009 11.902 9.62314 12.2832 15.4249H7.6429C7.28705 12.318 4.88549 9.81786 1.83613 9.44146V4.60397Z" stroke="white" stroke-opacity="0.92" stroke-width="1.6"/>
</svg>
